<svg xmlns="http://www.w3.org/2000/svg" width="25" height="25" viewBox="0 0 200 235" stroke="#000" stroke-linecap="round" stroke-linejoin="round" fill="#fff" fill-rule="evenodd"><path d="M93.9667 3.2213294849c-2.1334.6666-22 11.6-44 24.4-26.6667 15.6-41.0667 24.6666-43.3334 27.6l-3.3333 4.2666-.4 53.0667-.4 53.0667 10.4 6c8 4.6666 10.8 5.6 11.8667 4.4.8-.9334 16.6666-25.8667 35.0666-55.6l33.7334-54-9.4667-.4c-10.6667-.4-18.2667 1.2-23.0667 4.9333-1.8666 1.4667-12.5333 17.0667-23.8666 34.6667l-20.5334 32-.4-36.9334c-.2667-33.7333-.1333-36.9333 2-39.0666 5.2-4.8 79.7334-46.6667 82-46.1334 3.4667.9334 79.2 44.6667 80.9334 46.8 1.0666 1.2 1.3333 13.6 1.2 40l-.4 38.2667-14-21.7333-21.0667-32.8-7.2-11.2-8 13.3333-7.8667 13.2 20.6667 33.2 20.6667 33.2-2.9334 2.2667c-1.6 1.3333-3.4666 2.2666-4.2666 2.2666-.6667 0-10-13.7333-20.5334-30.5333l-19.3333-30.5333-9.0667 15.3333-8.9333 15.3333 14 22c7.7333 12 14.2667 22.6667 14.6667 23.7334.4 1.2-4 4.4-13.0667 9.6-7.6 4.4-14.5333 8.1333-15.4667 8.2666-1.3333.4-31.7333-15.8666-36.1333-19.2-.2667-.2666 9.0667-16.5333 20.6667-36.1333l35.3333-60.1333 14.4-24.2667h-15.6l-15.6.1333-34.6667 57.2-34.9333 59.0667c-.2667.8 13.2 9.3333 29.8667 18.8 25.4666 14.6667 30.9333 17.2 35.7333 17.2 4.9333 0 11.3333-3.2 47.8667-24.4 29.3333-16.9333 43.0666-25.6 45.2-28.5333 2.9333-4.1334 2.9333-4.6667 2.9333-55.0667 0-58.5333.8-54.5333-13.4667-63.2-24.6666-14.9333-76.4-43.7333-79.8666-44.2667-2.1334-.4-5.7334-.1333-8 .5334z" stroke-linejoin="miter" fill="#a440f2" fill-rule="nonzero" stroke-width="5" stroke="#efb0ff"/></svg>