<svg xmlns="http://www.w3.org/2000/svg" xmlns:xlink="http://www.w3.org/1999/xlink" viewBox="0 0 512 512"><defs><style>.cls-1{fill:#1d1d3c;}.cls-2{fill:url(#linear-gradient);}.cls-3{fill:#fff;}.cls-4{fill:#a440f2;}.cls-5{fill:#38d6b2;}</style><linearGradient id="linear-gradient" x1="29.71" y1="256" x2="482.29" y2="256" gradientUnits="userSpaceOnUse"><stop offset="0" stop-color="#a440f2"/><stop offset="0.13" stop-color="#9f47ef"/><stop offset="0.31" stop-color="#915ae7"/><stop offset="0.53" stop-color="#7a7ad9"/><stop offset="0.77" stop-color="#5ba5c7"/><stop offset="1" stop-color="#38d6b2"/></linearGradient></defs><g id="Layer_2" data-name="Layer 2"><g id="Layer_1-2" data-name="Layer 1"><circle class="cls-1" cx="256" cy="256" r="256"/><circle class="cls-2" cx="256" cy="256" r="226.29"/><circle class="cls-1" cx="256" cy="256" r="210.24"/><polygon class="cls-1" points="390.65 133.62 368.81 146.23 356.2 124.39 334.37 137 321.76 115.16 232.67 166.6 245.28 188.43 225.18 200.03 223.44 201.04 203.35 212.64 190.74 190.81 101.65 242.24 114.26 264.08 92.42 276.69 105.03 298.52 83.19 311.13 134.63 400.22 156.46 387.61 169.07 409.45 190.91 396.84 203.52 418.68 292.6 367.24 280 345.4 300.09 333.8 301.83 332.8 321.93 321.19 334.54 343.03 423.62 291.6 411.02 269.76 432.85 257.15 420.25 235.31 442.08 222.71 390.65 133.62"/><polygon class="cls-3" points="184.52 282.9 206.36 270.3 228.19 257.69 215.59 235.85 193.75 248.46 181.14 226.62 159.31 239.23 137.47 251.84 150.08 273.68 128.24 286.28 140.85 308.12 162.68 295.51 184.52 282.9"/><polygon class="cls-3" points="209.74 326.58 187.9 339.18 166.06 351.79 178.67 373.63 200.51 361.02 213.11 382.86 234.95 370.25 256.79 357.64 244.18 335.81 266.01 323.2 253.41 301.36 231.57 313.97 209.74 326.58"/><rect class="cls-3" x="245.42" y="271.53" width="25.22" height="25.21" transform="translate(-107.5 167.08) rotate(-30)"/><polygon class="cls-3" points="140.85 308.12 119.01 320.73 131.62 342.56 144.22 364.4 166.06 351.79 153.45 329.95 140.85 308.12"/><polygon class="cls-3" points="340.75 250.93 318.92 263.54 297.08 276.15 309.69 297.98 331.53 285.38 344.13 307.21 365.97 294.61 387.81 282 375.2 260.16 397.04 247.55 384.43 225.72 362.59 238.32 340.75 250.93"/><rect class="cls-3" x="254.64" y="237.09" width="25.22" height="25.21" transform="translate(-89.04 167.08) rotate(-30)"/><polygon class="cls-3" points="324.77 172.82 312.16 150.98 290.33 163.59 268.49 176.19 281.1 198.03 259.26 210.64 271.87 232.47 293.7 219.87 315.54 207.26 337.38 194.65 359.21 182.04 346.61 160.21 324.77 172.82"/><polygon class="cls-3" points="359.21 182.04 371.82 203.88 384.43 225.72 406.26 213.11 393.66 191.27 381.05 169.44 359.21 182.04"/><polygon class="cls-1" points="378.04 111.78 356.2 124.39 343.6 102.55 321.76 115.16 309.15 93.33 220.06 144.76 232.67 166.6 212.58 178.2 210.84 179.2 190.74 190.81 178.13 168.97 89.04 220.4 101.65 242.24 79.81 254.85 92.42 276.69 70.59 289.29 122.02 378.38 143.86 365.77 156.46 387.61 178.3 375 190.91 396.84 280 345.4 267.39 323.57 287.49 311.96 289.23 310.96 309.32 299.36 321.93 321.19 411.02 269.76 398.41 247.92 420.25 235.31 407.64 213.48 429.48 200.87 378.04 111.78"/><polygon class="cls-3" points="171.91 261.07 193.75 248.46 215.59 235.85 202.98 214.02 181.14 226.62 168.53 204.79 146.7 217.39 124.86 230 137.47 251.84 115.63 264.45 128.24 286.28 150.08 273.68 171.91 261.07"/><polygon class="cls-3" points="197.13 304.74 175.29 317.35 153.45 329.95 166.06 351.79 187.9 339.18 200.51 361.02 222.34 348.41 244.18 335.81 231.57 313.97 253.41 301.36 240.8 279.53 218.96 292.13 197.13 304.74"/><rect class="cls-3" x="232.81" y="249.7" width="25.22" height="25.21" transform="translate(-98.27 157.85) rotate(-30)"/><polygon class="cls-3" points="128.24 286.28 106.4 298.89 119.01 320.73 131.62 342.56 153.45 329.95 140.85 308.12 128.24 286.28"/><polygon class="cls-3" points="328.15 229.1 306.31 241.7 284.48 254.31 297.08 276.15 318.92 263.54 331.53 285.38 353.36 272.77 375.2 260.16 362.59 238.32 384.43 225.72 371.82 203.88 349.98 216.49 328.15 229.1"/><rect class="cls-3" x="242.04" y="215.25" width="25.22" height="25.21" transform="translate(-79.81 157.85) rotate(-30)"/><polygon class="cls-3" points="312.16 150.98 299.56 129.14 277.72 141.75 255.88 154.36 268.49 176.19 246.65 188.8 259.26 210.64 281.1 198.03 302.93 185.42 324.77 172.82 346.61 160.21 334 138.37 312.16 150.98"/><polygon class="cls-3" points="346.61 160.21 359.21 182.04 371.82 203.88 393.66 191.27 381.05 169.44 368.44 147.6 346.61 160.21"/><rect class="cls-4" x="210.01" y="365.95" width="51.15" height="7.56" transform="translate(-153.3 167.33) rotate(-30)"/><rect class="cls-5" x="340.33" y="290.71" width="51.15" height="7.56" transform="translate(-98.22 222.41) rotate(-30)"/></g></g></svg>