<?xml version="1.0" encoding="utf-8"?>
<!-- Generator: Adobe Illustrator 14.0.0, SVG Export Plug-In . SVG Version: 6.00 Build 43363)  -->
<!DOCTYPE svg PUBLIC "-//W3C//DTD SVG 1.1//EN" "http://www.w3.org/Graphics/SVG/1.1/DTD/svg11.dtd">
<svg version="1.1" id="Layer_1" xmlns="http://www.w3.org/2000/svg" xmlns:xlink="http://www.w3.org/1999/xlink" x="0px" y="0px"
	  viewBox="0 0 40 40" enable-background="new 0 0 40 40" xml:space="preserve">
<g>
	<path d="M34.063,10.625H5.938C5.419,10.625,5,10.204,5,9.688C5,9.17,5.419,8.75,5.938,8.75h28.125C34.58,8.75,35,9.17,35,9.688
		C35,10.204,34.58,10.625,34.063,10.625"/>
	<path d="M34.063,20.938H5.938C5.419,20.938,5,20.517,5,20c0-0.518,0.419-0.938,0.938-0.938h28.125C34.58,19.063,35,19.482,35,20
		C35,20.517,34.58,20.938,34.063,20.938"/>
	<path d="M34.063,31.25H5.938C5.419,31.25,5,30.829,5,30.313c0-0.518,0.419-0.938,0.938-0.938h28.125
		c0.518,0,0.938,0.42,0.938,0.938C35,30.829,34.58,31.25,34.063,31.25"/>
	<path d="M34.063,20.938H5.938C5.419,20.938,5,20.517,5,20c0-0.518,0.419-0.938,0.938-0.938h28.125C34.58,19.063,35,19.482,35,20
		C35,20.517,34.58,20.938,34.063,20.938"/>
</g>
</svg>
