<svg width="33" height="24" viewBox="0 0 33 24" fill="none" xmlns="http://www.w3.org/2000/svg">
<g clip-path="url(#clip0)">
<path d="M22.9839 7.33193C22.4708 7.0275 21.8039 7.0275 21.2395 7.33193L17.2377 9.66597L14.5185 11.1882L10.5167 13.5222C10.0036 13.8266 9.33669 13.8266 8.77231 13.5222L5.59137 11.6956C5.07833 11.3911 4.71921 10.833 4.71921 10.2241V6.62156C4.71921 6.0127 5.02703 5.45455 5.59137 5.15011L8.72101 3.37419C9.23404 3.06976 9.90103 3.06976 10.4654 3.37419L13.595 5.15011C14.1081 5.45455 14.4672 6.0127 14.4672 6.62156V8.9556L17.1864 7.38269V5.04861C17.1864 4.43974 16.8786 3.88159 16.3142 3.57716L10.5167 0.228324C10.0036 -0.076108 9.33669 -0.076108 8.77231 0.228324L2.8722 3.57716C2.30782 3.88159 2 4.43974 2 5.04861V11.797C2 12.4059 2.30782 12.9641 2.8722 13.2685L8.77231 16.6174C9.28539 16.9218 9.95233 16.9218 10.5167 16.6174L14.5185 14.334L17.2377 12.7611L21.2395 10.4778C21.7525 10.1734 22.4195 10.1734 22.9839 10.4778L26.1135 12.2537C26.6265 12.5582 26.9857 13.1163 26.9857 13.7252V17.3277C26.9857 17.9366 26.6779 18.4947 26.1135 18.7992L22.9839 20.6258C22.4708 20.9302 21.8039 20.9302 21.2395 20.6258L18.1099 18.8499C17.5968 18.5455 17.2377 17.9873 17.2377 17.3784V15.0444L14.5185 16.6174V18.9514C14.5185 19.5603 14.8263 20.1184 15.3907 20.4228L21.2908 23.7717C21.8039 24.0761 22.4708 24.0761 23.0352 23.7717L28.9353 20.4228C29.4484 20.1184 29.8075 19.5603 29.8075 18.9514V12.203C29.8075 11.5941 29.4997 11.036 28.9353 10.7315L22.9839 7.33193Z" fill="#DBC9F7" stroke="#8247E5" stroke-width="0.6"/>
</g>
<defs>
<clipPath id="clip0">
<rect width="33" height="24" fill="white"/>
</clipPath>
</defs>
</svg>
