<svg width="12" height="7" viewBox="0 0 12 7" fill="none" xmlns="http://www.w3.org/2000/svg">
<path d="M12 2.8L10.2857 2.8L10.2857 4.2L8.57143 4.2L8.57143 5.6L6.85714 5.6L6.85714 7L5.14286 7L5.14286 5.6L3.42857 5.6L3.42857 4.2L1.71429 4.2L1.71429 2.8L-1.83588e-07 2.8L-3.0598e-07 4.76837e-07L1.71429 4.01903e-07L1.71429 1.4L3.42857 1.4L3.42857 2.8L5.14286 2.8L5.14286 4.2L6.85714 4.2L6.85714 2.8L8.57143 2.8L8.57143 1.4L10.2857 1.4L10.2857 2.72343e-08L12 -4.76995e-08L12 2.8Z" fill="#F6F6F7"/>
</svg>
