<svg xmlns="http://www.w3.org/2000/svg" viewBox="0 0 807.86 256"><defs><style>.cls-1{fill:#1d1d3c;}.cls-2{fill:#fff;}.cls-3{fill:#a440f2;}.cls-4{fill:#38d6b2;}</style></defs><g id="Layer_2" data-name="Layer 2"><g id="Layer_1-2" data-name="Layer 1"><path class="cls-1" d="M0,0V128H64V256H192V128h30.48V256H807.86V0Z"/><polygon class="cls-2" points="332.26 72.98 332.26 146.18 405.17 146.18 405.17 182.86 259.03 182.86 259.03 36.57 405.17 36.57 405.17 72.98 332.26 72.98"/><rect class="cls-3" x="259.03" y="220.15" width="146.14" height="7.91"/><path class="cls-2" d="M441.73,36.62v146.5h55.46V146.5h36.25v36.62h55.1V36.25Zm91.71,74.2H497.19V74.57h36.25Z"/><rect class="cls-3" x="442.69" y="220.35" width="144.91" height="7.85"/><rect class="cls-3" x="624.79" y="220.35" width="144.91" height="7.85"/><path class="cls-2" d="M624.79,36.25V183.12h58.75V124.37h88.12V36.25ZM683.54,95V65.63h29.37V95Z"/><path class="cls-2" d="M39.87,36.25V65.63H98.62V183.12h58.75V65.63h58.75V36.25Z"/><rect class="cls-4" x="96" y="220.04" width="64" height="7.91"/></g></g></svg>