<svg fill="#fff" height="800" viewBox="0 0 460.775 460.775" width="800" xmlns="http://www.w3.org/2000/svg"><path d="m285.08 230.397 171.138-171.127c6.076-6.077 6.076-15.911 0-21.986l-32.707-32.719c-2.913-2.911-6.866-4.55-10.992-4.55-4.127 0-8.08 1.639-10.993 4.55l-171.138 171.14-171.138-171.14c-2.913-2.911-6.866-4.55-10.993-4.55-4.126 0-8.08 1.639-10.992 4.55l-32.707 32.719c-6.077 6.075-6.077 15.909 0 21.986l171.138 171.128-171.121 171.107c-6.074 6.077-6.074 15.911 0 21.986l32.709 32.719c2.911 2.911 6.865 4.55 10.992 4.55s8.08-1.639 10.994-4.55l171.117-171.12 171.118 171.12c2.913 2.911 6.866 4.55 10.993 4.55 4.128 0 8.081-1.639 10.992-4.55l32.709-32.719c6.074-6.075 6.074-15.909 0-21.986z"/></svg>