<?xml version="1.0" encoding="utf-8"?>
<svg id="master-artboard" viewBox="0 0 462.82568359375 461.8873596191406" version="1.1" xmlns="http://www.w3.org/2000/svg" x="0px" y="0px" style="enable-background:new 0 0 1400 980;" ><rect id="ee-background" x="0" y="0" width="462.82568359375" height="461.8873596191406" style="fill: white; fill-opacity: 0; pointer-events: none;"/>


<g transform="matrix(14.411766501034007, 0, 0, 14.411766501034007, 209.9999383244965, -7.473234404642426e-7)"><g transform="matrix(1, 0, 0, 1, -32.55740356445312, -17.955274639830133)"><path d="M18.25 18.25V49.75H49.75V18.25H18.25ZM20.75 20.75H47.25V47.25H20.75V20.75ZM29 25.25C26.9438 25.25 25.25 26.9438 25.25 29V30.25C25.25 32.3063 26.9438 34 29 34C31.0562 34 32.75 32.3063 32.75 30.25V29C32.75 26.9438 31.0562 25.25 29 25.25ZM38.4925 25.25L26.5 42.75H29.5075L41.5 25.25H38.4925ZM29 27.75C29.7075 27.75 30.25 28.2925 30.25 29V30.25C30.25 30.9575 29.7075 31.5 29 31.5C28.2925 31.5 27.75 30.9575 27.75 30.25V29C27.75 28.2925 28.2925 27.75 29 27.75ZM39 34C36.9438 34 35.25 35.6938 35.25 37.75V39C35.25 41.0563 36.9438 42.75 39 42.75C41.0562 42.75 42.75 41.0563 42.75 39V37.75C42.75 35.6938 41.0562 34 39 34ZM39 36.5C39.7075 36.5 40.25 37.0425 40.25 37.75V39C40.25 39.7075 39.7075 40.25 39 40.25C38.2925 40.25 37.75 39.7075 37.75 39V37.75C37.75 37.0425 38.2925 36.5 39 36.5Z" fill="#D3EAFF" transform="matrix(1, 0, 0, 1, 0, 1.7763568394002505e-15)"/><path d="M20.75 20.35H20.35V20.75V47.25V47.65H20.75H47.25H47.65V47.25V20.75V20.35H47.25H20.75ZM49.35 49.35H18.65V18.65H49.35V49.35ZM25.65 29C25.65 27.1647 27.1647 25.65 29 25.65C30.8353 25.65 32.35 27.1647 32.35 29V30.25C32.35 32.0853 30.8353 33.6 29 33.6C27.1647 33.6 25.65 32.0853 25.65 30.25V29ZM40.741 25.65L29.2967 42.35H27.259L38.7033 25.65H40.741ZM30.65 29C30.65 28.0716 29.9284 27.35 29 27.35C28.0716 27.35 27.35 28.0716 27.35 29V30.25C27.35 31.1784 28.0716 31.9 29 31.9C29.9284 31.9 30.65 31.1784 30.65 30.25V29ZM35.65 37.75C35.65 35.9147 37.1647 34.4 39 34.4C40.8353 34.4 42.35 35.9147 42.35 37.75V39C42.35 40.8353 40.8353 42.35 39 42.35C37.1647 42.35 35.65 40.8353 35.65 39V37.75ZM40.65 37.75C40.65 36.8216 39.9284 36.1 39 36.1C38.0716 36.1 37.35 36.8216 37.35 37.75V39C37.35 39.9284 38.0716 40.65 39 40.65C39.9284 40.65 40.65 39.9284 40.65 39V37.75Z" stroke="#0688FF" stroke-width="0.8" style="fill: rgb(211, 234, 255);" transform="matrix(1, 0, 0, 1, 0, 1.7763568394002505e-15)"/></g><path d="M -3.4060912132263184 27.70352554321289" style="fill: rgb(255, 255, 255); fill-opacity: 1; stroke: rgb(6, 136, 255); stroke-opacity: 1; stroke-width: 0.8; paint-order: stroke;"/><path d="M -13.375333786010742 8.926133155822754" style="fill: rgb(211, 234, 255); fill-opacity: 1; stroke: rgb(6, 136, 255); stroke-opacity: 1; stroke-width: 0.8; paint-order: stroke;"/></g></svg>
