<svg xmlns="http://www.w3.org/2000/svg" width="65" height="30" viewBox="-30 10 250 190" stroke="#fff" stroke-linecap="round" stroke-linejoin="round" fill="#fff" fill-rule="evenodd">
<path d="M78.24613 87.42588c-.74192-.91873-1.8676-1.42914-3.07003-1.42914H50.38552c-.20465 0-.38374-.07656-.53725-.20416-.12792-.1276-.20467-.28072-.20467-.45937v-16.6647c0-.17865.07675-.33177.20467-.45937.15351-.15312.3326-.22968.53725-.20416h26.19769c6.60056 0 12.30573 2.70514 17.11547 8.08991l6.3703 7.75815L87.66092 98.9355l-9.41479-11.50962zm45.79476-11.40755c4.78413-5.33373 10.51488-8.01335 17.1922-8.01335h26.12093c.17907-.02552.35816.05104.48608.15312.12792.1276.17909.30624.1535.51041v16.6647c0 .17865-.05116.33177-.1535.45937-.12792.15312-.30701.22968-.48608.20416h-24.79057c-1.17686-.02552-2.30254.51041-3.07004 1.42914l-18.26674 22.17707 18.34349 22.33021c.74192.84216 1.84202 1.35256 2.9677 1.32705h24.79058c.17909-.02552.38374.07656.48607.20416.10234.15312.17909.35728.15351.53592v16.66472c0 .17863-.05117.33176-.15351.45937-.12789.15311-.30698.22966-.48607.20415h-26.09535c-6.67732 0-12.3569-2.70514-17.11545-8.08991l-15.1967-18.50217-15.1967 18.50217c-4.78414 5.38477-10.51489 8.08991-17.1922 8.08991H50.38552c-.17906.02551-.38374-.07656-.48608-.20415-.12792-.15314-.17909-.3573-.1535-.53594v-16.66471c0-.17864.05117-.33176.1535-.45936.12793-.15312.30702-.22968.48608-.20416H75.1761c1.17685 0 2.30253-.53593 3.07003-1.42913l17.93415-21.84532 27.86061-33.96743z" fill-rule="nonzero" fill="#fff" stroke="none"/><circle cx="108" cy="108" fill="none" stroke-width="16" stroke="#fff" r="100"/></svg>