<svg xmlns="http://www.w3.org/2000/svg" xmlns:xlink="http://www.w3.org/1999/xlink" 
width="65" height="30" viewBox="0 10 105 50" stroke="#000" stroke-linecap="round" stroke-linejoin="round" fill="#fff" fill-rule="evenodd">
<g stroke="none"><use xlink:href="#B"/><use xlink:href="#C"/><use xlink:href="#D"/><use xlink:href="#E"/><use xlink:href="#F"/><path d="M9.56776 20.58076c-.04003.06204-.07405.12383-.07555.13759s-.06479.09056-.14008.17036-.12657.1556-.11432.16811-.02301.07055-.07829.12958c-.22563.23991-1.13442 1.61105-1.89211 2.85461-9.4588 15.52533-9.70119 35.14356-.62862 50.91255 1.73502 3.0157 3.57359 5.57636 5.92748 8.25535 2.98099 3.3927 7.52165 7.2377 10.95642 9.27802l.62111.376c1.50239.92235 3.51306 1.97353 5.537 2.89488 14.88497 6.77439 32.48755 5.5386 46.9-3.29264 6.73219-4.12518 13.03814-10.7017 16.95944-17.68673 9.34198-16.64105 8.62881-36.78188-1.85834-52.48407-.73669-1.10296-.73018-1.09396-.80472-1.14099-.03502-.02201-.10906-.12908-.16436-.23765s-.12431-.19738-.15283-.19738-.04153-.01676-.02876-.03752-18.18942-.03177-40.44922-.02502c-40.46072.01251-40.47223.01251-40.44046-.08756.04152-.13108.01626-.12683-.07379.01251m24.83831 6.61204c2.6353.43328 4.78656 1.55351 6.78347 3.53205.57909.57362 4.17071 4.87716 4.13568 4.95521-.02777.06179-6.66841 8.14779-6.69167 8.14829-.01376.00025-1.16193-1.3964-2.5515-3.10351-2.66681-3.27663-2.84917-3.48151-3.26967-3.67389-.48353-.22139-.50654-.22214-7.62071-.22214h-6.8245l-.12283-.12283-.12282-.12283v-4.63251-4.63251l.12458-.12458.12457-.12458 7.74254.01651 8.29286.10732m47.42105-.01651l.13183.10357v4.64276c0 4.621-.0005 4.64327-.10381 4.77435l-.10356.13184h-6.84802c-7.32329 0-7.15694-.00551-7.65724.25792-.42524.22414-.50429.3162-5.57452 6.49646l-4.83458 5.88257c-.0933.10307-.06329.14109 4.85835 6.154 5.07222 6.19627 5.22731 6.37413 5.75487 6.58877l.27517.11183 7.02911.02576 7.04413.03752c.15184.11833.1601.36449.15985 4.82589-.00025 4.60473-.00801 4.78936-.20237 4.89342-.18161.09732-15.31823.03653-15.93184-.06378-1.81381-.29645-3.31044-.86182-4.70276-1.77666-1.69774-1.11547-1.94389-1.38064-6.85402-7.38529l-4.17744-5.07805c-.01376 0-1.89361 2.28548-4.17745 5.07879-4.34155 5.30995-4.7638 5.79052-5.84318 6.64782-1.41958 1.12723-3.16911 1.98079-4.76304 2.32401-1.32203.28468-.86326.27018-9.19339.28868l-7.69251.01677-.12458-.12459-.12457-.12457v-4.64852c0-4.62701.0005-4.64902.10382-4.78035l.10356-.13184h6.86477c7.48388 0 7.14968.01226 7.68851-.28118.43374-.23615-1.16894 1.7006 18.73248-22.63369l7.1777-8.65787c2.16527-2.16216 4.67599-3.38045 7.50741-3.64262.2614-.02401 3.82099-.04703 7.91038-.05078l7.43511-.00676.13183.10382M47.61381.03817c-3.63963.2219-6.4843.63817-9.53935 1.39591-2.50096.6204-5.61879 1.64807-7.41585 2.44459l-.98031.43003-3.87728 1.92499-2.67607 1.6053-.45877.29619-.76745.51033c-.02751.02201-.10631.06905-.1751.10482s-.21487.14234-.32469.23765-.21738.17287-.23914.17287-.15709.0908-.30068.20187l-.91153.68045-.5128.40751c-.03452.04403-.06254.06554-.06254.04753s-.09305.05604-.20687.16436-.22638.18487-.25015.17011-.04327-.00275-.04327.02627c0 .03727 9.27394.05203 31.20579.04978l31.10024-.04578c-.05804-.02352-.11982-.07981-.13734-.12508s-.05127-.0703-.07529-.05529-.08405-.01751-.13307-.07204-.11982-.09882-.15685-.09882-.06728-.03377-.06728-.07505-.01927-.07505-.04278-.07505-.10782-.05703-.18761-.12658c-.20762-.18112-.26265-.22364-.28967-.22364-.01326 0-.09806-.06755-.18836-.1501s-.19136-.1501-.22414-.1501-.06728-.01926-.07629-.04278c-.02426-.06204-.91979-.70771-.98157-.70771-.02902 0-.06004-.01701-.06904-.03752s-.11807-.10507-.2419-.18762-.2649-.18587-.31343-.22965-.15009-.11057-.22514-.1481-.30917-.18787-.51955-.33321-.39998-.26468-.42074-.26468-.11132-.05628-.20162-.12508-.17685-.12508-.19287-.12508-.15809-.08455-.31593-.18787c-.38273-.25041-.44126-.28593-.76244-.4653l-.47529-.27393c-.11006-.06604-.30142-.17586-.42524-.24416l-.5003-.27668C68.25817 2.90378 61.18202.7659 54.49284.18201c-1.80781-.15785-5.41292-.23315-6.87903-.14384M14.84135 14.42676l-.14684.16261.1626-.14685c.08955-.0808.16259-.1541.16259-.1626 0-.03878-.04128-.00476-.17835.14684m-.62487.62541l-.17235.18762.18761-.17236c.10331-.09481.18761-.17937.18761-.18762 0-.03828-.04228-.00226-.20287.17236"/><path d="M18.81593 10.91198c-.00326.01376-.0025.04353.00125.06629s-.01326.02852-.03827.01301-.13233.06179-.2389.17136-.21312.19963-.23713.19963c-.04778 0-.65364.49908-1.33203 1.09671-1.44786 1.27558-3.38449 3.21409-4.50314 4.50693l-.35071.40026c-.03077.02952-.49029.57912-.59935.71671l-.13483.15811c-.04778.05028-.40199.49557-.95606 1.20153l-.1621.22339-.23538.2997c-.06204.06954-.11257.1546-.11257.18937s-.02001.06304-.04428.06304c-.05428 0-.17885.18537-.22713.33772l-.03552.11257 40.47073.01251 40.44672-.05003c-.01327-.03427-.04779-.06254-.07704-.06254s-.0383-.01476-.02028-.03252-.0065-.06129-.05428-.09607-.0878-.09356-.08905-.13008-.03103-.06029-.0663-.05278-.05252-.00476-.03852-.02752-.04627-.13334-.13382-.24591-.1931-.25467-.23439-.31621-.10631-.14459-.14483-.18437-.12158-.14909-.1851-.24265-.24265-.32271-.398-.50933l-.33996-.41452-.66437-.79852c-1.68099-2.0008-4.12692-4.39361-6.34322-6.20553l-.40449-.33772c-.06754-.06229-62.5029-.12483-62.51765-.06254"/><use xlink:href="#B"/><use xlink:href="#C"/><use xlink:href="#D"/><use xlink:href="#E"/><use xlink:href="#F"/></g><defs ><path id="B" d="M18.14554 31.95064l.0135 2.26022V29.6579c-.0075-1.24306-.0135-.21139-.0135 2.29274m48.40438 29.66c0 .00851.07329.0818.16259.1626l.1626.14685-.14683-.1626c-.13709-.1516-.17836-.18562-.17836-.14685m-44.73873.77225h6.82901c1.8781-.00725.34144-.01326-3.41451-.01326l-3.4145.01326m49.62909 0h6.82901c1.8781-.00725.34145-.01326-3.4145-.01326l-3.41451.01326m-12.49482 6.09146l.3472.32521c.01376 0-.11982-.14635-.29717-.32521l-.34721-.32522c-.01375 0 .11982.14635.29718.32522m-17.76216.0125l-.27341.28769.28766-.27342c.26717-.25418.31069-.30195.27341-.30195-.00775 0-.13733.12958-.28766.28768"/><path id="C" d="M22.03631 27.11h7.27927c2.00168-.00726.36397-.01326-3.63963-.01326l-3.63964.01326m48.74958 0h7.25426c2.00393-.00726.37922-.01326-3.61062-.01326l-3.64364.01326m11.14704 4.81562l.01351 2.28899v-4.57797c-.00751-1.25882-.01351-.2289-.01351 2.28898m-63.73737 35.2729l.01351 2.28899v-4.57797c-.0075-1.25882-.01351-.2289-.01351 2.28898m3.84075 4.94071h7.17921c1.97416-.00725.35896-.01326-3.5896-.01326l-3.58961.01326m48.87867 0h7.1792c1.97441-.00725.35896-.01326-3.58961-.01326l-3.58959.01326"/><path id="D" d="M32.84265 72.13623c.04803.0125.12707.0125.1751 0s.00875-.02302-.08755-.02302-.13558.0105-.08755.02302"/><path id="E" d="M58.81813 30.78738l-.19787.21264.21263-.19788c.19761-.18387.23563-.2274.19786-.2274-.00825 0-.10406.09581-.21262.21264"/><path id="F" d="M81.93293 67.22353l.0135 2.26021v-4.55295c-.0075-1.24306-.0135-.21139-.0135 2.29274"/></defs></svg>