<svg xmlns="http://www.w3.org/2000/svg" 
width="40" height="45" viewBox="7 0 40 90" stroke="none" stroke-linecap="round" stroke-linejoin="round" fill="#fff" fill-rule="evenodd">
<g fill-rule="nonzero">
<path d="M20.91649 14.53322c-.66548-.09887-.69717-.13182-.38027-.16478.60209-.09886 1.99644.03296 2.9788.26364 2.28165.56024 4.34147 2.01027 6.52806 4.54781l.5704.69206.82392-.13182c3.51755-.59319 7.13014-.13182 10.14065 1.3182.82394.39546 2.1232 1.18639 2.28165 1.38412.06338.06591.15844.49433.22183.92274.22183 1.54889.12675 2.70232-.34859 3.59211-.25352.49433-.25352.62615-.09507 1.05457.12676.32955.50704.56023.85562.56023.76055 0 1.55279-1.25229 1.93306-2.99891l.15845-.69206.2852.32955c1.61617 1.87844 2.88375 4.4819 3.07389 6.32738l.06338.49433-.28521-.42841c-.47535-.75797-.919-1.2523-1.5211-1.68072-1.07745-.75796-2.21826-.98865-5.22877-1.15343-2.7253-.16477-4.27808-.39546-5.79917-.92274-2.59855-.88979-3.92951-2.04322-7.0034-6.29443-1.36264-1.87844-2.21826-2.90005-3.07388-3.75688-1.86967-1.87845-3.73936-2.8671-6.17945-3.26256zm23.60869 4.1853c.06337-1.2523.22182-2.07617.57042-2.83414.12674-.2966.25351-.56024.28519-.56024s-.03168.23069-.12675.49433c-.25352.72501-.28521 1.74662-.12676 2.90005.22183 1.48298.31689 1.68071 1.83799 3.29551l1.83799 2.10913.53872.72501-.53872-.52728c-.66548-.6591-2.18657-1.9114-2.53516-2.07617-.22182-.13182-.25352-.13182-.41197.03295-.12674.13182-.15844.32955-.15844 1.28525-.03169 1.48298-.22182 2.40573-.69717 3.36143-.25352.49432-.2852.39546-.06337-.16478.15845-.42842.19013-.62615.19013-2.04322 0-2.86709-.3169-3.55915-2.24995-4.71258-.47534-.2966-1.29928-.72501-1.77462-.9557l-.85561-.42842c.06337-.06591 1.93306.49433 2.66191.82388 1.10914.46137 1.29927.49433 1.42603.46137.09507-.09886.15845-.3625.19014-1.18638z"/><path d="M22.21577 23.62883c-1.33097-1.9114-2.18658-4.87736-1.99645-7.08535l.06338-.69206.3169.06591c.57042.09887 1.55278.49433 2.02813.79092 1.26758.79093 1.83798 1.87845 2.37671 4.58077l.47534 2.01026c.15845.49433.76056 1.64776 1.26758 2.37277.34859.52728.12677.79092-.66547.72501-1.20421-.13182-2.82037-1.28525-3.86612-2.76823zm20.69325 14.33548c-6.27452-2.63641-8.49279-4.91031-8.49279-8.76606 0-.56024.03168-1.02161.03168-1.02161.0317 0 .25352.19773.53873.42842 1.26758 1.05456 2.69361 1.51593 6.6548 2.10912 2.31333.36251 3.64429.62615 4.84849 1.05457 3.83444 1.31821 6.21115 4.02052 6.78156 7.67854.15845 1.05457.06338 3.06483-.19014 4.1194-.22182.82387-.85561 2.33981-1.01406 2.37276-.0317 0-.09507-.16477-.09507-.42841-.06337-1.38412-.72887-2.70232-1.838-3.72393-1.33095-1.18639-3.04218-2.07617-7.2252-3.8228zm-4.43654 1.08752c-.06338-.49433-.22183-1.12047-.31689-1.38411l-.15845-.49433.28521.36251c.41196.49432.72886 1.08751 1.01406 1.91139.22182.62615.22182.82388.22182 1.84549 0 .98866-.03168 1.21934-.22182 1.77958-.3169.88978-.69716 1.51593-1.33095 2.20799-1.14084 1.21934-2.63024 1.87845-4.75343 2.17504l-2.40842.19773c-2.37671.13182-3.96119.39546-5.38721.92274-.19013.06592-.38027.13183-.41196.09887-.06339-.06591.919-.6591 1.71124-1.05456 1.10913-.56024 2.24995-.85684 4.75343-1.31821l2.82035-.59319c3.13727-1.02161 4.69005-3.55916 4.18302-6.65694zm2.88375 5.30577c-.82393-1.87844-1.01406-3.65802-.57042-5.33873.06338-.16477.12677-.32955.19015-.32955s.25351.09886.44364.23068c.38028.26365 1.17252.72502 3.20065 1.87845 2.56685 1.45002 4.02457 2.5705 5.03863 3.85575.88731 1.12047 1.42602 2.40572 1.67955 3.98757.15844.88979.06337 3.03187-.15845 3.92166-.69717 2.80119-2.28164 5.04214-4.59498 6.32738-.34859.19774-.63379.32956-.66548.32956s.09506-.32956.28521-.72502c.76054-1.68071.85561-3.29551.28519-5.10804-.34857-1.12047-1.07743-2.47164-2.53516-4.74554l-2.59853-4.28417zM17.74754 54.44188c2.34502-2.04322 5.22877-3.49324 7.89069-3.95462 1.14082-.19772 3.04219-.13181 4.08795.16478 1.67954.46137 3.20064 1.45003 3.99288 2.66937.76055 1.18638 1.10913 2.20799 1.45772 4.48189l.31689 2.01027c.25352 1.18638.76055 2.10912 1.39434 2.60345.98237.75797 2.69361.79093 4.37315.13182.28521-.09886.53872-.19773.53872-.16477.06338.06591-.79224.6591-1.36264.95569-.79224.42842-1.42603.56024-2.28165.56024-1.5211 0-2.82037-.82388-3.86613-2.47163-.22182-.32956-.66547-1.28525-1.04575-2.17504-1.10913-2.66937-1.67954-3.46029-2.97881-4.35008-1.14082-.75796-2.59853-.92274-3.70767-.3625-1.45773.72501-1.83799 2.66936-.82394 3.85575.41197.49432 1.17252.88978 1.80631.98865 1.17252.16477 2.18658-.79092 2.18658-2.01026 0-.79093-.28521-1.2523-1.04576-1.61481-1.01405-.46137-2.12319.06591-2.09151 1.08752 0 .42842.19014.69206.60211.88979.25352.13183.25352.13183.06338.09887-.919-.19773-1.14083-1.38412-.41197-2.14208.88731-.92275 2.75699-.52729 3.39078.75796.25351.52728.28521 1.58185.06338 2.24095-.53872 1.45003-2.05982 2.208-3.61261 1.77958-1.04575-.29659-1.4894-.59319-2.75698-1.94435-2.21827-2.37277-3.07388-2.83414-6.24284-3.32847l-.6021-.09887.66548-.6591z"/></g><path d="M1.07885 1.41707l19.33061 24.61748c.47534.65911.28521 1.28525-.50704 1.74663-.44365.26364-1.36264.52728-1.8063.52728-.50703 0-1.10913-.26364-1.5211-.69206-.2852-.2966-1.52109-2.17504-4.30976-6.68989l-3.96119-6.36034c-.12677-.06591-.12677-.06591 3.73936 7.11831l3.23233 6.32738c0 .42842-.12677.6591-.63379 1.2523-.85562.98865-1.2359 2.10912-1.5211 4.44894-.3169 2.60345-1.17251 4.44894-3.61261 7.57968-1.42602 1.84548-1.64785 2.17504-1.99643 2.933-.44366.92275-.57042 1.45003-.63379 2.63642-.06338 1.25229.06337 2.04321.41196 3.2296.31689 1.05456.66548 1.74662 1.52109 3.09778.72887 1.18639 1.17252 2.07617 1.17252 2.40572 0 .26365.06338.26365 1.20419 0 2.7253-.6591 4.97526-1.77957 6.21115-3.16368.76055-.85684.95069-1.31821.95069-2.5046 0-.75797-.03169-.92274-.22182-1.38411-.3169-.72501-.91901-1.31821-2.21827-2.24095-1.71124-1.21934-2.4401-2.20799-2.63024-3.5262-.15844-1.12047.0317-1.87844.98238-3.95461.98238-2.14209 1.23589-3.03188 1.39434-5.20692.09507-1.38411.25352-1.94435.63379-2.37276.41197-.46138.76055-.62615 1.74292-.75797 1.61617-.23069 2.66193-.65911 3.48585-1.48298.72885-.69206 1.04575-1.38412 1.07745-2.40573l.03168-.75797-.41196-.46137C20.72635 23.59587.09647 0 .00141 0-.03028 0 .47675.62615 1.07885 1.41707zm9.72869 46.8622c.34858-.62615.15844-1.41707-.41197-1.81254-.53872-.3625-1.36265-.19773-1.36265.2966 0 .13182.06338.26364.25351.32955.28522.16478.3169.32955.09508.69206s-.22183.69206.06337.92274c.44366.36251 1.04576.16478 1.36266-.42841zm12.83425-17.3344c-.76056.23068-1.48941 1.08752-1.71124 1.94435-.12675.52728-.06338 1.48298.15845 1.77958.34859.46137.66549.59319 1.55279.59319 1.74292 0 3.23233-.79092 3.39078-1.74662.15845-.79093-.50704-1.87845-1.42603-2.37277-.47534-.26364-1.45773-.36251-1.96475-.19773zm2.02813 1.64775c.25352-.39546.15844-.82387-.3169-1.12047-.85561-.56024-2.15489-.09887-2.15489.75797 0 .42841.66549.88979 1.29928.88979.41196 0 .98237-.26365 1.17251-.52729z"/></svg>
