<svg width="36" height="36" viewBox="0 0 36 36" fill="none" xmlns="http://www.w3.org/2000/svg">
<mask id="path-1-inside-1" fill="white">
<path d="M22.2188 29.6016H13.7812C13.1987 29.6016 12.7266 30.0737 12.7266 30.6562C12.7266 31.2388 13.1987 31.7109 13.7812 31.7109H22.2188C22.8013 31.7109 23.2734 31.2388 23.2734 30.6562C23.2734 30.0737 22.8013 29.6016 22.2188 29.6016Z"/>
<path d="M33.8906 25.5641V11.6719C33.8906 9.92725 32.4712 8.50781 30.7266 8.50781H27.4922V6.39844H32.8359C33.4185 6.39844 33.8906 5.9263 33.8906 5.34375V1.05469C33.8906 0.472137 33.4185 0 32.8359 0H20.1094C19.5268 0 19.0547 0.472137 19.0547 1.05469V5.34375C19.0547 5.9263 19.5268 6.39844 20.1094 6.39844H25.3828V8.50781H16.9453V3.16406C16.9453 2.58151 16.4732 2.10938 15.8906 2.10938H9.49219C8.90964 2.10938 8.4375 2.58151 8.4375 3.16406V8.50781H5.27344C3.52881 8.50781 2.10938 9.92725 2.10938 11.6719V25.5641C0.881653 25.9997 0 27.1719 0 28.5469V34.9453C0 35.5279 0.472137 36 1.05469 36H34.9453C35.5279 36 36 35.5279 36 34.9453V28.5469C36 27.1719 35.1183 25.9997 33.8906 25.5641ZM21.1641 2.10938H31.7812V4.28906H21.1641V2.10938ZM10.5469 4.21875H14.8359V12.7266H10.5469V4.21875ZM5.27344 10.6172H8.4375V12.7266H7.38281C6.80026 12.7266 6.32812 13.1987 6.32812 13.7812C6.32812 14.3638 6.80026 14.8359 7.38281 14.8359H18C18.5826 14.8359 19.0547 14.3638 19.0547 13.7812C19.0547 13.1987 18.5826 12.7266 18 12.7266H16.9453V10.6172H30.7266C31.308 10.6172 31.7812 11.0904 31.7812 11.6719V25.3828H4.21875V11.6719C4.21875 11.0904 4.69199 10.6172 5.27344 10.6172ZM33.8906 33.8906H2.10938V28.5469C2.10938 27.9654 2.58234 27.4922 3.16379 27.4922H32.8359C33.4174 27.4922 33.8906 27.9654 33.8906 28.5469V33.8906Z"/>
<path d="M20.1094 23.2734H28.6172C29.1997 23.2734 29.6719 22.8013 29.6719 22.2188V18C29.6719 17.4174 29.1997 16.9453 28.6172 16.9453H20.1094C19.5268 16.9453 19.0547 17.4174 19.0547 18V22.2188C19.0547 22.8013 19.5268 23.2734 20.1094 23.2734ZM21.1641 19.0547H27.5625V21.1641H21.1641V19.0547Z"/>
<path d="M8.43561 18C8.43561 18.5826 7.9632 19.0547 7.38092 19.0547C6.79837 19.0547 6.32623 18.5826 6.32623 18C6.32623 17.4174 6.79837 16.9453 7.38092 16.9453C7.9632 16.9453 8.43561 17.4174 8.43561 18Z"/>
<path d="M12.7247 18C12.7247 18.5826 12.2523 19.0547 11.67 19.0547C11.0874 19.0547 10.6153 18.5826 10.6153 18C10.6153 17.4174 11.0874 16.9453 11.67 16.9453C12.2523 16.9453 12.7247 17.4174 12.7247 18Z"/>
<path d="M16.9434 18C16.9434 18.5826 16.471 19.0547 15.8887 19.0547C15.3062 19.0547 14.834 18.5826 14.834 18C14.834 17.4174 15.3062 16.9453 15.8887 16.9453C16.471 16.9453 16.9434 17.4174 16.9434 18Z"/>
<path d="M25.3809 13.7812C25.3809 14.3638 24.9085 14.8359 24.3262 14.8359C23.7437 14.8359 23.2715 14.3638 23.2715 13.7812C23.2715 13.1987 23.7437 12.7266 24.3262 12.7266C24.9085 12.7266 25.3809 13.1987 25.3809 13.7812Z"/>
<path d="M29.67 13.7812C29.67 14.3638 29.1976 14.8359 28.6153 14.8359C28.0327 14.8359 27.5606 14.3638 27.5606 13.7812C27.5606 13.1987 28.0327 12.7266 28.6153 12.7266C29.1976 12.7266 29.67 13.1987 29.67 13.7812Z"/>
<path d="M8.43561 22.2188C8.43561 22.8013 7.9632 23.2734 7.38092 23.2734C6.79837 23.2734 6.32623 22.8013 6.32623 22.2188C6.32623 21.6362 6.79837 21.1641 7.38092 21.1641C7.9632 21.1641 8.43561 21.6362 8.43561 22.2188Z"/>
<path d="M12.7247 22.2188C12.7247 22.8013 12.2523 23.2734 11.67 23.2734C11.0874 23.2734 10.6153 22.8013 10.6153 22.2188C10.6153 21.6362 11.0874 21.1641 11.67 21.1641C12.2523 21.1641 12.7247 21.6362 12.7247 22.2188Z"/>
<path d="M16.9434 22.2188C16.9434 22.8013 16.471 23.2734 15.8887 23.2734C15.3062 23.2734 14.834 22.8013 14.834 22.2188C14.834 21.6362 15.3062 21.1641 15.8887 21.1641C16.471 21.1641 16.9434 21.6362 16.9434 22.2188Z"/>
<path d="M22.2188 29.6016H13.7812C13.1987 29.6016 12.7266 30.0737 12.7266 30.6562C12.7266 31.2388 13.1987 31.7109 13.7812 31.7109H22.2188C22.8013 31.7109 23.2734 31.2388 23.2734 30.6562C23.2734 30.0737 22.8013 29.6016 22.2188 29.6016Z"/>
<path d="M33.8906 25.5641V11.6719C33.8906 9.92725 32.4712 8.50781 30.7266 8.50781H27.4922V6.39844H32.8359C33.4185 6.39844 33.8906 5.9263 33.8906 5.34375V1.05469C33.8906 0.472137 33.4185 0 32.8359 0H20.1094C19.5268 0 19.0547 0.472137 19.0547 1.05469V5.34375C19.0547 5.9263 19.5268 6.39844 20.1094 6.39844H25.3828V8.50781H16.9453V3.16406C16.9453 2.58151 16.4732 2.10938 15.8906 2.10938H9.49219C8.90964 2.10938 8.4375 2.58151 8.4375 3.16406V8.50781H5.27344C3.52881 8.50781 2.10938 9.92725 2.10938 11.6719V25.5641C0.881653 25.9997 0 27.1719 0 28.5469V34.9453C0 35.5279 0.472137 36 1.05469 36H34.9453C35.5279 36 36 35.5279 36 34.9453V28.5469C36 27.1719 35.1183 25.9997 33.8906 25.5641ZM21.1641 2.10938H31.7812V4.28906H21.1641V2.10938ZM10.5469 4.21875H14.8359V12.7266H10.5469V4.21875ZM5.27344 10.6172H8.4375V12.7266H7.38281C6.80026 12.7266 6.32812 13.1987 6.32812 13.7812C6.32812 14.3638 6.80026 14.8359 7.38281 14.8359H18C18.5826 14.8359 19.0547 14.3638 19.0547 13.7812C19.0547 13.1987 18.5826 12.7266 18 12.7266H16.9453V10.6172H30.7266C31.308 10.6172 31.7812 11.0904 31.7812 11.6719V25.3828H4.21875V11.6719C4.21875 11.0904 4.69199 10.6172 5.27344 10.6172ZM33.8906 33.8906H2.10938V28.5469C2.10938 27.9654 2.58234 27.4922 3.16379 27.4922H32.8359C33.4174 27.4922 33.8906 27.9654 33.8906 28.5469V33.8906Z"/>
<path d="M20.1094 23.2734H28.6172C29.1997 23.2734 29.6719 22.8013 29.6719 22.2188V18C29.6719 17.4174 29.1997 16.9453 28.6172 16.9453H20.1094C19.5268 16.9453 19.0547 17.4174 19.0547 18V22.2188C19.0547 22.8013 19.5268 23.2734 20.1094 23.2734ZM21.1641 19.0547H27.5625V21.1641H21.1641V19.0547Z"/>
<path d="M8.43561 18C8.43561 18.5826 7.9632 19.0547 7.38092 19.0547C6.79837 19.0547 6.32623 18.5826 6.32623 18C6.32623 17.4174 6.79837 16.9453 7.38092 16.9453C7.9632 16.9453 8.43561 17.4174 8.43561 18Z"/>
<path d="M12.7247 18C12.7247 18.5826 12.2523 19.0547 11.67 19.0547C11.0874 19.0547 10.6153 18.5826 10.6153 18C10.6153 17.4174 11.0874 16.9453 11.67 16.9453C12.2523 16.9453 12.7247 17.4174 12.7247 18Z"/>
<path d="M16.9434 18C16.9434 18.5826 16.471 19.0547 15.8887 19.0547C15.3062 19.0547 14.834 18.5826 14.834 18C14.834 17.4174 15.3062 16.9453 15.8887 16.9453C16.471 16.9453 16.9434 17.4174 16.9434 18Z"/>
<path d="M25.3809 13.7812C25.3809 14.3638 24.9085 14.8359 24.3262 14.8359C23.7437 14.8359 23.2715 14.3638 23.2715 13.7812C23.2715 13.1987 23.7437 12.7266 24.3262 12.7266C24.9085 12.7266 25.3809 13.1987 25.3809 13.7812Z"/>
<path d="M29.67 13.7812C29.67 14.3638 29.1976 14.8359 28.6153 14.8359C28.0327 14.8359 27.5606 14.3638 27.5606 13.7812C27.5606 13.1987 28.0327 12.7266 28.6153 12.7266C29.1976 12.7266 29.67 13.1987 29.67 13.7812Z"/>
<path d="M8.43561 22.2188C8.43561 22.8013 7.9632 23.2734 7.38092 23.2734C6.79837 23.2734 6.32623 22.8013 6.32623 22.2188C6.32623 21.6362 6.79837 21.1641 7.38092 21.1641C7.9632 21.1641 8.43561 21.6362 8.43561 22.2188Z"/>
<path d="M12.7247 22.2188C12.7247 22.8013 12.2523 23.2734 11.67 23.2734C11.0874 23.2734 10.6153 22.8013 10.6153 22.2188C10.6153 21.6362 11.0874 21.1641 11.67 21.1641C12.2523 21.1641 12.7247 21.6362 12.7247 22.2188Z"/>
<path d="M16.9434 22.2188C16.9434 22.8013 16.471 23.2734 15.8887 23.2734C15.3062 23.2734 14.834 22.8013 14.834 22.2188C14.834 21.6362 15.3062 21.1641 15.8887 21.1641C16.471 21.1641 16.9434 21.6362 16.9434 22.2188Z"/>
<path d="M22.2188 29.6016H13.7812C13.1987 29.6016 12.7266 30.0737 12.7266 30.6562C12.7266 31.2388 13.1987 31.7109 13.7812 31.7109H22.2188C22.8013 31.7109 23.2734 31.2388 23.2734 30.6562C23.2734 30.0737 22.8013 29.6016 22.2188 29.6016Z"/>
<path d="M33.8906 25.5641V11.6719C33.8906 9.92725 32.4712 8.50781 30.7266 8.50781H27.4922V6.39844H32.8359C33.4185 6.39844 33.8906 5.9263 33.8906 5.34375V1.05469C33.8906 0.472137 33.4185 0 32.8359 0H20.1094C19.5268 0 19.0547 0.472137 19.0547 1.05469V5.34375C19.0547 5.9263 19.5268 6.39844 20.1094 6.39844H25.3828V8.50781H16.9453V3.16406C16.9453 2.58151 16.4732 2.10938 15.8906 2.10938H9.49219C8.90964 2.10938 8.4375 2.58151 8.4375 3.16406V8.50781H5.27344C3.52881 8.50781 2.10938 9.92725 2.10938 11.6719V25.5641C0.881653 25.9997 0 27.1719 0 28.5469V34.9453C0 35.5279 0.472137 36 1.05469 36H34.9453C35.5279 36 36 35.5279 36 34.9453V28.5469C36 27.1719 35.1183 25.9997 33.8906 25.5641ZM21.1641 2.10938H31.7812V4.28906H21.1641V2.10938ZM10.5469 4.21875H14.8359V12.7266H10.5469V4.21875ZM5.27344 10.6172H8.4375V12.7266H7.38281C6.80026 12.7266 6.32812 13.1987 6.32812 13.7812C6.32812 14.3638 6.80026 14.8359 7.38281 14.8359H18C18.5826 14.8359 19.0547 14.3638 19.0547 13.7812C19.0547 13.1987 18.5826 12.7266 18 12.7266H16.9453V10.6172H30.7266C31.308 10.6172 31.7812 11.0904 31.7812 11.6719V25.3828H4.21875V11.6719C4.21875 11.0904 4.69199 10.6172 5.27344 10.6172ZM33.8906 33.8906H2.10938V28.5469C2.10938 27.9654 2.58234 27.4922 3.16379 27.4922H32.8359C33.4174 27.4922 33.8906 27.9654 33.8906 28.5469V33.8906Z"/>
<path d="M20.1094 23.2734H28.6172C29.1997 23.2734 29.6719 22.8013 29.6719 22.2188V18C29.6719 17.4174 29.1997 16.9453 28.6172 16.9453H20.1094C19.5268 16.9453 19.0547 17.4174 19.0547 18V22.2188C19.0547 22.8013 19.5268 23.2734 20.1094 23.2734ZM21.1641 19.0547H27.5625V21.1641H21.1641V19.0547Z"/>
<path d="M8.43561 18C8.43561 18.5826 7.9632 19.0547 7.38092 19.0547C6.79837 19.0547 6.32623 18.5826 6.32623 18C6.32623 17.4174 6.79837 16.9453 7.38092 16.9453C7.9632 16.9453 8.43561 17.4174 8.43561 18Z"/>
<path d="M12.7247 18C12.7247 18.5826 12.2523 19.0547 11.67 19.0547C11.0874 19.0547 10.6153 18.5826 10.6153 18C10.6153 17.4174 11.0874 16.9453 11.67 16.9453C12.2523 16.9453 12.7247 17.4174 12.7247 18Z"/>
<path d="M16.9434 18C16.9434 18.5826 16.471 19.0547 15.8887 19.0547C15.3062 19.0547 14.834 18.5826 14.834 18C14.834 17.4174 15.3062 16.9453 15.8887 16.9453C16.471 16.9453 16.9434 17.4174 16.9434 18Z"/>
<path d="M25.3809 13.7812C25.3809 14.3638 24.9085 14.8359 24.3262 14.8359C23.7437 14.8359 23.2715 14.3638 23.2715 13.7812C23.2715 13.1987 23.7437 12.7266 24.3262 12.7266C24.9085 12.7266 25.3809 13.1987 25.3809 13.7812Z"/>
<path d="M29.67 13.7812C29.67 14.3638 29.1976 14.8359 28.6153 14.8359C28.0327 14.8359 27.5606 14.3638 27.5606 13.7812C27.5606 13.1987 28.0327 12.7266 28.6153 12.7266C29.1976 12.7266 29.67 13.1987 29.67 13.7812Z"/>
<path d="M8.43561 22.2188C8.43561 22.8013 7.9632 23.2734 7.38092 23.2734C6.79837 23.2734 6.32623 22.8013 6.32623 22.2188C6.32623 21.6362 6.79837 21.1641 7.38092 21.1641C7.9632 21.1641 8.43561 21.6362 8.43561 22.2188Z"/>
<path d="M12.7247 22.2188C12.7247 22.8013 12.2523 23.2734 11.67 23.2734C11.0874 23.2734 10.6153 22.8013 10.6153 22.2188C10.6153 21.6362 11.0874 21.1641 11.67 21.1641C12.2523 21.1641 12.7247 21.6362 12.7247 22.2188Z"/>
<path d="M16.9434 22.2188C16.9434 22.8013 16.471 23.2734 15.8887 23.2734C15.3062 23.2734 14.834 22.8013 14.834 22.2188C14.834 21.6362 15.3062 21.1641 15.8887 21.1641C16.471 21.1641 16.9434 21.6362 16.9434 22.2188Z"/>
</mask>
<path d="M22.2188 29.6016H13.7812C13.1987 29.6016 12.7266 30.0737 12.7266 30.6562C12.7266 31.2388 13.1987 31.7109 13.7812 31.7109H22.2188C22.8013 31.7109 23.2734 31.2388 23.2734 30.6562C23.2734 30.0737 22.8013 29.6016 22.2188 29.6016Z" fill="#A2D2FE"/>
<path d="M33.8906 25.5641V11.6719C33.8906 9.92725 32.4712 8.50781 30.7266 8.50781H27.4922V6.39844H32.8359C33.4185 6.39844 33.8906 5.9263 33.8906 5.34375V1.05469C33.8906 0.472137 33.4185 0 32.8359 0H20.1094C19.5268 0 19.0547 0.472137 19.0547 1.05469V5.34375C19.0547 5.9263 19.5268 6.39844 20.1094 6.39844H25.3828V8.50781H16.9453V3.16406C16.9453 2.58151 16.4732 2.10938 15.8906 2.10938H9.49219C8.90964 2.10938 8.4375 2.58151 8.4375 3.16406V8.50781H5.27344C3.52881 8.50781 2.10938 9.92725 2.10938 11.6719V25.5641C0.881653 25.9997 0 27.1719 0 28.5469V34.9453C0 35.5279 0.472137 36 1.05469 36H34.9453C35.5279 36 36 35.5279 36 34.9453V28.5469C36 27.1719 35.1183 25.9997 33.8906 25.5641ZM21.1641 2.10938H31.7812V4.28906H21.1641V2.10938ZM10.5469 4.21875H14.8359V12.7266H10.5469V4.21875ZM5.27344 10.6172H8.4375V12.7266H7.38281C6.80026 12.7266 6.32812 13.1987 6.32812 13.7812C6.32812 14.3638 6.80026 14.8359 7.38281 14.8359H18C18.5826 14.8359 19.0547 14.3638 19.0547 13.7812C19.0547 13.1987 18.5826 12.7266 18 12.7266H16.9453V10.6172H30.7266C31.308 10.6172 31.7812 11.0904 31.7812 11.6719V25.3828H4.21875V11.6719C4.21875 11.0904 4.69199 10.6172 5.27344 10.6172ZM33.8906 33.8906H2.10938V28.5469C2.10938 27.9654 2.58234 27.4922 3.16379 27.4922H32.8359C33.4174 27.4922 33.8906 27.9654 33.8906 28.5469V33.8906Z" fill="#A2D2FE"/>
<path d="M20.1094 23.2734H28.6172C29.1997 23.2734 29.6719 22.8013 29.6719 22.2188V18C29.6719 17.4174 29.1997 16.9453 28.6172 16.9453H20.1094C19.5268 16.9453 19.0547 17.4174 19.0547 18V22.2188C19.0547 22.8013 19.5268 23.2734 20.1094 23.2734ZM21.1641 19.0547H27.5625V21.1641H21.1641V19.0547Z" fill="#A2D2FE"/>
<path d="M8.43561 18C8.43561 18.5826 7.9632 19.0547 7.38092 19.0547C6.79837 19.0547 6.32623 18.5826 6.32623 18C6.32623 17.4174 6.79837 16.9453 7.38092 16.9453C7.9632 16.9453 8.43561 17.4174 8.43561 18Z" fill="#A2D2FE"/>
<path d="M12.7247 18C12.7247 18.5826 12.2523 19.0547 11.67 19.0547C11.0874 19.0547 10.6153 18.5826 10.6153 18C10.6153 17.4174 11.0874 16.9453 11.67 16.9453C12.2523 16.9453 12.7247 17.4174 12.7247 18Z" fill="#A2D2FE"/>
<path d="M16.9434 18C16.9434 18.5826 16.471 19.0547 15.8887 19.0547C15.3062 19.0547 14.834 18.5826 14.834 18C14.834 17.4174 15.3062 16.9453 15.8887 16.9453C16.471 16.9453 16.9434 17.4174 16.9434 18Z" fill="#A2D2FE"/>
<path d="M25.3809 13.7812C25.3809 14.3638 24.9085 14.8359 24.3262 14.8359C23.7437 14.8359 23.2715 14.3638 23.2715 13.7812C23.2715 13.1987 23.7437 12.7266 24.3262 12.7266C24.9085 12.7266 25.3809 13.1987 25.3809 13.7812Z" fill="#A2D2FE"/>
<path d="M29.67 13.7812C29.67 14.3638 29.1976 14.8359 28.6153 14.8359C28.0327 14.8359 27.5606 14.3638 27.5606 13.7812C27.5606 13.1987 28.0327 12.7266 28.6153 12.7266C29.1976 12.7266 29.67 13.1987 29.67 13.7812Z" fill="#A2D2FE"/>
<path d="M8.43561 22.2188C8.43561 22.8013 7.9632 23.2734 7.38092 23.2734C6.79837 23.2734 6.32623 22.8013 6.32623 22.2188C6.32623 21.6362 6.79837 21.1641 7.38092 21.1641C7.9632 21.1641 8.43561 21.6362 8.43561 22.2188Z" fill="#A2D2FE"/>
<path d="M12.7247 22.2188C12.7247 22.8013 12.2523 23.2734 11.67 23.2734C11.0874 23.2734 10.6153 22.8013 10.6153 22.2188C10.6153 21.6362 11.0874 21.1641 11.67 21.1641C12.2523 21.1641 12.7247 21.6362 12.7247 22.2188Z" fill="#A2D2FE"/>
<path d="M16.9434 22.2188C16.9434 22.8013 16.471 23.2734 15.8887 23.2734C15.3062 23.2734 14.834 22.8013 14.834 22.2188C14.834 21.6362 15.3062 21.1641 15.8887 21.1641C16.471 21.1641 16.9434 21.6362 16.9434 22.2188Z" fill="#A2D2FE"/>
<path d="M22.2188 29.6016H13.7812C13.1987 29.6016 12.7266 30.0737 12.7266 30.6562C12.7266 31.2388 13.1987 31.7109 13.7812 31.7109H22.2188C22.8013 31.7109 23.2734 31.2388 23.2734 30.6562C23.2734 30.0737 22.8013 29.6016 22.2188 29.6016Z" fill="#A2D2FE"/>
<path d="M33.8906 25.5641V11.6719C33.8906 9.92725 32.4712 8.50781 30.7266 8.50781H27.4922V6.39844H32.8359C33.4185 6.39844 33.8906 5.9263 33.8906 5.34375V1.05469C33.8906 0.472137 33.4185 0 32.8359 0H20.1094C19.5268 0 19.0547 0.472137 19.0547 1.05469V5.34375C19.0547 5.9263 19.5268 6.39844 20.1094 6.39844H25.3828V8.50781H16.9453V3.16406C16.9453 2.58151 16.4732 2.10938 15.8906 2.10938H9.49219C8.90964 2.10938 8.4375 2.58151 8.4375 3.16406V8.50781H5.27344C3.52881 8.50781 2.10938 9.92725 2.10938 11.6719V25.5641C0.881653 25.9997 0 27.1719 0 28.5469V34.9453C0 35.5279 0.472137 36 1.05469 36H34.9453C35.5279 36 36 35.5279 36 34.9453V28.5469C36 27.1719 35.1183 25.9997 33.8906 25.5641ZM21.1641 2.10938H31.7812V4.28906H21.1641V2.10938ZM10.5469 4.21875H14.8359V12.7266H10.5469V4.21875ZM5.27344 10.6172H8.4375V12.7266H7.38281C6.80026 12.7266 6.32812 13.1987 6.32812 13.7812C6.32812 14.3638 6.80026 14.8359 7.38281 14.8359H18C18.5826 14.8359 19.0547 14.3638 19.0547 13.7812C19.0547 13.1987 18.5826 12.7266 18 12.7266H16.9453V10.6172H30.7266C31.308 10.6172 31.7812 11.0904 31.7812 11.6719V25.3828H4.21875V11.6719C4.21875 11.0904 4.69199 10.6172 5.27344 10.6172ZM33.8906 33.8906H2.10938V28.5469C2.10938 27.9654 2.58234 27.4922 3.16379 27.4922H32.8359C33.4174 27.4922 33.8906 27.9654 33.8906 28.5469V33.8906Z" fill="#A2D2FE"/>
<path d="M20.1094 23.2734H28.6172C29.1997 23.2734 29.6719 22.8013 29.6719 22.2188V18C29.6719 17.4174 29.1997 16.9453 28.6172 16.9453H20.1094C19.5268 16.9453 19.0547 17.4174 19.0547 18V22.2188C19.0547 22.8013 19.5268 23.2734 20.1094 23.2734ZM21.1641 19.0547H27.5625V21.1641H21.1641V19.0547Z" fill="#A2D2FE"/>
<path d="M8.43561 18C8.43561 18.5826 7.9632 19.0547 7.38092 19.0547C6.79837 19.0547 6.32623 18.5826 6.32623 18C6.32623 17.4174 6.79837 16.9453 7.38092 16.9453C7.9632 16.9453 8.43561 17.4174 8.43561 18Z" fill="#A2D2FE"/>
<path d="M12.7247 18C12.7247 18.5826 12.2523 19.0547 11.67 19.0547C11.0874 19.0547 10.6153 18.5826 10.6153 18C10.6153 17.4174 11.0874 16.9453 11.67 16.9453C12.2523 16.9453 12.7247 17.4174 12.7247 18Z" fill="#A2D2FE"/>
<path d="M16.9434 18C16.9434 18.5826 16.471 19.0547 15.8887 19.0547C15.3062 19.0547 14.834 18.5826 14.834 18C14.834 17.4174 15.3062 16.9453 15.8887 16.9453C16.471 16.9453 16.9434 17.4174 16.9434 18Z" fill="#A2D2FE"/>
<path d="M25.3809 13.7812C25.3809 14.3638 24.9085 14.8359 24.3262 14.8359C23.7437 14.8359 23.2715 14.3638 23.2715 13.7812C23.2715 13.1987 23.7437 12.7266 24.3262 12.7266C24.9085 12.7266 25.3809 13.1987 25.3809 13.7812Z" fill="#A2D2FE"/>
<path d="M29.67 13.7812C29.67 14.3638 29.1976 14.8359 28.6153 14.8359C28.0327 14.8359 27.5606 14.3638 27.5606 13.7812C27.5606 13.1987 28.0327 12.7266 28.6153 12.7266C29.1976 12.7266 29.67 13.1987 29.67 13.7812Z" fill="#A2D2FE"/>
<path d="M8.43561 22.2188C8.43561 22.8013 7.9632 23.2734 7.38092 23.2734C6.79837 23.2734 6.32623 22.8013 6.32623 22.2188C6.32623 21.6362 6.79837 21.1641 7.38092 21.1641C7.9632 21.1641 8.43561 21.6362 8.43561 22.2188Z" fill="#A2D2FE"/>
<path d="M12.7247 22.2188C12.7247 22.8013 12.2523 23.2734 11.67 23.2734C11.0874 23.2734 10.6153 22.8013 10.6153 22.2188C10.6153 21.6362 11.0874 21.1641 11.67 21.1641C12.2523 21.1641 12.7247 21.6362 12.7247 22.2188Z" fill="#A2D2FE"/>
<path d="M16.9434 22.2188C16.9434 22.8013 16.471 23.2734 15.8887 23.2734C15.3062 23.2734 14.834 22.8013 14.834 22.2188C14.834 21.6362 15.3062 21.1641 15.8887 21.1641C16.471 21.1641 16.9434 21.6362 16.9434 22.2188Z" fill="#A2D2FE"/>
<path d="M22.2188 29.6016H13.7812C13.1987 29.6016 12.7266 30.0737 12.7266 30.6562C12.7266 31.2388 13.1987 31.7109 13.7812 31.7109H22.2188C22.8013 31.7109 23.2734 31.2388 23.2734 30.6562C23.2734 30.0737 22.8013 29.6016 22.2188 29.6016Z" fill="#A2D2FE"/>
<path d="M33.8906 25.5641V11.6719C33.8906 9.92725 32.4712 8.50781 30.7266 8.50781H27.4922V6.39844H32.8359C33.4185 6.39844 33.8906 5.9263 33.8906 5.34375V1.05469C33.8906 0.472137 33.4185 0 32.8359 0H20.1094C19.5268 0 19.0547 0.472137 19.0547 1.05469V5.34375C19.0547 5.9263 19.5268 6.39844 20.1094 6.39844H25.3828V8.50781H16.9453V3.16406C16.9453 2.58151 16.4732 2.10938 15.8906 2.10938H9.49219C8.90964 2.10938 8.4375 2.58151 8.4375 3.16406V8.50781H5.27344C3.52881 8.50781 2.10938 9.92725 2.10938 11.6719V25.5641C0.881653 25.9997 0 27.1719 0 28.5469V34.9453C0 35.5279 0.472137 36 1.05469 36H34.9453C35.5279 36 36 35.5279 36 34.9453V28.5469C36 27.1719 35.1183 25.9997 33.8906 25.5641ZM21.1641 2.10938H31.7812V4.28906H21.1641V2.10938ZM10.5469 4.21875H14.8359V12.7266H10.5469V4.21875ZM5.27344 10.6172H8.4375V12.7266H7.38281C6.80026 12.7266 6.32812 13.1987 6.32812 13.7812C6.32812 14.3638 6.80026 14.8359 7.38281 14.8359H18C18.5826 14.8359 19.0547 14.3638 19.0547 13.7812C19.0547 13.1987 18.5826 12.7266 18 12.7266H16.9453V10.6172H30.7266C31.308 10.6172 31.7812 11.0904 31.7812 11.6719V25.3828H4.21875V11.6719C4.21875 11.0904 4.69199 10.6172 5.27344 10.6172ZM33.8906 33.8906H2.10938V28.5469C2.10938 27.9654 2.58234 27.4922 3.16379 27.4922H32.8359C33.4174 27.4922 33.8906 27.9654 33.8906 28.5469V33.8906Z" fill="#A2D2FE"/>
<path d="M20.1094 23.2734H28.6172C29.1997 23.2734 29.6719 22.8013 29.6719 22.2188V18C29.6719 17.4174 29.1997 16.9453 28.6172 16.9453H20.1094C19.5268 16.9453 19.0547 17.4174 19.0547 18V22.2188C19.0547 22.8013 19.5268 23.2734 20.1094 23.2734ZM21.1641 19.0547H27.5625V21.1641H21.1641V19.0547Z" fill="#A2D2FE"/>
<path d="M8.43561 18C8.43561 18.5826 7.9632 19.0547 7.38092 19.0547C6.79837 19.0547 6.32623 18.5826 6.32623 18C6.32623 17.4174 6.79837 16.9453 7.38092 16.9453C7.9632 16.9453 8.43561 17.4174 8.43561 18Z" fill="#A2D2FE"/>
<path d="M12.7247 18C12.7247 18.5826 12.2523 19.0547 11.67 19.0547C11.0874 19.0547 10.6153 18.5826 10.6153 18C10.6153 17.4174 11.0874 16.9453 11.67 16.9453C12.2523 16.9453 12.7247 17.4174 12.7247 18Z" fill="#A2D2FE"/>
<path d="M16.9434 18C16.9434 18.5826 16.471 19.0547 15.8887 19.0547C15.3062 19.0547 14.834 18.5826 14.834 18C14.834 17.4174 15.3062 16.9453 15.8887 16.9453C16.471 16.9453 16.9434 17.4174 16.9434 18Z" fill="#A2D2FE"/>
<path d="M25.3809 13.7812C25.3809 14.3638 24.9085 14.8359 24.3262 14.8359C23.7437 14.8359 23.2715 14.3638 23.2715 13.7812C23.2715 13.1987 23.7437 12.7266 24.3262 12.7266C24.9085 12.7266 25.3809 13.1987 25.3809 13.7812Z" fill="#A2D2FE"/>
<path d="M29.67 13.7812C29.67 14.3638 29.1976 14.8359 28.6153 14.8359C28.0327 14.8359 27.5606 14.3638 27.5606 13.7812C27.5606 13.1987 28.0327 12.7266 28.6153 12.7266C29.1976 12.7266 29.67 13.1987 29.67 13.7812Z" fill="#A2D2FE"/>
<path d="M8.43561 22.2188C8.43561 22.8013 7.9632 23.2734 7.38092 23.2734C6.79837 23.2734 6.32623 22.8013 6.32623 22.2188C6.32623 21.6362 6.79837 21.1641 7.38092 21.1641C7.9632 21.1641 8.43561 21.6362 8.43561 22.2188Z" fill="#A2D2FE"/>
<path d="M12.7247 22.2188C12.7247 22.8013 12.2523 23.2734 11.67 23.2734C11.0874 23.2734 10.6153 22.8013 10.6153 22.2188C10.6153 21.6362 11.0874 21.1641 11.67 21.1641C12.2523 21.1641 12.7247 21.6362 12.7247 22.2188Z" fill="#A2D2FE"/>
<path d="M16.9434 22.2188C16.9434 22.8013 16.471 23.2734 15.8887 23.2734C15.3062 23.2734 14.834 22.8013 14.834 22.2188C14.834 21.6362 15.3062 21.1641 15.8887 21.1641C16.471 21.1641 16.9434 21.6362 16.9434 22.2188Z" fill="#A2D2FE"/>
<path d="M22.2188 29.6016H13.7812C13.1987 29.6016 12.7266 30.0737 12.7266 30.6562C12.7266 31.2388 13.1987 31.7109 13.7812 31.7109H22.2188C22.8013 31.7109 23.2734 31.2388 23.2734 30.6562C23.2734 30.0737 22.8013 29.6016 22.2188 29.6016Z" stroke="#0688FF" stroke-width="0.6" mask="url(#path-1-inside-1)"/>
<path d="M33.8906 25.5641V11.6719C33.8906 9.92725 32.4712 8.50781 30.7266 8.50781H27.4922V6.39844H32.8359C33.4185 6.39844 33.8906 5.9263 33.8906 5.34375V1.05469C33.8906 0.472137 33.4185 0 32.8359 0H20.1094C19.5268 0 19.0547 0.472137 19.0547 1.05469V5.34375C19.0547 5.9263 19.5268 6.39844 20.1094 6.39844H25.3828V8.50781H16.9453V3.16406C16.9453 2.58151 16.4732 2.10938 15.8906 2.10938H9.49219C8.90964 2.10938 8.4375 2.58151 8.4375 3.16406V8.50781H5.27344C3.52881 8.50781 2.10938 9.92725 2.10938 11.6719V25.5641C0.881653 25.9997 0 27.1719 0 28.5469V34.9453C0 35.5279 0.472137 36 1.05469 36H34.9453C35.5279 36 36 35.5279 36 34.9453V28.5469C36 27.1719 35.1183 25.9997 33.8906 25.5641ZM21.1641 2.10938H31.7812V4.28906H21.1641V2.10938ZM10.5469 4.21875H14.8359V12.7266H10.5469V4.21875ZM5.27344 10.6172H8.4375V12.7266H7.38281C6.80026 12.7266 6.32812 13.1987 6.32812 13.7812C6.32812 14.3638 6.80026 14.8359 7.38281 14.8359H18C18.5826 14.8359 19.0547 14.3638 19.0547 13.7812C19.0547 13.1987 18.5826 12.7266 18 12.7266H16.9453V10.6172H30.7266C31.308 10.6172 31.7812 11.0904 31.7812 11.6719V25.3828H4.21875V11.6719C4.21875 11.0904 4.69199 10.6172 5.27344 10.6172ZM33.8906 33.8906H2.10938V28.5469C2.10938 27.9654 2.58234 27.4922 3.16379 27.4922H32.8359C33.4174 27.4922 33.8906 27.9654 33.8906 28.5469V33.8906Z" stroke="#0688FF" stroke-width="0.6" mask="url(#path-1-inside-1)"/>
<path d="M20.1094 23.2734H28.6172C29.1997 23.2734 29.6719 22.8013 29.6719 22.2188V18C29.6719 17.4174 29.1997 16.9453 28.6172 16.9453H20.1094C19.5268 16.9453 19.0547 17.4174 19.0547 18V22.2188C19.0547 22.8013 19.5268 23.2734 20.1094 23.2734ZM21.1641 19.0547H27.5625V21.1641H21.1641V19.0547Z" stroke="#0688FF" stroke-width="0.6" mask="url(#path-1-inside-1)"/>
<path d="M8.43561 18C8.43561 18.5826 7.9632 19.0547 7.38092 19.0547C6.79837 19.0547 6.32623 18.5826 6.32623 18C6.32623 17.4174 6.79837 16.9453 7.38092 16.9453C7.9632 16.9453 8.43561 17.4174 8.43561 18Z" stroke="#0688FF" stroke-width="0.6" mask="url(#path-1-inside-1)"/>
<path d="M12.7247 18C12.7247 18.5826 12.2523 19.0547 11.67 19.0547C11.0874 19.0547 10.6153 18.5826 10.6153 18C10.6153 17.4174 11.0874 16.9453 11.67 16.9453C12.2523 16.9453 12.7247 17.4174 12.7247 18Z" stroke="#0688FF" stroke-width="0.6" mask="url(#path-1-inside-1)"/>
<path d="M16.9434 18C16.9434 18.5826 16.471 19.0547 15.8887 19.0547C15.3062 19.0547 14.834 18.5826 14.834 18C14.834 17.4174 15.3062 16.9453 15.8887 16.9453C16.471 16.9453 16.9434 17.4174 16.9434 18Z" stroke="#0688FF" stroke-width="0.6" mask="url(#path-1-inside-1)"/>
<path d="M25.3809 13.7812C25.3809 14.3638 24.9085 14.8359 24.3262 14.8359C23.7437 14.8359 23.2715 14.3638 23.2715 13.7812C23.2715 13.1987 23.7437 12.7266 24.3262 12.7266C24.9085 12.7266 25.3809 13.1987 25.3809 13.7812Z" stroke="#0688FF" stroke-width="0.6" mask="url(#path-1-inside-1)"/>
<path d="M29.67 13.7812C29.67 14.3638 29.1976 14.8359 28.6153 14.8359C28.0327 14.8359 27.5606 14.3638 27.5606 13.7812C27.5606 13.1987 28.0327 12.7266 28.6153 12.7266C29.1976 12.7266 29.67 13.1987 29.67 13.7812Z" stroke="#0688FF" stroke-width="0.6" mask="url(#path-1-inside-1)"/>
<path d="M8.43561 22.2188C8.43561 22.8013 7.9632 23.2734 7.38092 23.2734C6.79837 23.2734 6.32623 22.8013 6.32623 22.2188C6.32623 21.6362 6.79837 21.1641 7.38092 21.1641C7.9632 21.1641 8.43561 21.6362 8.43561 22.2188Z" stroke="#0688FF" stroke-width="0.6" mask="url(#path-1-inside-1)"/>
<path d="M12.7247 22.2188C12.7247 22.8013 12.2523 23.2734 11.67 23.2734C11.0874 23.2734 10.6153 22.8013 10.6153 22.2188C10.6153 21.6362 11.0874 21.1641 11.67 21.1641C12.2523 21.1641 12.7247 21.6362 12.7247 22.2188Z" stroke="#0688FF" stroke-width="0.6" mask="url(#path-1-inside-1)"/>
<path d="M16.9434 22.2188C16.9434 22.8013 16.471 23.2734 15.8887 23.2734C15.3062 23.2734 14.834 22.8013 14.834 22.2188C14.834 21.6362 15.3062 21.1641 15.8887 21.1641C16.471 21.1641 16.9434 21.6362 16.9434 22.2188Z" stroke="#0688FF" stroke-width="0.6" mask="url(#path-1-inside-1)"/>
<path d="M22.2188 29.6016H13.7812C13.1987 29.6016 12.7266 30.0737 12.7266 30.6562C12.7266 31.2388 13.1987 31.7109 13.7812 31.7109H22.2188C22.8013 31.7109 23.2734 31.2388 23.2734 30.6562C23.2734 30.0737 22.8013 29.6016 22.2188 29.6016Z" stroke="#0688FF" stroke-width="0.6" mask="url(#path-1-inside-1)"/>
<path d="M33.8906 25.5641V11.6719C33.8906 9.92725 32.4712 8.50781 30.7266 8.50781H27.4922V6.39844H32.8359C33.4185 6.39844 33.8906 5.9263 33.8906 5.34375V1.05469C33.8906 0.472137 33.4185 0 32.8359 0H20.1094C19.5268 0 19.0547 0.472137 19.0547 1.05469V5.34375C19.0547 5.9263 19.5268 6.39844 20.1094 6.39844H25.3828V8.50781H16.9453V3.16406C16.9453 2.58151 16.4732 2.10938 15.8906 2.10938H9.49219C8.90964 2.10938 8.4375 2.58151 8.4375 3.16406V8.50781H5.27344C3.52881 8.50781 2.10938 9.92725 2.10938 11.6719V25.5641C0.881653 25.9997 0 27.1719 0 28.5469V34.9453C0 35.5279 0.472137 36 1.05469 36H34.9453C35.5279 36 36 35.5279 36 34.9453V28.5469C36 27.1719 35.1183 25.9997 33.8906 25.5641ZM21.1641 2.10938H31.7812V4.28906H21.1641V2.10938ZM10.5469 4.21875H14.8359V12.7266H10.5469V4.21875ZM5.27344 10.6172H8.4375V12.7266H7.38281C6.80026 12.7266 6.32812 13.1987 6.32812 13.7812C6.32812 14.3638 6.80026 14.8359 7.38281 14.8359H18C18.5826 14.8359 19.0547 14.3638 19.0547 13.7812C19.0547 13.1987 18.5826 12.7266 18 12.7266H16.9453V10.6172H30.7266C31.308 10.6172 31.7812 11.0904 31.7812 11.6719V25.3828H4.21875V11.6719C4.21875 11.0904 4.69199 10.6172 5.27344 10.6172ZM33.8906 33.8906H2.10938V28.5469C2.10938 27.9654 2.58234 27.4922 3.16379 27.4922H32.8359C33.4174 27.4922 33.8906 27.9654 33.8906 28.5469V33.8906Z" stroke="#0688FF" stroke-width="0.6" mask="url(#path-1-inside-1)"/>
<path d="M20.1094 23.2734H28.6172C29.1997 23.2734 29.6719 22.8013 29.6719 22.2188V18C29.6719 17.4174 29.1997 16.9453 28.6172 16.9453H20.1094C19.5268 16.9453 19.0547 17.4174 19.0547 18V22.2188C19.0547 22.8013 19.5268 23.2734 20.1094 23.2734ZM21.1641 19.0547H27.5625V21.1641H21.1641V19.0547Z" stroke="#0688FF" stroke-width="0.6" mask="url(#path-1-inside-1)"/>
<path d="M8.43561 18C8.43561 18.5826 7.9632 19.0547 7.38092 19.0547C6.79837 19.0547 6.32623 18.5826 6.32623 18C6.32623 17.4174 6.79837 16.9453 7.38092 16.9453C7.9632 16.9453 8.43561 17.4174 8.43561 18Z" stroke="#0688FF" stroke-width="0.6" mask="url(#path-1-inside-1)"/>
<path d="M12.7247 18C12.7247 18.5826 12.2523 19.0547 11.67 19.0547C11.0874 19.0547 10.6153 18.5826 10.6153 18C10.6153 17.4174 11.0874 16.9453 11.67 16.9453C12.2523 16.9453 12.7247 17.4174 12.7247 18Z" stroke="#0688FF" stroke-width="0.6" mask="url(#path-1-inside-1)"/>
<path d="M16.9434 18C16.9434 18.5826 16.471 19.0547 15.8887 19.0547C15.3062 19.0547 14.834 18.5826 14.834 18C14.834 17.4174 15.3062 16.9453 15.8887 16.9453C16.471 16.9453 16.9434 17.4174 16.9434 18Z" stroke="#0688FF" stroke-width="0.6" mask="url(#path-1-inside-1)"/>
<path d="M25.3809 13.7812C25.3809 14.3638 24.9085 14.8359 24.3262 14.8359C23.7437 14.8359 23.2715 14.3638 23.2715 13.7812C23.2715 13.1987 23.7437 12.7266 24.3262 12.7266C24.9085 12.7266 25.3809 13.1987 25.3809 13.7812Z" stroke="#0688FF" stroke-width="0.6" mask="url(#path-1-inside-1)"/>
<path d="M29.67 13.7812C29.67 14.3638 29.1976 14.8359 28.6153 14.8359C28.0327 14.8359 27.5606 14.3638 27.5606 13.7812C27.5606 13.1987 28.0327 12.7266 28.6153 12.7266C29.1976 12.7266 29.67 13.1987 29.67 13.7812Z" stroke="#0688FF" stroke-width="0.6" mask="url(#path-1-inside-1)"/>
<path d="M8.43561 22.2188C8.43561 22.8013 7.9632 23.2734 7.38092 23.2734C6.79837 23.2734 6.32623 22.8013 6.32623 22.2188C6.32623 21.6362 6.79837 21.1641 7.38092 21.1641C7.9632 21.1641 8.43561 21.6362 8.43561 22.2188Z" stroke="#0688FF" stroke-width="0.6" mask="url(#path-1-inside-1)"/>
<path d="M12.7247 22.2188C12.7247 22.8013 12.2523 23.2734 11.67 23.2734C11.0874 23.2734 10.6153 22.8013 10.6153 22.2188C10.6153 21.6362 11.0874 21.1641 11.67 21.1641C12.2523 21.1641 12.7247 21.6362 12.7247 22.2188Z" stroke="#0688FF" stroke-width="0.6" mask="url(#path-1-inside-1)"/>
<path d="M16.9434 22.2188C16.9434 22.8013 16.471 23.2734 15.8887 23.2734C15.3062 23.2734 14.834 22.8013 14.834 22.2188C14.834 21.6362 15.3062 21.1641 15.8887 21.1641C16.471 21.1641 16.9434 21.6362 16.9434 22.2188Z" stroke="#0688FF" stroke-width="0.6" mask="url(#path-1-inside-1)"/>
<path d="M22.2188 29.6016H13.7812C13.1987 29.6016 12.7266 30.0737 12.7266 30.6562C12.7266 31.2388 13.1987 31.7109 13.7812 31.7109H22.2188C22.8013 31.7109 23.2734 31.2388 23.2734 30.6562C23.2734 30.0737 22.8013 29.6016 22.2188 29.6016Z" stroke="#0688FF" stroke-width="0.6" mask="url(#path-1-inside-1)"/>
<path d="M33.8906 25.5641V11.6719C33.8906 9.92725 32.4712 8.50781 30.7266 8.50781H27.4922V6.39844H32.8359C33.4185 6.39844 33.8906 5.9263 33.8906 5.34375V1.05469C33.8906 0.472137 33.4185 0 32.8359 0H20.1094C19.5268 0 19.0547 0.472137 19.0547 1.05469V5.34375C19.0547 5.9263 19.5268 6.39844 20.1094 6.39844H25.3828V8.50781H16.9453V3.16406C16.9453 2.58151 16.4732 2.10938 15.8906 2.10938H9.49219C8.90964 2.10938 8.4375 2.58151 8.4375 3.16406V8.50781H5.27344C3.52881 8.50781 2.10938 9.92725 2.10938 11.6719V25.5641C0.881653 25.9997 0 27.1719 0 28.5469V34.9453C0 35.5279 0.472137 36 1.05469 36H34.9453C35.5279 36 36 35.5279 36 34.9453V28.5469C36 27.1719 35.1183 25.9997 33.8906 25.5641ZM21.1641 2.10938H31.7812V4.28906H21.1641V2.10938ZM10.5469 4.21875H14.8359V12.7266H10.5469V4.21875ZM5.27344 10.6172H8.4375V12.7266H7.38281C6.80026 12.7266 6.32812 13.1987 6.32812 13.7812C6.32812 14.3638 6.80026 14.8359 7.38281 14.8359H18C18.5826 14.8359 19.0547 14.3638 19.0547 13.7812C19.0547 13.1987 18.5826 12.7266 18 12.7266H16.9453V10.6172H30.7266C31.308 10.6172 31.7812 11.0904 31.7812 11.6719V25.3828H4.21875V11.6719C4.21875 11.0904 4.69199 10.6172 5.27344 10.6172ZM33.8906 33.8906H2.10938V28.5469C2.10938 27.9654 2.58234 27.4922 3.16379 27.4922H32.8359C33.4174 27.4922 33.8906 27.9654 33.8906 28.5469V33.8906Z" stroke="#0688FF" stroke-width="0.6" mask="url(#path-1-inside-1)"/>
<path d="M20.1094 23.2734H28.6172C29.1997 23.2734 29.6719 22.8013 29.6719 22.2188V18C29.6719 17.4174 29.1997 16.9453 28.6172 16.9453H20.1094C19.5268 16.9453 19.0547 17.4174 19.0547 18V22.2188C19.0547 22.8013 19.5268 23.2734 20.1094 23.2734ZM21.1641 19.0547H27.5625V21.1641H21.1641V19.0547Z" stroke="#0688FF" stroke-width="0.6" mask="url(#path-1-inside-1)"/>
<path d="M8.43561 18C8.43561 18.5826 7.9632 19.0547 7.38092 19.0547C6.79837 19.0547 6.32623 18.5826 6.32623 18C6.32623 17.4174 6.79837 16.9453 7.38092 16.9453C7.9632 16.9453 8.43561 17.4174 8.43561 18Z" stroke="#0688FF" stroke-width="0.6" mask="url(#path-1-inside-1)"/>
<path d="M12.7247 18C12.7247 18.5826 12.2523 19.0547 11.67 19.0547C11.0874 19.0547 10.6153 18.5826 10.6153 18C10.6153 17.4174 11.0874 16.9453 11.67 16.9453C12.2523 16.9453 12.7247 17.4174 12.7247 18Z" stroke="#0688FF" stroke-width="0.6" mask="url(#path-1-inside-1)"/>
<path d="M16.9434 18C16.9434 18.5826 16.471 19.0547 15.8887 19.0547C15.3062 19.0547 14.834 18.5826 14.834 18C14.834 17.4174 15.3062 16.9453 15.8887 16.9453C16.471 16.9453 16.9434 17.4174 16.9434 18Z" stroke="#0688FF" stroke-width="0.6" mask="url(#path-1-inside-1)"/>
<path d="M25.3809 13.7812C25.3809 14.3638 24.9085 14.8359 24.3262 14.8359C23.7437 14.8359 23.2715 14.3638 23.2715 13.7812C23.2715 13.1987 23.7437 12.7266 24.3262 12.7266C24.9085 12.7266 25.3809 13.1987 25.3809 13.7812Z" stroke="#0688FF" stroke-width="0.6" mask="url(#path-1-inside-1)"/>
<path d="M29.67 13.7812C29.67 14.3638 29.1976 14.8359 28.6153 14.8359C28.0327 14.8359 27.5606 14.3638 27.5606 13.7812C27.5606 13.1987 28.0327 12.7266 28.6153 12.7266C29.1976 12.7266 29.67 13.1987 29.67 13.7812Z" stroke="#0688FF" stroke-width="0.6" mask="url(#path-1-inside-1)"/>
<path d="M8.43561 22.2188C8.43561 22.8013 7.9632 23.2734 7.38092 23.2734C6.79837 23.2734 6.32623 22.8013 6.32623 22.2188C6.32623 21.6362 6.79837 21.1641 7.38092 21.1641C7.9632 21.1641 8.43561 21.6362 8.43561 22.2188Z" stroke="#0688FF" stroke-width="0.6" mask="url(#path-1-inside-1)"/>
<path d="M12.7247 22.2188C12.7247 22.8013 12.2523 23.2734 11.67 23.2734C11.0874 23.2734 10.6153 22.8013 10.6153 22.2188C10.6153 21.6362 11.0874 21.1641 11.67 21.1641C12.2523 21.1641 12.7247 21.6362 12.7247 22.2188Z" stroke="#0688FF" stroke-width="0.6" mask="url(#path-1-inside-1)"/>
<path d="M16.9434 22.2188C16.9434 22.8013 16.471 23.2734 15.8887 23.2734C15.3062 23.2734 14.834 22.8013 14.834 22.2188C14.834 21.6362 15.3062 21.1641 15.8887 21.1641C16.471 21.1641 16.9434 21.6362 16.9434 22.2188Z" stroke="#0688FF" stroke-width="0.6" mask="url(#path-1-inside-1)"/>
</svg>
