<svg width="38" height="38" viewBox="0 0 38 38" fill="none" xmlns="http://www.w3.org/2000/svg">
<mask id="path-1-outside-1" maskUnits="userSpaceOnUse" x="0" y="0" width="38" height="38" fill="black">
<rect fill="white" width="38" height="38"/>
<path fill-rule="evenodd" clip-rule="evenodd" d="M8.99974 4.03355C11.9598 2.05568 15.4399 1 19 1C23.7739 1 28.3523 2.89642 31.7279 6.27208C35.1036 9.64773 37 14.2261 37 19C37 22.5601 35.9443 26.0402 33.9665 29.0003C31.9886 31.9603 29.1774 34.2674 25.8883 35.6298C22.5992 36.9922 18.98 37.3487 15.4884 36.6541C11.9967 35.9596 8.78943 34.2453 6.27209 31.7279C3.75474 29.2106 2.04041 26.0033 1.34587 22.5116C0.651339 19.02 1.0078 15.4008 2.37018 12.1117C3.73255 8.82263 6.03966 6.01141 8.99974 4.03355ZM9.71601 32.8945C12.4641 34.7307 15.6949 35.7107 19 35.7107C23.432 35.7107 27.6824 33.9501 30.8163 30.8163C33.9501 27.6824 35.7107 23.432 35.7107 19C35.7107 15.6949 34.7307 12.4641 32.8945 9.71601C31.0583 6.96794 28.4484 4.82608 25.3949 3.56128C22.3414 2.29649 18.9815 1.96556 15.7399 2.61035C12.4983 3.25513 9.52076 4.84668 7.18373 7.18372C4.84669 9.52076 3.25514 12.4983 2.61036 15.7399C1.96557 18.9815 2.2965 22.3414 3.56129 25.3949C4.82609 28.4484 6.96795 31.0583 9.71601 32.8945Z"/>
<path d="M25.1162 20.5617C25.2309 20.5617 25.285 20.5617 25.2933 20.4045C25.3373 19.8324 25.3373 19.257 25.2933 18.6842C25.2933 18.573 25.2404 18.5271 25.1251 18.5271H14.4164C14.2838 18.5271 14.2481 18.573 14.2481 18.7029V20.3492C14.2481 20.5617 14.2481 20.5617 14.4603 20.5617H25.1162ZM24.6924 16.603C24.7077 16.561 24.7077 16.5151 24.6924 16.4738C24.6026 16.2693 24.4961 16.0742 24.3725 15.8911C24.1864 15.578 23.9672 15.2897 23.7174 15.0306C23.5995 14.8741 23.4632 14.7336 23.3102 14.6143C22.5443 13.933 21.6337 13.4509 20.6549 13.2084C20.161 13.0925 19.6563 13.0373 19.1504 13.0419H14.3979C14.2653 13.0419 14.2475 13.0972 14.2475 13.2178V16.5011C14.2475 16.6396 14.2475 16.6769 14.4157 16.6769H24.6287C24.6287 16.6769 24.7173 16.6583 24.7351 16.603H24.6924ZM24.6924 22.4857C24.542 22.4684 24.3904 22.4684 24.24 22.4857H14.4253C14.2927 22.4857 14.2481 22.4857 14.2481 22.6709V25.881C14.2481 26.0288 14.2481 26.0661 14.4253 26.0661H18.9567C19.1733 26.0834 19.39 26.0674 19.6022 26.0201C20.2598 25.9709 20.9066 25.8217 21.5234 25.5759C21.7477 25.4947 21.9644 25.3888 22.169 25.2616H22.2308C23.293 24.6842 24.1558 23.7771 24.7 22.6635C24.7 22.6635 24.7619 22.5237 24.6924 22.487V22.4857ZM12.4696 27.7304V22.6156C12.4696 22.495 12.4696 22.4771 12.3281 22.4771H10.4075C10.3011 22.4771 10.2571 22.4771 10.2571 22.3292V20.5716H12.3103C12.425 20.5716 12.4696 20.5717 12.4696 20.4145V18.6756C12.4696 18.5643 12.4696 18.537 12.3281 18.537H10.4075C10.3011 18.537 10.2571 18.537 10.2571 18.3892V16.7615C10.2571 16.6596 10.2571 16.6323 10.3986 16.6323H12.3014C12.4339 16.6323 12.4696 16.6323 12.4696 16.4565V11.4709C12.4696 11.323 12.4696 11.2857 12.6468 11.2857H19.2842C19.7659 11.3057 20.2445 11.361 20.718 11.4522C21.6936 11.6407 22.6309 12.005 23.488 12.5251C24.0564 12.8748 24.5796 13.297 25.0454 13.7832C25.3959 14.1635 25.712 14.575 25.9924 15.0133C26.2708 15.4575 26.5021 15.9323 26.6838 16.4285C26.7061 16.5577 26.8246 16.645 26.9482 16.623H28.5324C28.7357 16.623 28.7357 16.623 28.7446 16.8268V18.3439C28.7446 18.4918 28.6917 18.5291 28.5496 18.5291H27.328C27.2044 18.5291 27.1687 18.529 27.1776 18.6955C27.226 19.259 27.226 19.8244 27.1776 20.3878C27.1776 20.545 27.1776 20.5637 27.3465 20.5637H28.7439C28.8057 20.6469 28.7439 20.7302 28.7439 20.8141C28.7529 20.9213 28.7529 21.0299 28.7439 21.1371V22.2566C28.7439 22.4138 28.7 22.4604 28.5668 22.4604H26.894C26.7774 22.4371 26.664 22.515 26.6372 22.6362C26.239 23.7185 25.6017 24.6888 24.7784 25.4667C24.4777 25.7497 24.1616 26.0161 23.8315 26.2619C23.4772 26.475 23.1325 26.6968 22.7692 26.8726C22.1008 27.187 21.3998 27.4187 20.6804 27.5659C19.9973 27.6938 19.3046 27.7517 18.6094 27.7417H12.4671V27.7324L12.4696 27.7304Z"/>
</mask>
<path fill-rule="evenodd" clip-rule="evenodd" d="M8.99974 4.03355C11.9598 2.05568 15.4399 1 19 1C23.7739 1 28.3523 2.89642 31.7279 6.27208C35.1036 9.64773 37 14.2261 37 19C37 22.5601 35.9443 26.0402 33.9665 29.0003C31.9886 31.9603 29.1774 34.2674 25.8883 35.6298C22.5992 36.9922 18.98 37.3487 15.4884 36.6541C11.9967 35.9596 8.78943 34.2453 6.27209 31.7279C3.75474 29.2106 2.04041 26.0033 1.34587 22.5116C0.651339 19.02 1.0078 15.4008 2.37018 12.1117C3.73255 8.82263 6.03966 6.01141 8.99974 4.03355ZM9.71601 32.8945C12.4641 34.7307 15.6949 35.7107 19 35.7107C23.432 35.7107 27.6824 33.9501 30.8163 30.8163C33.9501 27.6824 35.7107 23.432 35.7107 19C35.7107 15.6949 34.7307 12.4641 32.8945 9.71601C31.0583 6.96794 28.4484 4.82608 25.3949 3.56128C22.3414 2.29649 18.9815 1.96556 15.7399 2.61035C12.4983 3.25513 9.52076 4.84668 7.18373 7.18372C4.84669 9.52076 3.25514 12.4983 2.61036 15.7399C1.96557 18.9815 2.2965 22.3414 3.56129 25.3949C4.82609 28.4484 6.96795 31.0583 9.71601 32.8945Z" fill="#FEECD1"/>
<path d="M25.1162 20.5617C25.2309 20.5617 25.285 20.5617 25.2933 20.4045C25.3373 19.8324 25.3373 19.257 25.2933 18.6842C25.2933 18.573 25.2404 18.5271 25.1251 18.5271H14.4164C14.2838 18.5271 14.2481 18.573 14.2481 18.7029V20.3492C14.2481 20.5617 14.2481 20.5617 14.4603 20.5617H25.1162ZM24.6924 16.603C24.7077 16.561 24.7077 16.5151 24.6924 16.4738C24.6026 16.2693 24.4961 16.0742 24.3725 15.8911C24.1864 15.578 23.9672 15.2897 23.7174 15.0306C23.5995 14.8741 23.4632 14.7336 23.3102 14.6143C22.5443 13.933 21.6337 13.4509 20.6549 13.2084C20.161 13.0925 19.6563 13.0373 19.1504 13.0419H14.3979C14.2653 13.0419 14.2475 13.0972 14.2475 13.2178V16.5011C14.2475 16.6396 14.2475 16.6769 14.4157 16.6769H24.6287C24.6287 16.6769 24.7173 16.6583 24.7351 16.603H24.6924ZM24.6924 22.4857C24.542 22.4684 24.3904 22.4684 24.24 22.4857H14.4253C14.2927 22.4857 14.2481 22.4857 14.2481 22.6709V25.881C14.2481 26.0288 14.2481 26.0661 14.4253 26.0661H18.9567C19.1733 26.0834 19.39 26.0674 19.6022 26.0201C20.2598 25.9709 20.9066 25.8217 21.5234 25.5759C21.7477 25.4947 21.9644 25.3888 22.169 25.2616H22.2308C23.293 24.6842 24.1558 23.7771 24.7 22.6635C24.7 22.6635 24.7619 22.5237 24.6924 22.487V22.4857ZM12.4696 27.7304V22.6156C12.4696 22.495 12.4696 22.4771 12.3281 22.4771H10.4075C10.3011 22.4771 10.2571 22.4771 10.2571 22.3292V20.5716H12.3103C12.425 20.5716 12.4696 20.5717 12.4696 20.4145V18.6756C12.4696 18.5643 12.4696 18.537 12.3281 18.537H10.4075C10.3011 18.537 10.2571 18.537 10.2571 18.3892V16.7615C10.2571 16.6596 10.2571 16.6323 10.3986 16.6323H12.3014C12.4339 16.6323 12.4696 16.6323 12.4696 16.4565V11.4709C12.4696 11.323 12.4696 11.2857 12.6468 11.2857H19.2842C19.7659 11.3057 20.2445 11.361 20.718 11.4522C21.6936 11.6407 22.6309 12.005 23.488 12.5251C24.0564 12.8748 24.5796 13.297 25.0454 13.7832C25.3959 14.1635 25.712 14.575 25.9924 15.0133C26.2708 15.4575 26.5021 15.9323 26.6838 16.4285C26.7061 16.5577 26.8246 16.645 26.9482 16.623H28.5324C28.7357 16.623 28.7357 16.623 28.7446 16.8268V18.3439C28.7446 18.4918 28.6917 18.5291 28.5496 18.5291H27.328C27.2044 18.5291 27.1687 18.529 27.1776 18.6955C27.226 19.259 27.226 19.8244 27.1776 20.3878C27.1776 20.545 27.1776 20.5637 27.3465 20.5637H28.7439C28.8057 20.6469 28.7439 20.7302 28.7439 20.8141C28.7529 20.9213 28.7529 21.0299 28.7439 21.1371V22.2566C28.7439 22.4138 28.7 22.4604 28.5668 22.4604H26.894C26.7774 22.4371 26.664 22.515 26.6372 22.6362C26.239 23.7185 25.6017 24.6888 24.7784 25.4667C24.4777 25.7497 24.1616 26.0161 23.8315 26.2619C23.4772 26.475 23.1325 26.6968 22.7692 26.8726C22.1008 27.187 21.3998 27.4187 20.6804 27.5659C19.9973 27.6938 19.3046 27.7517 18.6094 27.7417H12.4671V27.7324L12.4696 27.7304Z" fill="#FEECD1"/>
<path fill-rule="evenodd" clip-rule="evenodd" d="M8.99974 4.03355C11.9598 2.05568 15.4399 1 19 1C23.7739 1 28.3523 2.89642 31.7279 6.27208C35.1036 9.64773 37 14.2261 37 19C37 22.5601 35.9443 26.0402 33.9665 29.0003C31.9886 31.9603 29.1774 34.2674 25.8883 35.6298C22.5992 36.9922 18.98 37.3487 15.4884 36.6541C11.9967 35.9596 8.78943 34.2453 6.27209 31.7279C3.75474 29.2106 2.04041 26.0033 1.34587 22.5116C0.651339 19.02 1.0078 15.4008 2.37018 12.1117C3.73255 8.82263 6.03966 6.01141 8.99974 4.03355ZM9.71601 32.8945C12.4641 34.7307 15.6949 35.7107 19 35.7107C23.432 35.7107 27.6824 33.9501 30.8163 30.8163C33.9501 27.6824 35.7107 23.432 35.7107 19C35.7107 15.6949 34.7307 12.4641 32.8945 9.71601C31.0583 6.96794 28.4484 4.82608 25.3949 3.56128C22.3414 2.29649 18.9815 1.96556 15.7399 2.61035C12.4983 3.25513 9.52076 4.84668 7.18373 7.18372C4.84669 9.52076 3.25514 12.4983 2.61036 15.7399C1.96557 18.9815 2.2965 22.3414 3.56129 25.3949C4.82609 28.4484 6.96795 31.0583 9.71601 32.8945Z" stroke="#F28040" stroke-width="0.8" mask="url(#path-1-outside-1)"/>
<path d="M25.1162 20.5617C25.2309 20.5617 25.285 20.5617 25.2933 20.4045C25.3373 19.8324 25.3373 19.257 25.2933 18.6842C25.2933 18.573 25.2404 18.5271 25.1251 18.5271H14.4164C14.2838 18.5271 14.2481 18.573 14.2481 18.7029V20.3492C14.2481 20.5617 14.2481 20.5617 14.4603 20.5617H25.1162ZM24.6924 16.603C24.7077 16.561 24.7077 16.5151 24.6924 16.4738C24.6026 16.2693 24.4961 16.0742 24.3725 15.8911C24.1864 15.578 23.9672 15.2897 23.7174 15.0306C23.5995 14.8741 23.4632 14.7336 23.3102 14.6143C22.5443 13.933 21.6337 13.4509 20.6549 13.2084C20.161 13.0925 19.6563 13.0373 19.1504 13.0419H14.3979C14.2653 13.0419 14.2475 13.0972 14.2475 13.2178V16.5011C14.2475 16.6396 14.2475 16.6769 14.4157 16.6769H24.6287C24.6287 16.6769 24.7173 16.6583 24.7351 16.603H24.6924ZM24.6924 22.4857C24.542 22.4684 24.3904 22.4684 24.24 22.4857H14.4253C14.2927 22.4857 14.2481 22.4857 14.2481 22.6709V25.881C14.2481 26.0288 14.2481 26.0661 14.4253 26.0661H18.9567C19.1733 26.0834 19.39 26.0674 19.6022 26.0201C20.2598 25.9709 20.9066 25.8217 21.5234 25.5759C21.7477 25.4947 21.9644 25.3888 22.169 25.2616H22.2308C23.293 24.6842 24.1558 23.7771 24.7 22.6635C24.7 22.6635 24.7619 22.5237 24.6924 22.487V22.4857ZM12.4696 27.7304V22.6156C12.4696 22.495 12.4696 22.4771 12.3281 22.4771H10.4075C10.3011 22.4771 10.2571 22.4771 10.2571 22.3292V20.5716H12.3103C12.425 20.5716 12.4696 20.5717 12.4696 20.4145V18.6756C12.4696 18.5643 12.4696 18.537 12.3281 18.537H10.4075C10.3011 18.537 10.2571 18.537 10.2571 18.3892V16.7615C10.2571 16.6596 10.2571 16.6323 10.3986 16.6323H12.3014C12.4339 16.6323 12.4696 16.6323 12.4696 16.4565V11.4709C12.4696 11.323 12.4696 11.2857 12.6468 11.2857H19.2842C19.7659 11.3057 20.2445 11.361 20.718 11.4522C21.6936 11.6407 22.6309 12.005 23.488 12.5251C24.0564 12.8748 24.5796 13.297 25.0454 13.7832C25.3959 14.1635 25.712 14.575 25.9924 15.0133C26.2708 15.4575 26.5021 15.9323 26.6838 16.4285C26.7061 16.5577 26.8246 16.645 26.9482 16.623H28.5324C28.7357 16.623 28.7357 16.623 28.7446 16.8268V18.3439C28.7446 18.4918 28.6917 18.5291 28.5496 18.5291H27.328C27.2044 18.5291 27.1687 18.529 27.1776 18.6955C27.226 19.259 27.226 19.8244 27.1776 20.3878C27.1776 20.545 27.1776 20.5637 27.3465 20.5637H28.7439C28.8057 20.6469 28.7439 20.7302 28.7439 20.8141C28.7529 20.9213 28.7529 21.0299 28.7439 21.1371V22.2566C28.7439 22.4138 28.7 22.4604 28.5668 22.4604H26.894C26.7774 22.4371 26.664 22.515 26.6372 22.6362C26.239 23.7185 25.6017 24.6888 24.7784 25.4667C24.4777 25.7497 24.1616 26.0161 23.8315 26.2619C23.4772 26.475 23.1325 26.6968 22.7692 26.8726C22.1008 27.187 21.3998 27.4187 20.6804 27.5659C19.9973 27.6938 19.3046 27.7517 18.6094 27.7417H12.4671V27.7324L12.4696 27.7304Z" stroke="#F28040" stroke-width="0.8" mask="url(#path-1-outside-1)"/>
</svg>
