<svg xmlns="http://www.w3.org/2000/svg" width="324" height="324" viewBox="0 0 324 324" stroke="#000" stroke-linecap="round" stroke-linejoin="miter" fill="#fff" 
fill-rule="evenodd"><path d="M112.867 202.00001c-8.93159 0-16.2492-2.10181-21.95339-6.30482-5.62921-4.27798-8.4438-10.35719-8.4438-18.2382 0-1.65119.18779-3.67798.56279-6.0798.97621-5.40359 2.36461-11.89619 4.1658-19.47659 5.10361-20.64 18.27601-30.96 39.51661-30.96 5.7792 0 10.9578.9756 15.53639 2.9268 4.57861 1.8762 8.18101 4.7286 10.8078 8.5566C155.686 136.1764 157 140.68 157 145.9336c0 1.5762-.18779 3.5652-.5634 5.967-1.1256 6.6798-2.47679 13.1724-4.05298 19.47659-2.62682 10.2828-7.16761 17.97602-13.62243 23.07961-6.4548 5.0286-15.08578 7.54321-25.89419 7.54321zm1.57621-16.21201c4.20359 0 7.7682-1.2384 10.69559-3.71519 3.0024-2.47682 5.1414-6.26701 6.41701-11.37062 1.72621-7.05539 3.04021-13.21019 3.94079-18.46379.3-1.5762.45-3.1896.45-4.8414 0-6.8298-3.56521-10.245-10.695-10.245-4.20359 0-7.80599 1.2384-10.80839 3.7152-2.92679 2.4774-5.02861 6.2676-6.30421 11.3712-1.35119 5.0286-2.7024 11.1834-4.053 18.46379-.30059 1.50061-.45059 3.07682-.45059 4.72801 0 6.9054 3.603 10.3578 10.8078 10.3578zm53.25215 15.0202c-.8256 0-1.464-.26281-1.914-.7884-.3756-.6006-.48781-1.2756-.33781-2.02621l15.53641-73.17899c.15-.82561.56279-1.5012 1.23839-2.02681S183.60675 122 184.35736 122h29.94719c8.331 0 15.0108 1.7262 20.03941 5.1786 5.10419 3.45299 7.65602 8.4438 7.65602 14.97359 0 1.8762-.225 3.82801-.67562 5.85421-1.87621 8.6316-5.66642 15.01139-11.37061 19.1394-5.62919 4.128-13.3602 6.192-23.1924 6.192h-15.19859l-5.17861 24.65579c-.15059.82561-.5634 1.50061-1.2384 2.02621s-1.389.7884-2.139.7884h-15.31139zm39.85439-43.00681c3.15181 0 5.8914-.86339 8.21821-2.58959 2.4018-1.7262 3.97799-4.203 4.72859-7.4304.225-1.2762.33781-2.40181.33781-3.3774 0-2.17681-.63781-3.82801-1.914-4.9536-1.27621-1.20121-3.4524-1.80121-6.52979-1.80121h-13.5102l-4.27801 20.1522h12.94739z" fill-rule="nonzero" stroke="#efb0ff" stroke-width="7" fill="#a440f2"/><g fill="none"><path d="M12 162C12 78.9 78.9 12 162 12s150 66.9 150 150-66.9 150-150 150S12 245.1 12 162z" stroke-width="24" stroke="#efb0ff"/><path d="M12 162C12 78.9 78.9 12 162 12s150 66.9 150 150-66.9 150-150 150S12 245.1 12 162z" stroke-width="12" stroke="#a440f2"/></g></svg>