<svg width="38" height="38" viewBox="0 0 38 38" fill="none" xmlns="http://www.w3.org/2000/svg">
<g clip-path="url(#clip0)">
<path fill-rule="evenodd" clip-rule="evenodd" d="M8.99974 4.03355C11.9598 2.05568 15.4399 1 19 1C23.7739 1 28.3523 2.89642 31.7279 6.27208C35.1036 9.64773 37 14.2261 37 19C37 22.5601 35.9443 26.0402 33.9665 29.0003C31.9886 31.9603 29.1774 34.2674 25.8883 35.6298C22.5992 36.9922 18.98 37.3487 15.4884 36.6541C11.9967 35.9596 8.78943 34.2453 6.27209 31.7279C3.75474 29.2106 2.04041 26.0033 1.34587 22.5116C0.65134 19.02 1.0078 15.4008 2.37018 12.1117C3.73255 8.82263 6.03966 6.01141 8.99974 4.03355ZM9.71601 32.8945C12.4641 34.7307 15.6949 35.7107 19 35.7107C23.432 35.7107 27.6824 33.9501 30.8163 30.8163C33.9501 27.6824 35.7107 23.432 35.7107 19C35.7107 15.6949 34.7307 12.4641 32.8945 9.71601C31.0583 6.96794 28.4484 4.82608 25.3949 3.56128C22.3414 2.29649 18.9815 1.96556 15.7399 2.61035C12.4983 3.25513 9.52076 4.84668 7.18373 7.18372C4.84669 9.52076 3.25514 12.4983 2.61036 15.7399C1.96557 18.9815 2.2965 22.3414 3.56129 25.3949C4.82609 28.4484 6.96795 31.0583 9.71601 32.8945Z" fill="#DBC9F7" stroke="#8247E5" stroke-width="0.8"/>
<g filter="url(#filter0_dd)">
<path d="M23.9893 15.888C23.6472 15.685 23.2026 15.685 22.8263 15.888L20.1585 17.444L18.3457 18.4588L15.6778 20.0148C15.3358 20.2178 14.8911 20.2178 14.5149 20.0148L12.3942 18.797C12.0522 18.5941 11.8128 18.222 11.8128 17.8161V15.4144C11.8128 15.0085 12.018 14.6364 12.3942 14.4334L14.4807 13.2495C14.8227 13.0465 15.2674 13.0465 15.6436 13.2495L17.73 14.4334C18.0721 14.6364 18.3115 15.0085 18.3115 15.4144V16.9704L20.1242 15.9218V14.3657C20.1242 13.9598 19.919 13.5877 19.5428 13.3848L15.6778 11.1522C15.3358 10.9493 14.8911 10.9493 14.5149 11.1522L10.5815 13.3848C10.2052 13.5877 10 13.9598 10 14.3657V18.8647C10 19.2706 10.2052 19.6427 10.5815 19.8457L14.5149 22.0782C14.8569 22.2812 15.3016 22.2812 15.6778 22.0782L18.3457 20.556L20.1585 19.5074L22.8263 17.9852C23.1684 17.7822 23.613 17.7822 23.9893 17.9852L26.0757 19.1691C26.4177 19.3721 26.6571 19.7442 26.6571 20.1501V22.5518C26.6571 22.9577 26.4519 23.3298 26.0757 23.5328L23.9893 24.7505C23.6472 24.9535 23.2026 24.9535 22.8263 24.7505L20.7399 23.5666C20.3979 23.3636 20.1585 22.9915 20.1585 22.5856V21.0296L18.3457 22.0782V23.6343C18.3457 24.0402 18.5509 24.4123 18.9271 24.6152L22.8605 26.8478C23.2026 27.0507 23.6472 27.0507 24.0235 26.8478L27.9569 24.6152C28.2989 24.4123 28.5383 24.0402 28.5383 23.6343V19.1353C28.5383 18.7294 28.3331 18.3573 27.9569 18.1543L23.9893 15.888Z" fill="#DBC9F7"/>
<path d="M23.9893 15.888C23.6472 15.685 23.2026 15.685 22.8263 15.888L20.1585 17.444L18.3457 18.4588L15.6778 20.0148C15.3358 20.2178 14.8911 20.2178 14.5149 20.0148L12.3942 18.797C12.0522 18.5941 11.8128 18.222 11.8128 17.8161V15.4144C11.8128 15.0085 12.018 14.6364 12.3942 14.4334L14.4807 13.2495C14.8227 13.0465 15.2674 13.0465 15.6436 13.2495L17.73 14.4334C18.0721 14.6364 18.3115 15.0085 18.3115 15.4144V16.9704L20.1242 15.9218V14.3657C20.1242 13.9598 19.919 13.5877 19.5428 13.3848L15.6778 11.1522C15.3358 10.9493 14.8911 10.9493 14.5149 11.1522L10.5815 13.3848C10.2052 13.5877 10 13.9598 10 14.3657V18.8647C10 19.2706 10.2052 19.6427 10.5815 19.8457L14.5149 22.0782C14.8569 22.2812 15.3016 22.2812 15.6778 22.0782L18.3457 20.556L20.1585 19.5074L22.8263 17.9852C23.1684 17.7822 23.613 17.7822 23.9893 17.9852L26.0757 19.1691C26.4177 19.3721 26.6571 19.7442 26.6571 20.1501V22.5518C26.6571 22.9577 26.4519 23.3298 26.0757 23.5328L23.9893 24.7505C23.6472 24.9535 23.2026 24.9535 22.8263 24.7505L20.7399 23.5666C20.3979 23.3636 20.1585 22.9915 20.1585 22.5856V21.0296L18.3457 22.0782V23.6343C18.3457 24.0402 18.5509 24.4123 18.9271 24.6152L22.8605 26.8478C23.2026 27.0507 23.6472 27.0507 24.0235 26.8478L27.9569 24.6152C28.2989 24.4123 28.5383 24.0402 28.5383 23.6343V19.1353C28.5383 18.7294 28.3331 18.3573 27.9569 18.1543L23.9893 15.888Z" stroke="#8247E5" stroke-width="0.4"/>
</g>
</g>
<defs>
<filter id="filter0_dd" x="-18.2" y="-17.2" width="74.9383" height="72.4" filterUnits="userSpaceOnUse" color-interpolation-filters="sRGB">
<feFlood flood-opacity="0" result="BackgroundImageFix"/>
<feColorMatrix in="SourceAlpha" type="matrix" values="0 0 0 0 0 0 0 0 0 0 0 0 0 0 0 0 0 0 127 0" result="hardAlpha"/>
<feOffset/>
<feGaussianBlur stdDeviation="14"/>
<feColorMatrix type="matrix" values="0 0 0 0 0.391768 0 0 0 0 0.111085 0 0 0 0 0.862743 0 0 0 0.8 0"/>
<feBlend mode="normal" in2="BackgroundImageFix" result="effect1_dropShadow"/>
<feColorMatrix in="SourceAlpha" type="matrix" values="0 0 0 0 0 0 0 0 0 0 0 0 0 0 0 0 0 0 127 0" result="hardAlpha"/>
<feOffset/>
<feGaussianBlur stdDeviation="6.5"/>
<feColorMatrix type="matrix" values="0 0 0 0 0.736941 0 0 0 0 0.278432 0 0 0 0 0.898039 0 0 0 0.29 0"/>
<feBlend mode="normal" in2="effect1_dropShadow" result="effect2_dropShadow"/>
<feBlend mode="normal" in="SourceGraphic" in2="effect2_dropShadow" result="shape"/>
</filter>
<clipPath id="clip0">
<rect width="38" height="38" fill="white"/>
</clipPath>
</defs>
</svg>
