<svg width="40" height="40" viewBox="0 0 38 38" fill="none" xmlns="http://www.w3.org/2000/svg">
<path d="M12.8403 26.9804C13.1392 27.0571 13.43 27.1201 13.7164 27.1822C13.7487 27.1892 13.781 27.1961 13.8132 27.2031L13.8136 27.2032C14.1284 27.271 14.4494 27.3444 14.7528 27.4203L14.7528 27.4203L14.7549 27.4208C15.0429 27.4895 15.3219 27.594 15.5985 27.7136C15.866 27.8324 16.1186 27.981 16.3507 28.1535L16.3506 28.1535L16.355 28.1566C16.4518 28.2246 16.5435 28.3013 16.635 28.3836C16.3742 28.6034 16.1111 28.8211 15.8462 29.0373C15.8461 29.0374 15.8459 29.0375 15.8458 29.0376L15.3897 29.4066C15.2367 29.5262 15.1028 29.6292 14.9515 29.7289L14.9515 29.7289L14.9494 29.7303C14.6113 29.959 14.2434 30.1581 13.8593 30.3424C13.7479 30.2294 13.6346 30.1278 13.5187 30.0277L13.5169 30.0263C13.2935 29.8379 13.059 29.6705 12.8202 29.5174L12.8202 29.5174L12.8175 29.5157C12.5776 29.3671 12.3309 29.2284 12.075 29.1072C11.8205 28.9837 11.5603 28.8798 11.3036 28.7843L11.1341 29.1451C11.3673 29.2793 11.5921 29.4161 11.8041 29.5667L11.8058 29.5679C12.0185 29.7158 12.2209 29.8788 12.4162 30.0498C12.6076 30.2234 12.7874 30.4041 12.9492 30.5946C12.9805 30.6315 13.0116 30.6695 13.0423 30.7081C13.0075 30.7228 12.9728 30.7373 12.9379 30.7516C12.5109 30.9226 12.0827 31.0825 11.65 31.2442C11.3509 31.3559 11.0496 31.4684 10.745 31.586C10.6796 31.6097 10.6108 31.6388 10.5482 31.6652C10.5186 31.6777 10.4903 31.6897 10.4645 31.7002L10.4644 31.7001L10.4623 31.7011L10.3154 31.7627L10.3154 31.7626L10.3091 31.7655C10.2291 31.8024 10.1537 31.8511 10.0873 31.911C9.95376 32.0281 9.85806 32.1993 9.82564 32.3547C9.82558 32.355 9.82552 32.3553 9.82546 32.3556L9.76329 32.6437C9.73209 32.7757 9.70852 32.9167 9.68638 33.0491C9.67536 33.115 9.6647 33.1788 9.65362 33.2383L9.65362 33.2383L9.6534 33.2395C9.61809 33.436 9.58444 33.6357 9.55955 33.8384L9.93881 33.9484C10.0264 33.7635 10.1057 33.578 10.182 33.3955L10.1825 33.3944C10.2059 33.3373 10.2318 33.2774 10.2583 33.2157C10.3104 33.0948 10.3652 32.9674 10.4104 32.8433L10.5146 32.5718C10.5146 32.5717 10.5146 32.5716 10.5147 32.5715C10.5222 32.5522 10.5288 32.5431 10.5333 32.5378C10.538 32.5323 10.5453 32.5254 10.5606 32.5149C10.5679 32.5107 10.5766 32.507 10.5864 32.5043L10.7184 32.4718L10.7184 32.4718L10.7204 32.4713C10.7493 32.4639 10.7811 32.4562 10.8144 32.4481C10.8781 32.4326 10.9472 32.4157 11.011 32.3975C11.778 32.1934 12.547 31.9617 13.3035 31.6753L13.3042 31.6751C14.0548 31.3879 14.8147 31.0666 15.532 30.6085C15.7088 30.4999 15.8848 30.3666 16.0372 30.2512L16.0549 30.2378L16.0549 30.2378L16.0577 30.2356L16.5245 29.8687L16.5252 29.8682C16.8363 29.6216 17.1462 29.3722 17.4538 29.1188C18.0759 28.6126 18.6655 28.0687 19.2442 27.5201L19.1066 27.375L19.2442 27.5201C19.8268 26.9678 20.3849 26.3881 20.9137 25.7814L20.9138 25.7813C21.1752 25.481 21.4402 25.1719 21.6892 24.8502C21.9408 24.5324 22.1836 24.2032 22.403 23.8559L22.4033 23.8554C22.8354 23.1674 23.2132 22.4054 23.3564 21.5619L22.9918 21.4191C22.4527 22.2445 21.8913 23.037 21.288 23.7925C21.2318 23.7484 21.1767 23.701 21.1228 23.6511C20.9796 23.5155 20.8443 23.3697 20.7214 23.2132C20.4759 22.8971 20.2759 22.5373 20.1039 22.1507L20.1039 22.1507L20.1029 22.1485C20.0162 21.9599 19.9443 21.7613 19.8709 21.5517C19.861 21.5233 19.851 21.4948 19.841 21.466C19.7779 21.2848 19.712 21.0957 19.6354 20.908C19.5521 20.6959 19.4576 20.4669 19.3231 20.2519L12.89 26.7867M12.8403 26.9804L12.89 26.7867M12.8403 26.9804C12.8403 26.9804 12.8404 26.9805 12.8404 26.9805L12.89 26.7867M12.8403 26.9804C12.5035 26.8943 12.1185 26.7476 11.8155 26.4937M12.89 26.7867C12.5664 26.7039 12.2134 26.5667 11.9429 26.3395M11.8155 26.4937C11.816 26.4941 11.8164 26.4944 11.8168 26.4947L11.9429 26.3395M11.8155 26.4937C11.7132 26.4104 11.6164 26.3153 11.533 26.2332C11.4995 26.2003 11.4682 26.1695 11.4395 26.1423L11.5768 25.9969M11.8155 26.4937C11.8151 26.4933 11.8147 26.493 11.8143 26.4926L11.9429 26.3395M11.9429 26.3395L11.5768 25.9969M11.5768 25.9969L11.4399 26.1427C11.3286 26.0382 11.2106 25.9385 11.0876 25.8424L11.0843 25.8398L11.0843 25.8398C10.8442 25.6442 10.5821 25.4712 10.3033 25.3155L10.4553 24.9485C10.7934 25.0444 11.1104 25.1937 11.4095 25.3577L11.4143 25.3603L11.4142 25.3604C11.5627 25.4472 11.7091 25.5404 11.8515 25.6421L11.8522 25.6425C11.9037 25.6797 11.9497 25.7141 11.9927 25.7462C12.0775 25.8097 12.1504 25.8643 12.2313 25.9134L12.2339 25.915L12.2339 25.915C12.4621 26.0584 12.713 26.1341 13.0139 26.1831L13.0178 26.1837L13.0178 26.1838C13.1938 26.216 13.3635 26.2402 13.5387 26.2652C13.6375 26.2793 13.7381 26.2936 13.8426 26.3098C13.8632 26.3806 13.8861 26.4521 13.9121 26.5234C13.7811 26.502 13.6494 26.4831 13.5186 26.4644C13.3368 26.4383 13.1566 26.4125 12.9818 26.3805C12.6661 26.329 12.3865 26.2471 12.1275 26.0843C12.0384 26.0302 11.9531 25.9664 11.8634 25.8994C11.8219 25.8684 11.7795 25.8367 11.7353 25.8049C11.6343 25.7328 11.5309 25.6648 11.4257 25.6003C11.3958 25.5761 11.3657 25.5521 11.3354 25.5284C11.331 25.5248 11.3266 25.5213 11.3223 25.5178C11.3221 25.5177 11.322 25.5175 11.3219 25.5174C11.0651 25.3099 10.7882 25.1281 10.4982 24.9663L10.4007 25.1409L10.3461 25.3333C10.6377 25.416 10.9193 25.5462 11.1993 25.6987C11.1994 25.6987 11.1995 25.6988 11.1996 25.6988C11.2047 25.7016 11.2097 25.7044 11.2148 25.7071C11.2467 25.7258 11.2784 25.7447 11.3099 25.7639C11.4018 25.8389 11.491 25.9164 11.5768 25.9969ZM16.7888 28.253L16.7735 28.2662L16.7477 28.2884L16.7783 28.3244L16.8199 28.2814M16.7888 28.253L16.7474 28.2886L16.7473 28.2887L16.778 28.3247L16.6808 28.4251C16.6814 28.4257 16.682 28.4263 16.6826 28.4269C16.6832 28.4274 16.6839 28.428 16.6845 28.4286L16.779 28.3259L16.877 28.441M16.7888 28.253C16.7992 28.2625 16.8096 28.2719 16.8199 28.2814M16.7888 28.253L16.7787 28.5241C16.8115 28.4964 16.8443 28.4687 16.877 28.441M16.8199 28.2814L16.7793 28.3256L16.877 28.441M16.8199 28.2814C16.8568 28.3172 16.8944 28.3556 16.9313 28.3943L16.877 28.441M12.3465 29.4712C12.2454 29.3916 12.1417 29.3143 12.0349 29.24M12.3465 29.4712L12.0175 29.2278C12.0233 29.2318 12.0291 29.2359 12.0349 29.24M12.3465 29.4712C12.2321 29.4082 12.1164 29.3484 11.9989 29.2925L12.0357 29.2406C12.0354 29.2404 12.0352 29.2402 12.0349 29.24M12.0349 29.24C12.0346 29.2398 12.0343 29.2396 12.034 29.2394L11.9976 29.2919" fill="#BFF5E1" stroke="#20DD99" stroke-width="0.4"/>
<path d="M23.1912 25.02C23.0173 25.25 22.8339 25.4726 22.6548 25.6982C22.2947 26.1485 21.9314 26.5963 21.5629 27.0425C21.1982 27.4925 20.8206 27.9323 20.4641 28.4028C20.9499 28.0691 21.4041 27.693 21.8255 27.284C22.2546 26.8818 22.6429 26.4398 23.0171 25.9869C23.2015 25.7583 23.3766 25.5225 23.5494 25.285C23.7141 25.0417 23.8829 24.8014 24.0314 24.5473C24.3354 24.0454 24.6105 23.5221 24.8017 22.9631L23.7266 24.3393C23.547 24.5659 23.3739 24.7966 23.1912 25.02Z" fill="#333333"/>
<path d="M15.001 32.8097L14.6641 32.9873L14.322 33.1547C13.8659 33.3775 13.4048 33.5916 12.9342 33.7903C12.4658 33.9971 11.9863 34.1771 11.5054 34.3926C12.0292 34.3633 12.5505 34.2763 13.0546 34.1299C13.5637 33.9965 14.0513 33.7943 14.5276 33.5719C15.0004 33.3413 15.4529 33.0689 15.8739 32.7541C16.2938 32.4401 16.6912 32.0875 17.0063 31.6652C16.5601 31.9412 16.1183 32.1978 15.6731 32.4477C15.4486 32.569 15.2283 32.696 15.001 32.8097Z" fill="#333333"/>
<path d="M3.20312 27.9976C3.0492 27.5104 2.885 27.0389 2.66754 26.5438C2.60017 26.8112 2.60743 27.0824 2.63103 27.347C2.65887 27.6118 2.71576 27.8712 2.79302 28.1237C2.87007 28.3763 2.97214 28.6206 3.09398 28.8552C3.21845 29.0887 3.36147 29.3135 3.54745 29.5152C3.52668 29.2414 3.46939 28.9876 3.41049 28.7361C3.34957 28.4854 3.27876 28.2405 3.20312 27.9976Z" fill="#333333"/>
<path d="M33.0185 7.38308C32.8404 7.5874 32.6744 7.79935 32.5183 8.01773C32.3605 8.23491 32.2179 8.46274 32.0819 8.69558C31.946 8.92883 31.8213 9.16891 31.7192 9.43391C31.9603 9.28182 32.1632 9.09317 32.3504 8.89388C32.5376 8.69438 32.7093 8.48343 32.864 8.26063C33.0201 8.03883 33.1613 7.80718 33.2882 7.5661C33.4149 7.32522 33.5289 7.07589 33.6059 6.80347C33.3849 6.98107 33.1964 7.17856 33.0185 7.38308Z" fill="#333333"/>
<mask id="path-6-outside-1" maskUnits="userSpaceOnUse" x="0" y="0.000610352" width="38" height="38" fill="black">
<rect fill="white" y="0.000610352" width="38" height="38"/>
<path d="M36.9865 4.49813C36.9549 4.07623 36.8708 3.67 36.7669 3.27201C36.684 2.96101 36.5892 2.66126 36.4758 2.3591C36.4683 2.31832 36.4609 2.27754 36.4482 2.23796C36.4312 2.18592 36.4106 2.13469 36.385 2.08607C36.36 2.03826 36.3386 2.00752 36.3148 1.96774C36.129 1.66377 35.8418 1.4253 35.5346 1.27181C35.2239 1.12093 34.8961 1.04479 34.5727 1.01385L34.4511 1.00461L34.3902 1.00139C34.3666 1.00079 34.3349 0.999985 34.3077 1.00139C34.1945 1.00621 34.0826 1.03052 33.9791 1.07352C33.875 1.11551 33.7802 1.17678 33.6971 1.25031C33.6563 1.28788 33.6172 1.32746 33.5833 1.37126C33.5656 1.39235 33.5502 1.41586 33.5343 1.43776L33.5038 1.48336L33.0223 2.21606L31.1045 5.15228C30.7882 5.64751 30.4649 6.12264 30.1341 6.59698L29.6148 7.29311C29.4355 7.52074 29.2491 7.74294 29.0666 7.96815C27.5807 9.75098 25.8985 11.3791 24.0929 12.8471C23.6447 13.2105 23.1775 13.5818 22.7262 13.9101C22.2611 14.2157 21.7469 14.4901 21.2341 14.7392C20.2021 15.2391 19.112 15.6216 17.9983 15.9039C17.4462 16.0433 16.867 16.1562 16.2921 16.2876C15.718 16.416 15.1449 16.552 14.5753 16.69C13.4323 16.9679 12.3166 17.2435 11.1767 17.3301C10.6042 17.3759 10.0279 17.4024 9.4685 17.3739C8.90045 17.3542 8.34834 17.2439 7.70686 17.2186C7.38915 17.2089 7.02666 17.2469 6.7039 17.3882C6.38478 17.5264 6.10358 17.7221 5.87463 17.9398C5.63881 18.155 5.43689 18.3875 5.24485 18.6229C5.12523 18.7696 5.01509 18.9257 4.9106 19.0844C4.64897 19.403 4.39298 19.7237 4.14285 20.0511C3.79609 20.509 3.4574 20.9727 3.14695 21.4713C3.07009 21.5949 2.99465 21.7293 2.92465 21.8559L2.82883 22.0134L2.71264 22.1799C2.55147 22.4061 2.37617 22.6366 2.21439 22.8817C1.88639 23.3671 1.60237 23.8969 1.40125 24.4572C1.29252 24.735 1.22474 25.0255 1.15192 25.3136C1.1025 25.6063 1.04178 25.8981 1.02867 26.1938C0.968759 26.7842 1.01213 27.3733 1.07285 27.9555C1.22696 29.1149 1.55839 30.24 2.05906 31.2992C3.05214 33.4233 4.82426 35.1475 6.91975 36.1773C7.44624 36.4339 7.99028 36.6539 8.56822 36.8052C9.14998 36.9574 9.74768 37.0085 10.3363 37.0002C10.9263 36.9942 11.5111 36.9203 12.084 36.8044C12.3725 36.7535 12.6531 36.6716 12.9361 36.6006C13.2135 36.5116 13.4957 36.4355 13.7664 36.3288C15.9623 35.5356 17.8928 34.188 19.6048 32.6683C21.3206 31.1419 22.8679 29.443 24.263 27.6278C24.9549 26.7153 25.6203 25.7819 26.1894 24.7752C26.474 24.2705 26.733 23.7614 26.9582 23.2218C27.1784 22.6842 27.3578 22.1084 27.4229 21.5202C27.4968 20.9325 27.4887 20.3601 27.5034 19.7948C27.5089 19.5121 27.5171 19.2304 27.528 18.949C27.529 18.6446 27.5153 18.3272 27.4183 18.0298C27.3931 17.94 27.3618 17.8528 27.3273 17.7673C28.4576 16.7222 29.5606 15.6546 30.6382 14.5568C31.7563 13.4163 32.8474 12.2466 33.8703 11.01C34.3789 10.3895 34.8693 9.75158 35.3217 9.08257C35.774 8.41416 36.1865 7.70999 36.5075 6.95178C36.667 6.57267 36.8002 6.17769 36.8891 5.76865C36.9313 5.56132 36.9716 5.36343 36.9872 5.14223C37.0083 4.92284 36.9999 4.70948 36.9865 4.49813ZM27.0094 19.7839C26.9935 20.3525 26.9983 20.9184 26.9281 21.4581C26.7996 22.5359 26.2907 23.5503 25.7468 24.5269C25.1947 25.4979 24.5355 26.4192 23.8519 27.315C22.4723 29.1005 20.9382 30.775 19.2498 32.2687C17.5644 33.7574 15.6833 35.0563 13.578 35.8099C13.3182 35.9119 13.0491 35.9829 12.7842 36.0676C12.5147 36.1341 12.2472 36.2119 11.9741 36.2589C11.4308 36.3674 10.8791 36.4355 10.329 36.4393C9.95969 36.4435 9.59175 36.4194 9.23168 36.3634C9.26516 36.2177 9.28917 36.0692 9.30773 35.9192C9.33778 35.6624 9.35896 35.4028 9.3513 35.1344C9.19476 35.353 9.06727 35.5802 8.94846 35.8103C8.87261 35.9595 8.80322 36.1106 8.74654 36.2657C8.73443 36.2627 8.72193 36.2607 8.70982 36.2577C8.18535 36.1193 7.66833 35.9099 7.17291 35.6664C6.06102 35.1157 5.04838 34.3604 4.20901 33.4496C4.25117 33.4191 4.29595 33.3908 4.34134 33.3631C4.46379 33.2907 4.60055 33.2355 4.74579 33.2003C5.03789 33.1188 5.3443 33.1135 5.68239 33.1272C6.02168 33.1344 6.35876 33.17 6.70975 33.1678C6.88445 33.1658 7.06579 33.1618 7.2419 33.1141C7.41719 33.0641 7.57534 32.9755 7.70263 32.86C7.54549 32.9317 7.3831 32.9795 7.22092 32.9827C7.05893 32.9882 6.89635 32.9631 6.73215 32.9305C6.40435 32.8598 6.06667 32.7897 5.72717 32.7254C5.64023 32.7085 5.54965 32.6938 5.45706 32.6826C5.44819 32.5438 5.42519 32.4064 5.38384 32.2752C5.32494 32.0783 5.24183 31.8912 5.14903 31.7136C5.05806 31.5348 4.94933 31.3671 4.83092 31.209C4.71352 31.0505 4.58159 30.9028 4.43696 30.7718C4.61003 31.1194 4.73813 31.4782 4.82931 31.8358C4.87732 32.014 4.90172 32.1956 4.92351 32.3724C4.93783 32.4706 4.94691 32.5677 4.95619 32.6643C4.84686 32.6701 4.73732 32.6814 4.62859 32.7045C4.44099 32.7431 4.2548 32.8086 4.07971 32.903C4.00406 32.9464 3.93144 32.9956 3.86205 33.0511C3.35694 32.4397 2.92606 31.7685 2.59201 31.0482C2.12382 30.0534 1.80832 28.9717 1.66692 27.8806C1.61225 27.3351 1.57271 26.7859 1.63 26.2452C1.64211 25.9728 1.6996 25.7078 1.74438 25.441C1.81216 25.1796 1.87308 24.9158 1.97313 24.6645C2.1573 24.1564 2.4143 23.6777 2.72313 23.2228C2.87483 22.9938 3.04468 22.772 3.21392 22.5359L3.34201 22.3531L3.46769 22.1468C3.53567 22.025 3.59941 21.9119 3.67284 21.7944C3.73174 21.702 3.7969 21.6112 3.85802 21.5194C3.74626 21.9515 3.66618 22.3915 3.61777 22.8351C3.48423 24.0369 3.59235 25.2684 3.95484 26.4236C4.13377 27.0016 4.37967 27.5585 4.68386 28.0787C4.98564 28.6 5.33684 29.0928 5.74371 29.5326C6.14695 29.9746 6.58428 30.3836 7.06176 30.7364C7.52955 31.1013 8.0387 31.4069 8.55752 31.6829C7.65119 30.9343 6.79186 30.149 6.09471 29.2403C5.47401 28.4405 4.96688 27.5599 4.63767 26.6165C4.70868 26.5651 4.76939 26.5082 4.8285 26.4511C4.94469 26.335 5.04232 26.2105 5.1331 26.0835C5.23517 25.936 5.32191 25.7829 5.40078 25.6274C5.65556 25.6276 5.9303 25.6638 6.17842 25.7387C6.48241 25.8271 6.76422 25.9808 6.99701 26.197C7.26288 26.4397 7.55315 26.6494 7.86643 26.811C8.17768 26.9751 8.50669 27.1015 8.84518 27.1782C8.53009 27.0358 8.23578 26.8572 7.96224 26.6581C7.68831 26.4596 7.43918 26.2328 7.22717 25.9808C6.98067 25.7034 6.66336 25.4804 6.31317 25.3508C6.08119 25.2634 5.84659 25.2096 5.6019 25.1853C5.81714 24.6583 5.92284 24.1146 6.04448 23.5885C6.17297 23.0297 6.27666 22.4696 6.45014 21.9326C6.61898 21.3982 6.83946 20.8646 7.27276 20.475C7.02262 20.6221 6.81485 20.8383 6.63976 21.0745C6.47031 21.3154 6.33375 21.5768 6.2115 21.8432C5.98356 22.382 5.80826 22.9373 5.65132 23.489C5.48974 24.0389 5.33381 24.5847 5.10183 25.076C4.98504 25.3247 4.84928 25.5615 4.69657 25.7759C4.62416 25.8741 4.5475 25.9674 4.4658 26.0493C3.90643 23.9419 4.25077 21.6136 5.31929 19.7379C5.46029 19.4972 5.6134 19.2752 5.78869 19.0631C5.96722 18.8467 6.1522 18.6384 6.34988 18.4606C6.54515 18.2757 6.75696 18.1395 6.97381 18.0449C7.19066 17.9511 7.42647 17.9258 7.69214 17.9334C8.22267 17.9499 8.82823 18.0616 9.43279 18.0825C9.65146 18.0933 9.87174 18.0937 10.0908 18.0903C10.0672 18.4427 10.088 18.7905 10.1747 19.1441C10.2336 19.3857 10.3268 19.6262 10.4713 19.8432L10.5895 19.9995C10.6308 20.0499 10.6808 20.0943 10.7264 20.1413C10.7375 20.152 10.7486 20.1602 10.7597 20.1703C10.579 20.2991 10.4093 20.4355 10.2433 20.5823C10.0103 20.7971 9.7848 21.0233 9.59881 21.2845C9.41444 21.5443 9.25609 21.8153 9.13041 22.1036C8.99788 22.3893 8.93737 22.6918 8.79455 22.9645C8.98618 22.7196 9.10197 22.4254 9.26294 22.1721C9.42069 21.9159 9.61071 21.6777 9.81506 21.4627C10.0202 21.2501 10.2488 21.0579 10.49 20.8827C10.6984 20.73 10.9199 20.5868 11.139 20.458C11.4893 20.6954 11.8617 20.8793 12.2313 21.0591L12.8641 21.3331L13.1818 21.4635C13.2851 21.5107 13.3966 21.5469 13.4805 21.6238C13.419 21.5228 13.3149 21.4569 13.225 21.3866C13.1314 21.318 13.0386 21.2481 12.9427 21.1848L12.3731 20.8023C11.9906 20.56 11.6235 20.2946 11.2906 20.0206C11.2096 19.9527 11.1256 19.8776 11.0631 19.807C11.0339 19.7705 11.0004 19.7383 10.9733 19.6998L10.8965 19.5808C10.8063 19.4127 10.7404 19.2256 10.6946 19.0277C10.6296 18.726 10.6155 18.3935 10.6304 18.0718C10.8325 18.0614 11.0349 18.0489 11.2374 18.0312C11.8349 17.9798 12.4326 17.888 13.0164 17.7667C13.5197 17.662 14.0125 17.5408 14.5033 17.4207C14.6225 17.5929 14.7348 17.7805 14.8365 17.9627C14.9071 18.0917 14.9688 18.2243 15.0217 18.3587C15.0802 18.4933 15.1228 18.6255 15.1589 18.7698C15.2311 19.0631 15.2751 19.3626 15.3243 19.6722C15.3693 19.9788 15.4243 20.3133 15.5803 20.5982C15.545 20.2816 15.5863 19.9772 15.6 19.6606C15.6117 19.482 15.6137 19.3004 15.6073 19.1183L16.2927 19.1708C16.5933 19.1981 16.8939 19.2361 17.1979 19.2855C16.9245 19.1445 16.6355 19.0297 16.3397 18.9383C16.0916 18.8596 15.8417 18.7965 15.5819 18.7583C15.5797 18.738 15.5784 18.7175 15.576 18.6972C15.5405 18.3645 15.4441 18.0359 15.3162 17.7305C15.2521 17.5728 15.1788 17.4239 15.0957 17.2785C15.3196 17.224 15.5437 17.1718 15.7677 17.1187C16.2812 17.1051 16.792 17.1059 17.2949 17.1503C17.988 17.1955 18.6396 17.36 19.3347 17.5527C19.6833 17.6439 20.0454 17.7245 20.4101 17.7745C20.6011 17.8024 20.749 17.8205 20.9144 17.8561C20.9937 17.8774 21.0748 17.8944 21.1532 17.9185L21.386 18.0011C21.694 18.1221 21.9692 18.3093 22.2344 18.5132C22.5001 18.7195 22.7565 18.945 23.0206 19.2053C22.959 18.8337 22.7569 18.5014 22.5031 18.2243C22.388 18.0988 22.257 17.9887 22.1183 17.8884C22.4089 17.7245 22.6978 17.5571 22.9863 17.3888C23.3722 17.1445 23.7641 16.9086 24.1393 16.6476C24.3904 16.4767 24.6394 16.3025 24.8861 16.1249C25.2476 16.2914 25.5907 16.4931 25.8991 16.7332C25.9003 16.7686 25.9013 16.8067 25.9017 16.8399C25.8995 16.9146 25.8949 16.9896 25.8856 17.0657C25.8715 17.2176 25.8434 17.3709 25.8096 17.5238C25.7408 17.8299 25.6375 18.1347 25.512 18.4341C25.393 18.7366 25.2387 19.0275 25.0874 19.3243L24.8415 19.762C24.757 19.9077 24.667 20.0503 24.5857 20.202C24.7156 20.0911 24.8367 19.9712 24.9631 19.8545C25.0813 19.7311 25.1963 19.6035 25.3097 19.4741C25.5255 19.2067 25.7301 18.9259 25.8967 18.6183C26.068 18.3139 26.208 17.9864 26.2929 17.6373C26.3149 17.5505 26.3292 17.4607 26.3471 17.3725C26.3548 17.3014 26.3635 17.2306 26.3691 17.1591C26.6362 17.4536 26.8438 17.7926 26.9465 18.1648C27.0271 18.4102 27.035 18.6677 27.0352 18.9289C27.0247 19.2136 27.0154 19.4993 27.0094 19.7839ZM36.3106 5.64509C36.2343 6.01395 36.1165 6.37699 35.9713 6.73199C35.3792 8.15479 34.4374 9.4446 33.4572 10.6761C32.4621 11.9039 31.3906 13.0765 30.2904 14.2215C29.2608 15.2917 28.2024 16.3392 27.1238 17.3594C26.9311 17.0396 26.6816 16.7567 26.4081 16.519C26.0766 16.2311 25.7103 15.9967 25.326 15.8018C25.6724 15.5489 26.0056 15.2781 26.3405 15.0103C27.0471 14.4296 27.7277 13.8165 28.3662 13.1615C28.6837 12.8322 28.9939 12.4963 29.2858 12.1443C29.5769 11.7924 29.8609 11.4325 30.1026 11.045C29.4559 11.6871 28.7747 12.2808 28.0876 12.8656C27.3987 13.4484 26.6919 14.0075 25.979 14.5578C25.2635 15.1055 24.5329 15.6327 23.7972 16.1542L22.6869 16.9283C22.3527 17.1623 22.0111 17.3857 21.6775 17.6222C21.6436 17.6051 21.6105 17.586 21.576 17.57L21.3102 17.4613C21.2202 17.4287 21.1276 17.404 21.036 17.3755C20.8559 17.3275 20.6507 17.2899 20.4902 17.2626C20.1503 17.2063 19.818 17.123 19.4801 17.0247C18.9633 16.8702 18.408 16.7199 17.845 16.6424C17.9521 16.6171 18.0594 16.5918 18.1673 16.5642C19.3258 16.2727 20.4516 15.852 21.521 15.3166C22.0577 15.0464 22.5671 14.7461 23.0714 14.3945C23.5551 14.0188 23.9922 13.6461 24.4415 13.2588C25.3262 12.4823 26.1942 11.6885 27.0288 10.8594C27.8635 10.0308 28.6819 9.18402 29.4464 8.28638C29.6346 8.05956 29.8266 7.83596 30.012 7.60632L30.5607 6.91119C30.9129 6.43666 31.2611 5.95469 31.5881 5.47392L33.572 2.5815L34.0658 1.85704L34.0963 1.81144C34.1021 1.80421 34.1062 1.79657 34.1124 1.78994C34.1229 1.77568 34.136 1.76362 34.1485 1.75117C34.1754 1.72826 34.2048 1.70837 34.2367 1.69592C34.2683 1.68246 34.3016 1.67563 34.3349 1.67402H34.3621L34.411 1.67663L34.5086 1.68406C35.0282 1.73228 35.5124 1.93319 35.7591 2.32073C35.773 2.34343 35.7936 2.37276 35.8026 2.38964C35.8119 2.40531 35.8186 2.42219 35.8248 2.43926C35.8367 2.47362 35.8428 2.50998 35.8426 2.54635C35.842 2.58271 35.8361 2.61927 35.8234 2.65343L35.8131 2.67894L35.7905 2.72595L35.7431 2.8242C35.615 3.08517 35.4906 3.34795 35.375 3.61516C35.1436 4.15097 34.9475 4.69662 34.7914 5.28327C35.2534 4.87764 35.5935 4.38321 35.8991 3.88176C35.9927 3.72525 36.08 3.56553 36.1651 3.40481C36.2708 3.78351 36.3489 4.16825 36.3848 4.54695C36.4205 4.91903 36.3903 5.2688 36.3106 5.64509Z"/>
</mask>
<path d="M36.9865 4.49813C36.9549 4.07623 36.8708 3.67 36.7669 3.27201C36.684 2.96101 36.5892 2.66126 36.4758 2.3591C36.4683 2.31832 36.4609 2.27754 36.4482 2.23796C36.4312 2.18592 36.4106 2.13469 36.385 2.08607C36.36 2.03826 36.3386 2.00752 36.3148 1.96774C36.129 1.66377 35.8418 1.4253 35.5346 1.27181C35.2239 1.12093 34.8961 1.04479 34.5727 1.01385L34.4511 1.00461L34.3902 1.00139C34.3666 1.00079 34.3349 0.999985 34.3077 1.00139C34.1945 1.00621 34.0826 1.03052 33.9791 1.07352C33.875 1.11551 33.7802 1.17678 33.6971 1.25031C33.6563 1.28788 33.6172 1.32746 33.5833 1.37126C33.5656 1.39235 33.5502 1.41586 33.5343 1.43776L33.5038 1.48336L33.0223 2.21606L31.1045 5.15228C30.7882 5.64751 30.4649 6.12264 30.1341 6.59698L29.6148 7.29311C29.4355 7.52074 29.2491 7.74294 29.0666 7.96815C27.5807 9.75098 25.8985 11.3791 24.0929 12.8471C23.6447 13.2105 23.1775 13.5818 22.7262 13.9101C22.2611 14.2157 21.7469 14.4901 21.2341 14.7392C20.2021 15.2391 19.112 15.6216 17.9983 15.9039C17.4462 16.0433 16.867 16.1562 16.2921 16.2876C15.718 16.416 15.1449 16.552 14.5753 16.69C13.4323 16.9679 12.3166 17.2435 11.1767 17.3301C10.6042 17.3759 10.0279 17.4024 9.4685 17.3739C8.90045 17.3542 8.34834 17.2439 7.70686 17.2186C7.38915 17.2089 7.02666 17.2469 6.7039 17.3882C6.38478 17.5264 6.10358 17.7221 5.87463 17.9398C5.63881 18.155 5.43689 18.3875 5.24485 18.6229C5.12523 18.7696 5.01509 18.9257 4.9106 19.0844C4.64897 19.403 4.39298 19.7237 4.14285 20.0511C3.79609 20.509 3.4574 20.9727 3.14695 21.4713C3.07009 21.5949 2.99465 21.7293 2.92465 21.8559L2.82883 22.0134L2.71264 22.1799C2.55147 22.4061 2.37617 22.6366 2.21439 22.8817C1.88639 23.3671 1.60237 23.8969 1.40125 24.4572C1.29252 24.735 1.22474 25.0255 1.15192 25.3136C1.1025 25.6063 1.04178 25.8981 1.02867 26.1938C0.968759 26.7842 1.01213 27.3733 1.07285 27.9555C1.22696 29.1149 1.55839 30.24 2.05906 31.2992C3.05214 33.4233 4.82426 35.1475 6.91975 36.1773C7.44624 36.4339 7.99028 36.6539 8.56822 36.8052C9.14998 36.9574 9.74768 37.0085 10.3363 37.0002C10.9263 36.9942 11.5111 36.9203 12.084 36.8044C12.3725 36.7535 12.6531 36.6716 12.9361 36.6006C13.2135 36.5116 13.4957 36.4355 13.7664 36.3288C15.9623 35.5356 17.8928 34.188 19.6048 32.6683C21.3206 31.1419 22.8679 29.443 24.263 27.6278C24.9549 26.7153 25.6203 25.7819 26.1894 24.7752C26.474 24.2705 26.733 23.7614 26.9582 23.2218C27.1784 22.6842 27.3578 22.1084 27.4229 21.5202C27.4968 20.9325 27.4887 20.3601 27.5034 19.7948C27.5089 19.5121 27.5171 19.2304 27.528 18.949C27.529 18.6446 27.5153 18.3272 27.4183 18.0298C27.3931 17.94 27.3618 17.8528 27.3273 17.7673C28.4576 16.7222 29.5606 15.6546 30.6382 14.5568C31.7563 13.4163 32.8474 12.2466 33.8703 11.01C34.3789 10.3895 34.8693 9.75158 35.3217 9.08257C35.774 8.41416 36.1865 7.70999 36.5075 6.95178C36.667 6.57267 36.8002 6.17769 36.8891 5.76865C36.9313 5.56132 36.9716 5.36343 36.9872 5.14223C37.0083 4.92284 36.9999 4.70948 36.9865 4.49813ZM27.0094 19.7839C26.9935 20.3525 26.9983 20.9184 26.9281 21.4581C26.7996 22.5359 26.2907 23.5503 25.7468 24.5269C25.1947 25.4979 24.5355 26.4192 23.8519 27.315C22.4723 29.1005 20.9382 30.775 19.2498 32.2687C17.5644 33.7574 15.6833 35.0563 13.578 35.8099C13.3182 35.9119 13.0491 35.9829 12.7842 36.0676C12.5147 36.1341 12.2472 36.2119 11.9741 36.2589C11.4308 36.3674 10.8791 36.4355 10.329 36.4393C9.95969 36.4435 9.59175 36.4194 9.23168 36.3634C9.26516 36.2177 9.28917 36.0692 9.30773 35.9192C9.33778 35.6624 9.35896 35.4028 9.3513 35.1344C9.19476 35.353 9.06727 35.5802 8.94846 35.8103C8.87261 35.9595 8.80322 36.1106 8.74654 36.2657C8.73443 36.2627 8.72193 36.2607 8.70982 36.2577C8.18535 36.1193 7.66833 35.9099 7.17291 35.6664C6.06102 35.1157 5.04838 34.3604 4.20901 33.4496C4.25117 33.4191 4.29595 33.3908 4.34134 33.3631C4.46379 33.2907 4.60055 33.2355 4.74579 33.2003C5.03789 33.1188 5.3443 33.1135 5.68239 33.1272C6.02168 33.1344 6.35876 33.17 6.70975 33.1678C6.88445 33.1658 7.06579 33.1618 7.2419 33.1141C7.41719 33.0641 7.57534 32.9755 7.70263 32.86C7.54549 32.9317 7.3831 32.9795 7.22092 32.9827C7.05893 32.9882 6.89635 32.9631 6.73215 32.9305C6.40435 32.8598 6.06667 32.7897 5.72717 32.7254C5.64023 32.7085 5.54965 32.6938 5.45706 32.6826C5.44819 32.5438 5.42519 32.4064 5.38384 32.2752C5.32494 32.0783 5.24183 31.8912 5.14903 31.7136C5.05806 31.5348 4.94933 31.3671 4.83092 31.209C4.71352 31.0505 4.58159 30.9028 4.43696 30.7718C4.61003 31.1194 4.73813 31.4782 4.82931 31.8358C4.87732 32.014 4.90172 32.1956 4.92351 32.3724C4.93783 32.4706 4.94691 32.5677 4.95619 32.6643C4.84686 32.6701 4.73732 32.6814 4.62859 32.7045C4.44099 32.7431 4.2548 32.8086 4.07971 32.903C4.00406 32.9464 3.93144 32.9956 3.86205 33.0511C3.35694 32.4397 2.92606 31.7685 2.59201 31.0482C2.12382 30.0534 1.80832 28.9717 1.66692 27.8806C1.61225 27.3351 1.57271 26.7859 1.63 26.2452C1.64211 25.9728 1.6996 25.7078 1.74438 25.441C1.81216 25.1796 1.87308 24.9158 1.97313 24.6645C2.1573 24.1564 2.4143 23.6777 2.72313 23.2228C2.87483 22.9938 3.04468 22.772 3.21392 22.5359L3.34201 22.3531L3.46769 22.1468C3.53567 22.025 3.59941 21.9119 3.67284 21.7944C3.73174 21.702 3.7969 21.6112 3.85802 21.5194C3.74626 21.9515 3.66618 22.3915 3.61777 22.8351C3.48423 24.0369 3.59235 25.2684 3.95484 26.4236C4.13377 27.0016 4.37967 27.5585 4.68386 28.0787C4.98564 28.6 5.33684 29.0928 5.74371 29.5326C6.14695 29.9746 6.58428 30.3836 7.06176 30.7364C7.52955 31.1013 8.0387 31.4069 8.55752 31.6829C7.65119 30.9343 6.79186 30.149 6.09471 29.2403C5.47401 28.4405 4.96688 27.5599 4.63767 26.6165C4.70868 26.5651 4.76939 26.5082 4.8285 26.4511C4.94469 26.335 5.04232 26.2105 5.1331 26.0835C5.23517 25.936 5.32191 25.7829 5.40078 25.6274C5.65556 25.6276 5.9303 25.6638 6.17842 25.7387C6.48241 25.8271 6.76422 25.9808 6.99701 26.197C7.26288 26.4397 7.55315 26.6494 7.86643 26.811C8.17768 26.9751 8.50669 27.1015 8.84518 27.1782C8.53009 27.0358 8.23578 26.8572 7.96224 26.6581C7.68831 26.4596 7.43918 26.2328 7.22717 25.9808C6.98067 25.7034 6.66336 25.4804 6.31317 25.3508C6.08119 25.2634 5.84659 25.2096 5.6019 25.1853C5.81714 24.6583 5.92284 24.1146 6.04448 23.5885C6.17297 23.0297 6.27666 22.4696 6.45014 21.9326C6.61898 21.3982 6.83946 20.8646 7.27276 20.475C7.02262 20.6221 6.81485 20.8383 6.63976 21.0745C6.47031 21.3154 6.33375 21.5768 6.2115 21.8432C5.98356 22.382 5.80826 22.9373 5.65132 23.489C5.48974 24.0389 5.33381 24.5847 5.10183 25.076C4.98504 25.3247 4.84928 25.5615 4.69657 25.7759C4.62416 25.8741 4.5475 25.9674 4.4658 26.0493C3.90643 23.9419 4.25077 21.6136 5.31929 19.7379C5.46029 19.4972 5.6134 19.2752 5.78869 19.0631C5.96722 18.8467 6.1522 18.6384 6.34988 18.4606C6.54515 18.2757 6.75696 18.1395 6.97381 18.0449C7.19066 17.9511 7.42647 17.9258 7.69214 17.9334C8.22267 17.9499 8.82823 18.0616 9.43279 18.0825C9.65146 18.0933 9.87174 18.0937 10.0908 18.0903C10.0672 18.4427 10.088 18.7905 10.1747 19.1441C10.2336 19.3857 10.3268 19.6262 10.4713 19.8432L10.5895 19.9995C10.6308 20.0499 10.6808 20.0943 10.7264 20.1413C10.7375 20.152 10.7486 20.1602 10.7597 20.1703C10.579 20.2991 10.4093 20.4355 10.2433 20.5823C10.0103 20.7971 9.7848 21.0233 9.59881 21.2845C9.41444 21.5443 9.25609 21.8153 9.13041 22.1036C8.99788 22.3893 8.93737 22.6918 8.79455 22.9645C8.98618 22.7196 9.10197 22.4254 9.26294 22.1721C9.42069 21.9159 9.61071 21.6777 9.81506 21.4627C10.0202 21.2501 10.2488 21.0579 10.49 20.8827C10.6984 20.73 10.9199 20.5868 11.139 20.458C11.4893 20.6954 11.8617 20.8793 12.2313 21.0591L12.8641 21.3331L13.1818 21.4635C13.2851 21.5107 13.3966 21.5469 13.4805 21.6238C13.419 21.5228 13.3149 21.4569 13.225 21.3866C13.1314 21.318 13.0386 21.2481 12.9427 21.1848L12.3731 20.8023C11.9906 20.56 11.6235 20.2946 11.2906 20.0206C11.2096 19.9527 11.1256 19.8776 11.0631 19.807C11.0339 19.7705 11.0004 19.7383 10.9733 19.6998L10.8965 19.5808C10.8063 19.4127 10.7404 19.2256 10.6946 19.0277C10.6296 18.726 10.6155 18.3935 10.6304 18.0718C10.8325 18.0614 11.0349 18.0489 11.2374 18.0312C11.8349 17.9798 12.4326 17.888 13.0164 17.7667C13.5197 17.662 14.0125 17.5408 14.5033 17.4207C14.6225 17.5929 14.7348 17.7805 14.8365 17.9627C14.9071 18.0917 14.9688 18.2243 15.0217 18.3587C15.0802 18.4933 15.1228 18.6255 15.1589 18.7698C15.2311 19.0631 15.2751 19.3626 15.3243 19.6722C15.3693 19.9788 15.4243 20.3133 15.5803 20.5982C15.545 20.2816 15.5863 19.9772 15.6 19.6606C15.6117 19.482 15.6137 19.3004 15.6073 19.1183L16.2927 19.1708C16.5933 19.1981 16.8939 19.2361 17.1979 19.2855C16.9245 19.1445 16.6355 19.0297 16.3397 18.9383C16.0916 18.8596 15.8417 18.7965 15.5819 18.7583C15.5797 18.738 15.5784 18.7175 15.576 18.6972C15.5405 18.3645 15.4441 18.0359 15.3162 17.7305C15.2521 17.5728 15.1788 17.4239 15.0957 17.2785C15.3196 17.224 15.5437 17.1718 15.7677 17.1187C16.2812 17.1051 16.792 17.1059 17.2949 17.1503C17.988 17.1955 18.6396 17.36 19.3347 17.5527C19.6833 17.6439 20.0454 17.7245 20.4101 17.7745C20.6011 17.8024 20.749 17.8205 20.9144 17.8561C20.9937 17.8774 21.0748 17.8944 21.1532 17.9185L21.386 18.0011C21.694 18.1221 21.9692 18.3093 22.2344 18.5132C22.5001 18.7195 22.7565 18.945 23.0206 19.2053C22.959 18.8337 22.7569 18.5014 22.5031 18.2243C22.388 18.0988 22.257 17.9887 22.1183 17.8884C22.4089 17.7245 22.6978 17.5571 22.9863 17.3888C23.3722 17.1445 23.7641 16.9086 24.1393 16.6476C24.3904 16.4767 24.6394 16.3025 24.8861 16.1249C25.2476 16.2914 25.5907 16.4931 25.8991 16.7332C25.9003 16.7686 25.9013 16.8067 25.9017 16.8399C25.8995 16.9146 25.8949 16.9896 25.8856 17.0657C25.8715 17.2176 25.8434 17.3709 25.8096 17.5238C25.7408 17.8299 25.6375 18.1347 25.512 18.4341C25.393 18.7366 25.2387 19.0275 25.0874 19.3243L24.8415 19.762C24.757 19.9077 24.667 20.0503 24.5857 20.202C24.7156 20.0911 24.8367 19.9712 24.9631 19.8545C25.0813 19.7311 25.1963 19.6035 25.3097 19.4741C25.5255 19.2067 25.7301 18.9259 25.8967 18.6183C26.068 18.3139 26.208 17.9864 26.2929 17.6373C26.3149 17.5505 26.3292 17.4607 26.3471 17.3725C26.3548 17.3014 26.3635 17.2306 26.3691 17.1591C26.6362 17.4536 26.8438 17.7926 26.9465 18.1648C27.0271 18.4102 27.035 18.6677 27.0352 18.9289C27.0247 19.2136 27.0154 19.4993 27.0094 19.7839ZM36.3106 5.64509C36.2343 6.01395 36.1165 6.37699 35.9713 6.73199C35.3792 8.15479 34.4374 9.4446 33.4572 10.6761C32.4621 11.9039 31.3906 13.0765 30.2904 14.2215C29.2608 15.2917 28.2024 16.3392 27.1238 17.3594C26.9311 17.0396 26.6816 16.7567 26.4081 16.519C26.0766 16.2311 25.7103 15.9967 25.326 15.8018C25.6724 15.5489 26.0056 15.2781 26.3405 15.0103C27.0471 14.4296 27.7277 13.8165 28.3662 13.1615C28.6837 12.8322 28.9939 12.4963 29.2858 12.1443C29.5769 11.7924 29.8609 11.4325 30.1026 11.045C29.4559 11.6871 28.7747 12.2808 28.0876 12.8656C27.3987 13.4484 26.6919 14.0075 25.979 14.5578C25.2635 15.1055 24.5329 15.6327 23.7972 16.1542L22.6869 16.9283C22.3527 17.1623 22.0111 17.3857 21.6775 17.6222C21.6436 17.6051 21.6105 17.586 21.576 17.57L21.3102 17.4613C21.2202 17.4287 21.1276 17.404 21.036 17.3755C20.8559 17.3275 20.6507 17.2899 20.4902 17.2626C20.1503 17.2063 19.818 17.123 19.4801 17.0247C18.9633 16.8702 18.408 16.7199 17.845 16.6424C17.9521 16.6171 18.0594 16.5918 18.1673 16.5642C19.3258 16.2727 20.4516 15.852 21.521 15.3166C22.0577 15.0464 22.5671 14.7461 23.0714 14.3945C23.5551 14.0188 23.9922 13.6461 24.4415 13.2588C25.3262 12.4823 26.1942 11.6885 27.0288 10.8594C27.8635 10.0308 28.6819 9.18402 29.4464 8.28638C29.6346 8.05956 29.8266 7.83596 30.012 7.60632L30.5607 6.91119C30.9129 6.43666 31.2611 5.95469 31.5881 5.47392L33.572 2.5815L34.0658 1.85704L34.0963 1.81144C34.1021 1.80421 34.1062 1.79657 34.1124 1.78994C34.1229 1.77568 34.136 1.76362 34.1485 1.75117C34.1754 1.72826 34.2048 1.70837 34.2367 1.69592C34.2683 1.68246 34.3016 1.67563 34.3349 1.67402H34.3621L34.411 1.67663L34.5086 1.68406C35.0282 1.73228 35.5124 1.93319 35.7591 2.32073C35.773 2.34343 35.7936 2.37276 35.8026 2.38964C35.8119 2.40531 35.8186 2.42219 35.8248 2.43926C35.8367 2.47362 35.8428 2.50998 35.8426 2.54635C35.842 2.58271 35.8361 2.61927 35.8234 2.65343L35.8131 2.67894L35.7905 2.72595L35.7431 2.8242C35.615 3.08517 35.4906 3.34795 35.375 3.61516C35.1436 4.15097 34.9475 4.69662 34.7914 5.28327C35.2534 4.87764 35.5935 4.38321 35.8991 3.88176C35.9927 3.72525 36.08 3.56553 36.1651 3.40481C36.2708 3.78351 36.3489 4.16825 36.3848 4.54695C36.4205 4.91903 36.3903 5.2688 36.3106 5.64509Z" fill="#BFF5E1"/>
<path d="M36.9865 4.49813C36.9549 4.07623 36.8708 3.67 36.7669 3.27201C36.684 2.96101 36.5892 2.66126 36.4758 2.3591C36.4683 2.31832 36.4609 2.27754 36.4482 2.23796C36.4312 2.18592 36.4106 2.13469 36.385 2.08607C36.36 2.03826 36.3386 2.00752 36.3148 1.96774C36.129 1.66377 35.8418 1.4253 35.5346 1.27181C35.2239 1.12093 34.8961 1.04479 34.5727 1.01385L34.4511 1.00461L34.3902 1.00139C34.3666 1.00079 34.3349 0.999985 34.3077 1.00139C34.1945 1.00621 34.0826 1.03052 33.9791 1.07352C33.875 1.11551 33.7802 1.17678 33.6971 1.25031C33.6563 1.28788 33.6172 1.32746 33.5833 1.37126C33.5656 1.39235 33.5502 1.41586 33.5343 1.43776L33.5038 1.48336L33.0223 2.21606L31.1045 5.15228C30.7882 5.64751 30.4649 6.12264 30.1341 6.59698L29.6148 7.29311C29.4355 7.52074 29.2491 7.74294 29.0666 7.96815C27.5807 9.75098 25.8985 11.3791 24.0929 12.8471C23.6447 13.2105 23.1775 13.5818 22.7262 13.9101C22.2611 14.2157 21.7469 14.4901 21.2341 14.7392C20.2021 15.2391 19.112 15.6216 17.9983 15.9039C17.4462 16.0433 16.867 16.1562 16.2921 16.2876C15.718 16.416 15.1449 16.552 14.5753 16.69C13.4323 16.9679 12.3166 17.2435 11.1767 17.3301C10.6042 17.3759 10.0279 17.4024 9.4685 17.3739C8.90045 17.3542 8.34834 17.2439 7.70686 17.2186C7.38915 17.2089 7.02666 17.2469 6.7039 17.3882C6.38478 17.5264 6.10358 17.7221 5.87463 17.9398C5.63881 18.155 5.43689 18.3875 5.24485 18.6229C5.12523 18.7696 5.01509 18.9257 4.9106 19.0844C4.64897 19.403 4.39298 19.7237 4.14285 20.0511C3.79609 20.509 3.4574 20.9727 3.14695 21.4713C3.07009 21.5949 2.99465 21.7293 2.92465 21.8559L2.82883 22.0134L2.71264 22.1799C2.55147 22.4061 2.37617 22.6366 2.21439 22.8817C1.88639 23.3671 1.60237 23.8969 1.40125 24.4572C1.29252 24.735 1.22474 25.0255 1.15192 25.3136C1.1025 25.6063 1.04178 25.8981 1.02867 26.1938C0.968759 26.7842 1.01213 27.3733 1.07285 27.9555C1.22696 29.1149 1.55839 30.24 2.05906 31.2992C3.05214 33.4233 4.82426 35.1475 6.91975 36.1773C7.44624 36.4339 7.99028 36.6539 8.56822 36.8052C9.14998 36.9574 9.74768 37.0085 10.3363 37.0002C10.9263 36.9942 11.5111 36.9203 12.084 36.8044C12.3725 36.7535 12.6531 36.6716 12.9361 36.6006C13.2135 36.5116 13.4957 36.4355 13.7664 36.3288C15.9623 35.5356 17.8928 34.188 19.6048 32.6683C21.3206 31.1419 22.8679 29.443 24.263 27.6278C24.9549 26.7153 25.6203 25.7819 26.1894 24.7752C26.474 24.2705 26.733 23.7614 26.9582 23.2218C27.1784 22.6842 27.3578 22.1084 27.4229 21.5202C27.4968 20.9325 27.4887 20.3601 27.5034 19.7948C27.5089 19.5121 27.5171 19.2304 27.528 18.949C27.529 18.6446 27.5153 18.3272 27.4183 18.0298C27.3931 17.94 27.3618 17.8528 27.3273 17.7673C28.4576 16.7222 29.5606 15.6546 30.6382 14.5568C31.7563 13.4163 32.8474 12.2466 33.8703 11.01C34.3789 10.3895 34.8693 9.75158 35.3217 9.08257C35.774 8.41416 36.1865 7.70999 36.5075 6.95178C36.667 6.57267 36.8002 6.17769 36.8891 5.76865C36.9313 5.56132 36.9716 5.36343 36.9872 5.14223C37.0083 4.92284 36.9999 4.70948 36.9865 4.49813ZM27.0094 19.7839C26.9935 20.3525 26.9983 20.9184 26.9281 21.4581C26.7996 22.5359 26.2907 23.5503 25.7468 24.5269C25.1947 25.4979 24.5355 26.4192 23.8519 27.315C22.4723 29.1005 20.9382 30.775 19.2498 32.2687C17.5644 33.7574 15.6833 35.0563 13.578 35.8099C13.3182 35.9119 13.0491 35.9829 12.7842 36.0676C12.5147 36.1341 12.2472 36.2119 11.9741 36.2589C11.4308 36.3674 10.8791 36.4355 10.329 36.4393C9.95969 36.4435 9.59175 36.4194 9.23168 36.3634C9.26516 36.2177 9.28917 36.0692 9.30773 35.9192C9.33778 35.6624 9.35896 35.4028 9.3513 35.1344C9.19476 35.353 9.06727 35.5802 8.94846 35.8103C8.87261 35.9595 8.80322 36.1106 8.74654 36.2657C8.73443 36.2627 8.72193 36.2607 8.70982 36.2577C8.18535 36.1193 7.66833 35.9099 7.17291 35.6664C6.06102 35.1157 5.04838 34.3604 4.20901 33.4496C4.25117 33.4191 4.29595 33.3908 4.34134 33.3631C4.46379 33.2907 4.60055 33.2355 4.74579 33.2003C5.03789 33.1188 5.3443 33.1135 5.68239 33.1272C6.02168 33.1344 6.35876 33.17 6.70975 33.1678C6.88445 33.1658 7.06579 33.1618 7.2419 33.1141C7.41719 33.0641 7.57534 32.9755 7.70263 32.86C7.54549 32.9317 7.3831 32.9795 7.22092 32.9827C7.05893 32.9882 6.89635 32.9631 6.73215 32.9305C6.40435 32.8598 6.06667 32.7897 5.72717 32.7254C5.64023 32.7085 5.54965 32.6938 5.45706 32.6826C5.44819 32.5438 5.42519 32.4064 5.38384 32.2752C5.32494 32.0783 5.24183 31.8912 5.14903 31.7136C5.05806 31.5348 4.94933 31.3671 4.83092 31.209C4.71352 31.0505 4.58159 30.9028 4.43696 30.7718C4.61003 31.1194 4.73813 31.4782 4.82931 31.8358C4.87732 32.014 4.90172 32.1956 4.92351 32.3724C4.93783 32.4706 4.94691 32.5677 4.95619 32.6643C4.84686 32.6701 4.73732 32.6814 4.62859 32.7045C4.44099 32.7431 4.2548 32.8086 4.07971 32.903C4.00406 32.9464 3.93144 32.9956 3.86205 33.0511C3.35694 32.4397 2.92606 31.7685 2.59201 31.0482C2.12382 30.0534 1.80832 28.9717 1.66692 27.8806C1.61225 27.3351 1.57271 26.7859 1.63 26.2452C1.64211 25.9728 1.6996 25.7078 1.74438 25.441C1.81216 25.1796 1.87308 24.9158 1.97313 24.6645C2.1573 24.1564 2.4143 23.6777 2.72313 23.2228C2.87483 22.9938 3.04468 22.772 3.21392 22.5359L3.34201 22.3531L3.46769 22.1468C3.53567 22.025 3.59941 21.9119 3.67284 21.7944C3.73174 21.702 3.7969 21.6112 3.85802 21.5194C3.74626 21.9515 3.66618 22.3915 3.61777 22.8351C3.48423 24.0369 3.59235 25.2684 3.95484 26.4236C4.13377 27.0016 4.37967 27.5585 4.68386 28.0787C4.98564 28.6 5.33684 29.0928 5.74371 29.5326C6.14695 29.9746 6.58428 30.3836 7.06176 30.7364C7.52955 31.1013 8.0387 31.4069 8.55752 31.6829C7.65119 30.9343 6.79186 30.149 6.09471 29.2403C5.47401 28.4405 4.96688 27.5599 4.63767 26.6165C4.70868 26.5651 4.76939 26.5082 4.8285 26.4511C4.94469 26.335 5.04232 26.2105 5.1331 26.0835C5.23517 25.936 5.32191 25.7829 5.40078 25.6274C5.65556 25.6276 5.9303 25.6638 6.17842 25.7387C6.48241 25.8271 6.76422 25.9808 6.99701 26.197C7.26288 26.4397 7.55315 26.6494 7.86643 26.811C8.17768 26.9751 8.50669 27.1015 8.84518 27.1782C8.53009 27.0358 8.23578 26.8572 7.96224 26.6581C7.68831 26.4596 7.43918 26.2328 7.22717 25.9808C6.98067 25.7034 6.66336 25.4804 6.31317 25.3508C6.08119 25.2634 5.84659 25.2096 5.6019 25.1853C5.81714 24.6583 5.92284 24.1146 6.04448 23.5885C6.17297 23.0297 6.27666 22.4696 6.45014 21.9326C6.61898 21.3982 6.83946 20.8646 7.27276 20.475C7.02262 20.6221 6.81485 20.8383 6.63976 21.0745C6.47031 21.3154 6.33375 21.5768 6.2115 21.8432C5.98356 22.382 5.80826 22.9373 5.65132 23.489C5.48974 24.0389 5.33381 24.5847 5.10183 25.076C4.98504 25.3247 4.84928 25.5615 4.69657 25.7759C4.62416 25.8741 4.5475 25.9674 4.4658 26.0493C3.90643 23.9419 4.25077 21.6136 5.31929 19.7379C5.46029 19.4972 5.6134 19.2752 5.78869 19.0631C5.96722 18.8467 6.1522 18.6384 6.34988 18.4606C6.54515 18.2757 6.75696 18.1395 6.97381 18.0449C7.19066 17.9511 7.42647 17.9258 7.69214 17.9334C8.22267 17.9499 8.82823 18.0616 9.43279 18.0825C9.65146 18.0933 9.87174 18.0937 10.0908 18.0903C10.0672 18.4427 10.088 18.7905 10.1747 19.1441C10.2336 19.3857 10.3268 19.6262 10.4713 19.8432L10.5895 19.9995C10.6308 20.0499 10.6808 20.0943 10.7264 20.1413C10.7375 20.152 10.7486 20.1602 10.7597 20.1703C10.579 20.2991 10.4093 20.4355 10.2433 20.5823C10.0103 20.7971 9.7848 21.0233 9.59881 21.2845C9.41444 21.5443 9.25609 21.8153 9.13041 22.1036C8.99788 22.3893 8.93737 22.6918 8.79455 22.9645C8.98618 22.7196 9.10197 22.4254 9.26294 22.1721C9.42069 21.9159 9.61071 21.6777 9.81506 21.4627C10.0202 21.2501 10.2488 21.0579 10.49 20.8827C10.6984 20.73 10.9199 20.5868 11.139 20.458C11.4893 20.6954 11.8617 20.8793 12.2313 21.0591L12.8641 21.3331L13.1818 21.4635C13.2851 21.5107 13.3966 21.5469 13.4805 21.6238C13.419 21.5228 13.3149 21.4569 13.225 21.3866C13.1314 21.318 13.0386 21.2481 12.9427 21.1848L12.3731 20.8023C11.9906 20.56 11.6235 20.2946 11.2906 20.0206C11.2096 19.9527 11.1256 19.8776 11.0631 19.807C11.0339 19.7705 11.0004 19.7383 10.9733 19.6998L10.8965 19.5808C10.8063 19.4127 10.7404 19.2256 10.6946 19.0277C10.6296 18.726 10.6155 18.3935 10.6304 18.0718C10.8325 18.0614 11.0349 18.0489 11.2374 18.0312C11.8349 17.9798 12.4326 17.888 13.0164 17.7667C13.5197 17.662 14.0125 17.5408 14.5033 17.4207C14.6225 17.5929 14.7348 17.7805 14.8365 17.9627C14.9071 18.0917 14.9688 18.2243 15.0217 18.3587C15.0802 18.4933 15.1228 18.6255 15.1589 18.7698C15.2311 19.0631 15.2751 19.3626 15.3243 19.6722C15.3693 19.9788 15.4243 20.3133 15.5803 20.5982C15.545 20.2816 15.5863 19.9772 15.6 19.6606C15.6117 19.482 15.6137 19.3004 15.6073 19.1183L16.2927 19.1708C16.5933 19.1981 16.8939 19.2361 17.1979 19.2855C16.9245 19.1445 16.6355 19.0297 16.3397 18.9383C16.0916 18.8596 15.8417 18.7965 15.5819 18.7583C15.5797 18.738 15.5784 18.7175 15.576 18.6972C15.5405 18.3645 15.4441 18.0359 15.3162 17.7305C15.2521 17.5728 15.1788 17.4239 15.0957 17.2785C15.3196 17.224 15.5437 17.1718 15.7677 17.1187C16.2812 17.1051 16.792 17.1059 17.2949 17.1503C17.988 17.1955 18.6396 17.36 19.3347 17.5527C19.6833 17.6439 20.0454 17.7245 20.4101 17.7745C20.6011 17.8024 20.749 17.8205 20.9144 17.8561C20.9937 17.8774 21.0748 17.8944 21.1532 17.9185L21.386 18.0011C21.694 18.1221 21.9692 18.3093 22.2344 18.5132C22.5001 18.7195 22.7565 18.945 23.0206 19.2053C22.959 18.8337 22.7569 18.5014 22.5031 18.2243C22.388 18.0988 22.257 17.9887 22.1183 17.8884C22.4089 17.7245 22.6978 17.5571 22.9863 17.3888C23.3722 17.1445 23.7641 16.9086 24.1393 16.6476C24.3904 16.4767 24.6394 16.3025 24.8861 16.1249C25.2476 16.2914 25.5907 16.4931 25.8991 16.7332C25.9003 16.7686 25.9013 16.8067 25.9017 16.8399C25.8995 16.9146 25.8949 16.9896 25.8856 17.0657C25.8715 17.2176 25.8434 17.3709 25.8096 17.5238C25.7408 17.8299 25.6375 18.1347 25.512 18.4341C25.393 18.7366 25.2387 19.0275 25.0874 19.3243L24.8415 19.762C24.757 19.9077 24.667 20.0503 24.5857 20.202C24.7156 20.0911 24.8367 19.9712 24.9631 19.8545C25.0813 19.7311 25.1963 19.6035 25.3097 19.4741C25.5255 19.2067 25.7301 18.9259 25.8967 18.6183C26.068 18.3139 26.208 17.9864 26.2929 17.6373C26.3149 17.5505 26.3292 17.4607 26.3471 17.3725C26.3548 17.3014 26.3635 17.2306 26.3691 17.1591C26.6362 17.4536 26.8438 17.7926 26.9465 18.1648C27.0271 18.4102 27.035 18.6677 27.0352 18.9289C27.0247 19.2136 27.0154 19.4993 27.0094 19.7839ZM36.3106 5.64509C36.2343 6.01395 36.1165 6.37699 35.9713 6.73199C35.3792 8.15479 34.4374 9.4446 33.4572 10.6761C32.4621 11.9039 31.3906 13.0765 30.2904 14.2215C29.2608 15.2917 28.2024 16.3392 27.1238 17.3594C26.9311 17.0396 26.6816 16.7567 26.4081 16.519C26.0766 16.2311 25.7103 15.9967 25.326 15.8018C25.6724 15.5489 26.0056 15.2781 26.3405 15.0103C27.0471 14.4296 27.7277 13.8165 28.3662 13.1615C28.6837 12.8322 28.9939 12.4963 29.2858 12.1443C29.5769 11.7924 29.8609 11.4325 30.1026 11.045C29.4559 11.6871 28.7747 12.2808 28.0876 12.8656C27.3987 13.4484 26.6919 14.0075 25.979 14.5578C25.2635 15.1055 24.5329 15.6327 23.7972 16.1542L22.6869 16.9283C22.3527 17.1623 22.0111 17.3857 21.6775 17.6222C21.6436 17.6051 21.6105 17.586 21.576 17.57L21.3102 17.4613C21.2202 17.4287 21.1276 17.404 21.036 17.3755C20.8559 17.3275 20.6507 17.2899 20.4902 17.2626C20.1503 17.2063 19.818 17.123 19.4801 17.0247C18.9633 16.8702 18.408 16.7199 17.845 16.6424C17.9521 16.6171 18.0594 16.5918 18.1673 16.5642C19.3258 16.2727 20.4516 15.852 21.521 15.3166C22.0577 15.0464 22.5671 14.7461 23.0714 14.3945C23.5551 14.0188 23.9922 13.6461 24.4415 13.2588C25.3262 12.4823 26.1942 11.6885 27.0288 10.8594C27.8635 10.0308 28.6819 9.18402 29.4464 8.28638C29.6346 8.05956 29.8266 7.83596 30.012 7.60632L30.5607 6.91119C30.9129 6.43666 31.2611 5.95469 31.5881 5.47392L33.572 2.5815L34.0658 1.85704L34.0963 1.81144C34.1021 1.80421 34.1062 1.79657 34.1124 1.78994C34.1229 1.77568 34.136 1.76362 34.1485 1.75117C34.1754 1.72826 34.2048 1.70837 34.2367 1.69592C34.2683 1.68246 34.3016 1.67563 34.3349 1.67402H34.3621L34.411 1.67663L34.5086 1.68406C35.0282 1.73228 35.5124 1.93319 35.7591 2.32073C35.773 2.34343 35.7936 2.37276 35.8026 2.38964C35.8119 2.40531 35.8186 2.42219 35.8248 2.43926C35.8367 2.47362 35.8428 2.50998 35.8426 2.54635C35.842 2.58271 35.8361 2.61927 35.8234 2.65343L35.8131 2.67894L35.7905 2.72595L35.7431 2.8242C35.615 3.08517 35.4906 3.34795 35.375 3.61516C35.1436 4.15097 34.9475 4.69662 34.7914 5.28327C35.2534 4.87764 35.5935 4.38321 35.8991 3.88176C35.9927 3.72525 36.08 3.56553 36.1651 3.40481C36.2708 3.78351 36.3489 4.16825 36.3848 4.54695C36.4205 4.91903 36.3903 5.2688 36.3106 5.64509Z" stroke="#20DD99" stroke-width="0.8" mask="url(#path-6-outside-1)"/>
</svg>
