<svg width="36" height="36" viewBox="0 0 36 36" fill="none" xmlns="http://www.w3.org/2000/svg">
<path d="M17.6647 19.7126L17.6273 19.7666C16.928 20.7756 16.0035 21.6135 14.4864 21.6135C12.4937 21.6135 10.8729 19.9927 10.8729 18.0001C10.8729 16.0099 12.4962 14.3866 14.4864 14.3866C15.5962 14.3866 16.4563 14.864 17.0836 15.5149L17.0836 15.5149C17.6852 16.1397 18.1048 16.9118 18.5003 17.6394L17.6647 19.7126ZM17.6647 19.7126L17.63 19.6568M17.6647 19.7126L17.63 19.6568M17.63 19.6568C17.4562 19.377 17.3063 19.1002 17.1596 18.8293C17.1343 18.7825 17.1091 18.736 17.0838 18.6896L17.0006 18.5366M17.63 19.6568L17.0006 18.5366M17.0006 18.5366L16.9105 18.6856M17.0006 18.5366L16.9105 18.6856M16.9105 18.6856C16.2988 19.6961 15.6346 20.4097 14.4864 20.4097C13.1573 20.4097 12.0768 19.3291 12.0768 18.0001C12.0768 16.6635 13.1498 15.5904 14.4864 15.5904C15.2664 15.5904 15.7575 15.8661 16.2183 16.3443L16.2183 16.3444M16.9105 18.6856L16.2183 16.3444M16.2183 16.3444C16.6836 16.8268 17.0795 17.528 17.4883 18.2831L17.4883 18.2831M16.2183 16.3444L17.4883 18.2831M17.4883 18.2831C17.5106 18.3243 17.533 18.3656 17.5554 18.4071C17.9412 19.1205 18.3483 19.8733 18.9313 20.4843C19.5527 21.1361 20.4129 21.6135 21.5133 21.6135C23.5034 21.6135 25.1268 19.9902 25.1268 18.0001C25.1268 16.0074 23.506 14.3866 21.5133 14.3866C20.0056 14.3866 19.0751 15.1972 18.3731 16.1854L18.3342 16.2401M17.4883 18.2831L18.3342 16.2401M18.3342 16.2401L18.3701 16.2968M18.3342 16.2401L18.3701 16.2968M18.3701 16.2968C18.5748 16.6203 18.7619 16.9382 18.9315 17.248L19.0139 17.3985M18.3701 16.2968L19.0139 17.3985M19.0139 17.3985L19.1043 17.2526M19.0139 17.3985L19.1043 17.2526M19.1043 17.2526C19.711 16.2726 20.3675 15.5904 21.5133 15.5904C22.8424 15.5904 23.9229 16.671 23.9229 18.0001C23.9229 19.3367 22.8499 20.4097 21.5133 20.4097C21.1271 20.4097 20.817 20.3396 20.5477 20.2124C20.2779 20.0849 20.0441 19.8976 19.8133 19.6561L19.8133 19.656M19.1043 17.2526L19.8133 19.656M19.8133 19.656C19.3513 19.1734 18.9537 18.472 18.5424 17.7169L19.8133 19.656Z" fill="#D9A8FF" stroke="#A440F2" stroke-width="0.2"/>
<mask id="path-2-inside-1" fill="white">
<path fill-rule="evenodd" clip-rule="evenodd" d="M35.4506 13.5692C33.4766 5.77061 26.4122 0 18 0C8.05888 0 0 8.05888 0 18C0 27.9411 8.05888 36 18 36C26.0428 36 32.8535 30.7251 35.1614 23.4462H31.1348C28.9976 28.5946 23.9217 32.2154 18 32.2154C10.1491 32.2154 3.78462 25.8509 3.78462 18C3.78462 10.1491 10.1491 3.78462 18 3.78462C24.3039 3.78462 29.6493 7.88788 31.5113 13.5692H35.4506Z"/>
</mask>
<path fill-rule="evenodd" clip-rule="evenodd" d="M35.4506 13.5692C33.4766 5.77061 26.4122 0 18 0C8.05888 0 0 8.05888 0 18C0 27.9411 8.05888 36 18 36C26.0428 36 32.8535 30.7251 35.1614 23.4462H31.1348C28.9976 28.5946 23.9217 32.2154 18 32.2154C10.1491 32.2154 3.78462 25.8509 3.78462 18C3.78462 10.1491 10.1491 3.78462 18 3.78462C24.3039 3.78462 29.6493 7.88788 31.5113 13.5692H35.4506Z" fill="#D9A8FF"/>
<path d="M35.4506 13.5692V14.3692H36.4783L36.2261 13.3729L35.4506 13.5692ZM35.1614 23.4462L35.924 23.688L36.2543 22.6462H35.1614V23.4462ZM31.1348 23.4462V22.6462H30.6007L30.3959 23.1395L31.1348 23.4462ZM31.5113 13.5692L30.7511 13.8184L30.9316 14.3692H31.5113V13.5692ZM18 0.8C26.0372 0.8 32.7887 6.31339 34.6751 13.7655L36.2261 13.3729C34.1644 5.22783 26.7872 -0.8 18 -0.8V0.8ZM0.8 18C0.8 8.5007 8.5007 0.8 18 0.8V-0.8C7.61705 -0.8 -0.8 7.61705 -0.8 18H0.8ZM18 35.2C8.5007 35.2 0.8 27.4993 0.8 18H-0.8C-0.8 28.383 7.61705 36.8 18 36.8V35.2ZM34.3988 23.2044C32.1933 30.1606 25.6841 35.2 18 35.2V36.8C26.4014 36.8 33.5138 31.2897 35.924 23.688L34.3988 23.2044ZM35.1614 22.6462H31.1348V24.2462H35.1614V22.6462ZM18 33.0154C24.2562 33.0154 29.6169 29.1895 31.8736 23.7529L30.3959 23.1395C28.3784 27.9997 23.5871 31.4154 18 31.4154V33.0154ZM2.98462 18C2.98462 26.2928 9.70723 33.0154 18 33.0154V31.4154C10.5909 31.4154 4.58462 25.4091 4.58462 18H2.98462ZM18 2.98462C9.70723 2.98462 2.98462 9.70723 2.98462 18H4.58462C4.58462 10.5909 10.5909 4.58462 18 4.58462V2.98462ZM32.2715 13.3201C30.3051 7.31986 24.6598 2.98462 18 2.98462V4.58462C23.9479 4.58462 28.9936 8.4559 30.7511 13.8184L32.2715 13.3201ZM31.5113 14.3692H35.4506V12.7692H31.5113V14.3692Z" fill="#A440F2" mask="url(#path-2-inside-1)"/>
</svg>
