<svg xmlns="http://www.w3.org/2000/svg" width="45" height="45" viewBox="0 0 270 340" stroke="#efb0ff" stroke-linecap="round" stroke-linejoin="miter" fill="#a440f2" fill-rule="evenodd">
<path d="M103.2907115646 69.9808655196c-3.2226784278-.4624537074-3.3761482257-.616602983-1.8414970784-.7707581391 2.9156919994-.4624537074 9.6679884509.1541551561 14.4252243612 1.2332177269 11.0491698002 2.6205729688 21.0240978471 9.4032469453 31.6129050859 21.2729234641l2.7622690338 3.2371818322 3.9899337528-.6166029831c17.0341640943-2.7747340052 34.5285970853-.6166088634 49.1073380769 6.1660651131 3.9900274177 1.8498148296 10.2818676428 5.5494562496 11.0491698003 6.4743636644.3069395959.3083103122.7673021574 2.3122744174 1.0742417534 4.3162502835 1.0742417534 7.2451218036.6138323595 12.6404287775-1.6880741129 16.8025297854-1.2277115514 2.3122744174-1.2277115514 2.92887152-.4604093939 4.9328473861.6138791919 1.5415162783 2.4554231027 2.6205729687 4.1434503832 2.6205729687 3.6830878217 0 7.5195986089-5.8577548009 9.3610956874-14.0277957801l.7673021574-3.2371818322 1.381134517 1.5415162783c7.8264913724 8.7866380818 13.964908632 20.9646190323 14.8856805875 29.5971078385l.3069395959 2.3122744174-1.3811813493-2.0039641053c-2.3019064724-3.5454921443-4.4503431468-5.8577665617-7.3660819786-7.861730667-5.2176921366-3.5454921444-10.7422302043-4.6245488348-25.3209711959-5.3953069739-13.1976064746-.7707581392-20.7171582512-1.8498265905-28.0832402297-4.3162502835-12.5837741152-4.162089247-19.0291309708-9.557396221-33.9148115583-29.4429585629-6.5987798211-8.7866439622-10.7422302043-13.5653479531-14.8856337551-17.5732879244-9.0541560914-8.7866439623-18.1083590153-13.4111927971-29.9247841406-15.2610135071zm114.3280214603 19.5772579101c.3068927635-5.8577606813 1.074194921-9.711551377 2.7623158663-13.257037641.613785527-1.3873670026 1.2276647189-2.6205788491 1.3810876845-2.6205788491s-.1534229656 1.0790625709-.6137855271 2.3122744174c-1.2277115513 3.3913369883-1.3811813493 8.1700350988-.6138791919 13.5653420727 1.0742417534 6.9368232522 1.5346043149 7.8617365475 8.9006862935 15.4151686632 3.3761482258 3.5454803835 7.366128811 8.0158799426 8.9007331259 9.8656947722l2.6087992359 3.3913428687-2.6087992359-2.466423693c-3.2226784278-3.0830325566-10.5887604064-8.9407991184-12.2768345192-9.7115572575-1.074194921-.6166088635-1.2277115514-.6166088635-1.9950137089.1541492757-.613785527.6166088634-.7673021574 1.5415162782-.7673021574 6.0119158374-.1534229656 6.9368232522-1.074194921 11.2530735357-3.3761013933 15.723461334-1.2277115514 2.3122744174-1.381134517 1.8498265905-.3068927636-.7707581391.7673021575-2.0039641053.920725123-2.92887152.920725123-9.557396221 0-13.4111869166-1.5346043149-16.6483805096-10.8956531699-22.0436816032-2.3019064723-1.3873670026-6.2919338899-3.3913369882-8.5938403623-4.4703995591-2.4553294379-1.0790625709-4.2968733488-2.0039699857-4.1434035508-2.0039699857.3068927636-.3083044317 9.3610956874 2.3122744174 12.8906668787 3.8537906957 5.3711151022 2.1581251417 6.2918870576 2.3122744174 6.9057194171 2.1581251417.4603625615-.4624595878.7673021574-1.6956714343.9207719554-5.54946213zm-108.0361344027 22.968589018c-6.4453568555-8.9407873574-10.5887604063-22.8144338619-9.6680352833-33.1425941024l.3069395959-3.2371877126 1.5346043149.3083044317c2.7623158663.4624537074 7.5195517766 2.3122744174 9.8214582489 3.6996414201 6.1384172597 3.6996355396 8.9006862935 8.7866439622 11.5095323618 21.4270727397.7673021575 3.69964142 1.8415439109 8.0158917035 2.3019064724 9.4032469453.7673021574 2.3122744174 3.6830878217 7.7075813913 6.1384172596 11.09892426 1.6880741128 2.4664236931.6138791919 3.6996414201-3.2226315954 3.3913311079-5.8315244961-.6166088635-13.6580158686-6.0119158374-18.7221913748-12.9487390897zm100.2096430302 67.0559581048c-30.3851467021-12.3321302261-41.1273769064-22.9685831375-41.1273769064-41.0043306498 0-2.6205729688.1534229656-4.7786981105.1534229656-4.7786981105.1535166303 0 1.2277115513.9249074148 2.6088460683 2.0039758661 6.1384172596 4.9328473861 13.0441366766 7.0909725279 32.2266906129 9.8656947723 11.2025927658 1.6956773147 17.6479496214 2.9288832808 23.4794272851 4.9328591469 18.5687684092 6.1660651131 30.0783007709 18.8064938906 32.8405698048 35.9173222273.7673021574 4.9328591469.3069395959 14.3361060922-.9207719554 19.2689534784-1.074194921 3.8537906956-4.1434035508 10.9447749844-4.9107057083 11.0989124992-.1535166303 0-.4604093939-.7707581392-.4604093939-2.0039523444-.3068927635-6.4743871861-3.5296180237-12.6404522992-8.9007331259-17.4191386488-6.4453100231-5.5494680105-14.7321639571-9.7115572575-34.9889596468-17.8815982367zm-21.4844604086 5.0870084227c-.306939596-2.3122744174-1.0742417534-5.2411576983-1.5346043149-6.4743636644l-.7673021575-2.3122744174 1.3811813494 1.6956655539c1.9949668764 2.3122744174 3.5295711913 5.0869966618 4.9107057082 8.9407873575 1.074194921 2.9288832809 1.074194921 3.8537906957 1.074194921 8.632500567 0 4.6245488348-.1534229656 5.7036055253-1.074194921 8.324178494-1.5346043149 4.162089247-3.3761013933 7.0909842887-6.4453100231 10.3281543601-5.5246317326 5.7036290469-12.7372439132 8.7866616035-23.0190647236 10.1740168452l-11.6630489921.9249191757c-11.5095323618.6165971026-19.1825539363 1.8498148296-26.0882733534 4.3162267618-.920725123.308322073-1.8414970784.6166206243-1.9949668764.4624595878-.3069395959-.3082985513 4.4503899792-3.0830325565 8.2869007664-4.9328473861 5.3711151022-2.6205729687 10.8956531699-4.0079517322 23.0190647236-6.1660651131 5.9849006292-.9249191756 12.1233178888-2.1581133809 13.6579222037-2.7747340052 15.1926201835-4.7786863497 22.71217196-16.6483687489 20.2567956897-31.1386241168zm13.964908632 24.8184214889c-3.9899805852-8.7866616035-4.9107057082-17.1108400975-2.7623158663-24.9725707645.306939596-.7707581392.6138791919-1.5415162783.9208187879-1.5415162783s1.2276647189.462447827 2.1483898419 1.0790566905c1.8415439109 1.2332177269 5.6780546981 3.3913428687 15.4995597794 8.7866498426 12.4302574848 6.7826622157 19.4894466999 12.0238316749 24.4001524081 18.0357357515 4.2969201812 5.2411459374 6.9057194171 11.2530735357 8.1334309684 18.6523563757.7673021575 4.162089247.3068927636 14.1819450558-.7673021574 18.3440343028-3.3761013934 13.1028883653-11.0491229679 23.5852037619-22.2517625661 29.5971078385-1.6880741129.9249191756-3.0692086298 1.5415162782-3.2226784278 1.5415162782s.4603625615-1.5415162782 1.3811813494-3.3913311078c3.6829941568-7.8617424279 4.1434035507-15.4151627827 1.3810876845-23.8935023132-1.6880272805-5.2411459375-5.2175984718-11.5613720871-12.2768345192-22.1978249985-8.440323732-12.3321302262-10.4352906084-15.5693238192-12.5837272828-20.0397116175zM87.9446684156 256.6584844662c11.3560625638-9.557396221 25.3209711959-16.3400584367 38.2116380746-18.4981953393 5.5245849001-.9248956539 14.7322107895-.6165971026 19.7964331281.7707581392 8.1333841361 2.1581369025 15.4994661146 6.7826857374 19.3359769019 12.4862912626 3.6830878217 5.5494444888 5.3711151021 10.3281543601 7.059189215 20.9646072715.6138323595 4.1621127687 1.3811345169 8.4783395305 1.5346043149 9.4032587062 1.2277115514 5.5494680104 3.6830409893 9.8656947722 6.7522496191 12.1779691896 4.7572827427 3.5454921444 13.0441366767 3.6996531809 21.1775208127.6166206243 1.3811813493-.4624595878 2.6088460683-.9249191756 2.6088460683-.7707581391.3069395959.3082985513-3.8365107873 3.0830325566-6.5987798211 4.4703877983-3.8365107873 2.0039758661-6.9057194171 2.6205729688-11.0491698003 2.6205729688-7.3660819786 0-13.6579690361-3.8537906957-18.7221913748-11.5613720871-1.0741949209-1.5415162783-3.2226315953-6.0119040766-5.0641755062-10.1739933236-5.3711151021-12.4862912626-8.133384136-16.1859209218-14.4252711936-20.3480101688-5.5245849001-3.5454921444-12.5837272827-4.3162502835-17.9548423849-1.6956773148-7.0592360474 3.3913311079-8.9007331259 12.4862912627-3.9900274176 18.0357357515 1.9950137088 2.3122744174 5.6780546981 4.1620892469 8.7472633279 4.6245488348 5.6780546981.7707581391 10.5888072387-3.6996296592 10.5888072387-9.4032351845 0-3.6996531808-1.3811813493-5.8577665618-5.0642223386-7.5534438765-4.9107057082-2.1581133809-10.2818208104.3082985513-10.1283978448 5.0870084226 0 2.0039758661.9207719554 3.237193593 2.9157856642 4.162089247 1.227664719.6166206243 1.227664719.6166206243.3068927636.4624595878-4.4503431468-.9249191756-5.5245849002-6.4743636644-1.9950137089-10.0198558087 4.2969201812-4.3162502835 13.3510762726-2.4664354539 16.4202849025 3.5454921443 1.2276647189 2.4664119322 1.3811813493 7.3992828401.3069395959 10.4823153966-2.6088460683 6.7826622157-9.9749280469 10.3281543601-17.4945266558 8.324178494-5.0641755062-1.3873552418-7.2126121806-2.7747340052-13.3510294402-9.0949366331-10.7422302043-11.0989360209-14.8856337551-13.2570494018-30.2317237366-15.5693238193l-2.9157388318-.4624595878 3.2226784278-3.0830325565z" fill-rule="nonzero" stroke-width="4"/><path d="M7.2244720853 8.6285247009l93.610863209 115.1512612826c2.3019064724 3.0830325565 1.3811813493 6.0119158374-2.4553762703 8.1700409792-2.1484366744 1.2332059661-6.5987798211 2.466423693-8.7472164955 2.466423693-2.4553762703 0-5.3711151022-1.2332177269-7.366128811-3.2371818322-1.3811345169-1.3873670026-7.3660819786-10.1740168452-20.8705812167-31.2927851532L42.2134785645 70.1350206757c-.6138791919-.3083044317-.6138791919-.3083044317 18.1083121829 33.2967551389 11.8164719577 21.118768308 15.6529827449 28.6722004237 15.6529827449 29.5971078385 0 2.0039758661-.6138791919 3.0830325566-3.0692086298 5.8577665618-4.1434503832 4.6245488348-5.984994294 9.8656947722-7.3661288109 20.8104697566-1.5346043149 12.1779691897-5.6780078657 20.8104697567-17.4944798235 35.4548744003-6.905719417 8.6324770453-7.9799611704 10.1739933236-9.6679884509 13.7194854679-2.1484835068 4.3162502835-2.7623158662 6.7826857374-3.0692086298 12.3321302262-.3069395959 5.8577665618.3068927636 9.557396221 1.9949668764 15.1068642314 1.5346043149 4.9328473862 3.2226784278 8.1700409792 7.3660819786 14.4902436071 3.5296180237 5.5494680105 5.6780546981 9.7115572575 5.6780546981 11.2530735357 0 1.233217727.3069395959 1.233217727 5.8314776637 0 13.1976064746-3.0830325565 24.0933064769-8.324178494 30.0782539385-14.7985421584 3.6830409893-4.0079517322 4.6038129447-6.1660651131 4.6038129447-11.7155331235 0-3.5454921444-.1534697979-4.3162502835-1.0741949209-6.4743636644-1.5346043149-3.3913311079-4.4503899792-6.1660651131-10.7422302044-10.4823153966-8.2869007664-5.7036055253-11.8164719577-10.3281543601-12.7372439131-16.4942194732-.7673021574-5.2411576983.153469798-8.7866498426 4.7572827427-18.4981953392 4.7572827427-10.0198558088 5.9849474616-14.1819568166 6.7522496191-24.3559619011.4604093939-6.4743636644 1.2277115513-9.0949483939 3.0692086298-11.0989124992 1.9950137088-2.1581251417 3.6830409893-2.9288832809 8.4403237319-3.5454921444 7.8264913725-1.0790566904 12.8907137111-3.0830325565 16.880647464-6.9368232522 3.5295711913-3.2371818322 5.0641755062-6.4743636644 5.2176921366-11.2530735357l.1534229655-3.5454803835-1.9949668764-2.1581251418C102.3699396092 112.3725631721 2.4671893426 2 2.0068267811 2c-.153469798 0 2.3019064723 2.9288832809 5.2176453042 6.6285247009zm47.1123712004 219.2036100659c1.6880741129-2.92887152.7673021575-6.6285247009-1.9950137088-8.4783395305-2.6087992359-1.6956773147-6.5987798211-.9249191756-6.5987798211 1.3873552418 0 .6166206243.3069395959 1.233217727 1.227664719 1.5415162783 1.3811813493.7707581391 1.5346043149 1.5415162783.4604093939 3.237193593s-1.0742417534 3.2371935931.3068927635 4.3162502835c2.1484835068 1.6956537931 5.0642223386.7707581391 6.5988266535-2.0039758661zm62.1514747536-81.0837538849c-3.6830878217 1.0790566904-7.212659013 5.0869966618-8.2869007664 9.0949483939-.6137855271 2.4664236931-.3068927636 6.9368232523.7673021574 8.324178494 1.6881209453 2.1581251418 3.2227252602 2.7747340053 7.519598609 2.7747340053 8.4403237319 0 15.652982745-3.69964142 16.4202849024-8.1700409792.7673021575-3.6996296592-2.4554231027-8.7866380818-6.9057194171-11.0989124992-2.3019064723-1.233217727-7.0592360474-1.695665554-9.5145654853-.9249074148zm9.8214582489 7.7075813913c1.2277115513-1.8498265904.7673021574-3.8537906956-1.5346043149-5.2411576983-4.1434035508-2.6205729687-10.4353374408-.4624595878-10.4353374408 3.5454921444 0 2.0039641053 3.2227252602 4.162089247 6.29193389 4.162089247 1.9949668764 0 4.7572359103-1.2332177269 5.6780078657-2.4664236931z" stroke-width="4"/></svg>