<svg xmlns="http://www.w3.org/2000/svg" width="38" height="38" viewBox="20 20 90 90" stroke="#000" stroke-linecap="round" stroke-linejoin="round" fill="#fff" fill-rule="evenodd" class="eth"><g stroke="#efb0ff" stroke-linejoin="miter"><path d="M78.2323775649 71.4462871661c0-7.7658770085-4.6799955368-10.4276154042-14.0399866104-11.5391185284-6.6836357117-.8884828091-8.0181312561-2.6617662907-8.0181312561-5.7695732117s2.2302589417-5.1041107177 6.6835241318-5.1041107177c4.0109624863 0 6.2412214279 1.3308691978 7.3527803421 4.661696434.2372188568.6596603393.8601694107 1.1017677784 1.5612258911 1.1078488827h3.564866066c.4160814285.0111021995.8185501098-.14879179 1.1135673523-.4424142838s.4568080902-.6953380108.4476585388-1.1114752293v-.2193939685c-.8958749771-4.9549562931-5.0107183456-8.6887822152-10.029135704-9.1004004479v-5.3235046863c0-.8884549141-.6691446305-1.5539034605-1.7805919648-1.7769377232h-3.3454999923c-.8883991242 0-1.5575437546.6654485464-1.7805919648 1.7769377232v5.1041386127c-6.6872062683.8848006725-10.9175348281 5.3235046864-10.9175348281 10.8736839295 0 7.3198084831 4.4532651901 10.2045950889 13.8132562637 11.3160982131 6.2412214279 1.1078488827 8.2448616028 2.4423723221 8.2448616028 5.9925935269s-3.1187696457 5.9889392853-7.3526687622 5.9889392853c-5.7951250077 0-7.7987651825-2.4387459755-8.467909813-5.7695732117-.2193660736-.8848285675-.8920812606-1.3308691979-1.5612258911-1.3308691979h-3.7878026962c-.4155235291-.0100979804-.8169879913.1502423287-1.1112241745.4437811375s-.4554691315.6946406365-.44643116 1.1101362705v.2193660736c.8885107041 5.5501792431 4.4570589066 9.5428147316 11.8097276688 10.6543178559v5.3271589279c0 .8848006725.6691446304 1.553889513 1.7805919647 1.7732834816h3.3454999924c.8883991241 0 1.5575437546-.6654624939 1.7805919647-1.7732834816V83.204771768c6.6873178482-1.1078209877 11.1405830383-5.7695453166 11.1405830383-11.7621388435zM50.6766687515 94.7406622753c-17.3818044662-6.215641737-26.2956991195-25.5206372738-19.8315410614-42.6062808037 3.3418178559-9.323448658 10.694598198-16.4202228784 19.8315410614-19.7510640621.8920812607-.4424142837 1.3344955445-1.1078488827 1.3344955445-2.2193520069v-3.107806921c0-.88481462-.4424142838-1.5502492189-1.3344955445-1.7732834816-.2230482101 0-.6691446304 0-.8920812607.2193800211-10.1287765503 3.163066864-18.5768251419 10.2365487814-23.4708309173 19.6517161131s-5.8291568756 20.3937642574-2.5982494354 30.5010616779c4.0072803497 12.431255579 13.5902080535 21.9740703106 26.0690803527 25.9666779041.8920812607.4424142838 1.7841625214 0 2.0036401749-.888454914.2229366303-.2193660737.2229366303-.4460685254.2229366303-.8884828091v-3.107806921c0-.6654345989-.665350914-1.5502352715-1.3344955445-1.9963037968zm23.6193437577-69.2347530126c-.8920812607-.4460685254-1.7841625214 0-2.003528595.88481462-.2230482102.2230203151-.2230482102.4460545778-.2230482102.8884688616v3.107806921c0 .8884688615.665350914 1.7732834816 1.3344955445 2.2193380594 17.3818044662 6.2156277895 26.2956991195 25.5206372738 19.8315410614 42.6062808037-3.3418178559 9.323448658-10.694598198 16.4202368259-19.8315410614 19.7510640621-.8920812607.4424142837-1.3344955445 1.1078488827-1.3344955445 2.2193520069v3.107806921c0 .8848285675.4424142838 1.5502352715 1.3344955445 1.7732834816.2230482101 0 .6691446304 0 .8920812607-.2193660736 10.1287765502-3.163066864 18.5768251419-10.2365627289 23.4708309173-19.6517300606s5.8291568756-20.3937642574 2.5982494354-30.5010616779c-4.0072803497-12.6506216526-13.8132562637-22.1934363842-26.0690803527-26.1860579252z" fill-rule="nonzero" fill="#a440f2" stroke-width="2"></path></g><defs><path id="B" d="M4.5 63C4.5 30.5910058022 30.5909500122 4.5 63 4.5s58.5 26.0910058022 58.5 58.5-26.0909500122 58.5-58.5 58.5S4.5 95.4089941978 4.5 63z"></path></defs></svg>