<svg width="38" height="38" viewBox="0 0 38 38" fill="none" xmlns="http://www.w3.org/2000/svg">
<mask id="path-1-outside-1" maskUnits="userSpaceOnUse" x="0" y="0" width="38" height="38" fill="black">
<rect fill="white" width="38" height="38"/>
<path fill-rule="evenodd" clip-rule="evenodd" d="M21.3802 8.58677V11.4132H22.4711C23.5626 11.4132 24.6095 11.8468 25.3813 12.6187C26.153 13.3904 26.5866 14.4369 26.5868 15.5282C26.5841 16.541 26.208 17.5173 25.5304 18.2703L24.8737 19L25.5304 19.7297C26.208 20.4827 26.5841 21.459 26.5868 22.4718C26.5866 23.5631 26.153 24.6096 25.3813 25.3813C24.6095 26.1532 23.5626 26.5868 22.4711 26.5868H21.3802V29.4132C21.3802 29.5842 21.3123 29.7482 21.1914 29.869C21.0705 29.9899 20.9065 30.0578 20.7355 30.0578C20.5646 30.0578 20.4006 29.9899 20.2797 29.869C20.1588 29.7481 20.0909 29.5842 20.0909 29.4132V26.5868H16.1736V29.4132C16.1736 29.5842 16.1056 29.7482 15.9848 29.869C15.8639 29.9899 15.6999 30.0578 15.5289 30.0578C15.358 30.0578 15.194 29.9899 15.0731 29.869C14.9522 29.7482 14.8843 29.5842 14.8843 29.4132V26.5868H12.0579C11.8869 26.5868 11.7229 26.5189 11.602 26.398C11.4811 26.2771 11.4132 26.1131 11.4132 25.9421C11.4132 25.7712 11.4811 25.6072 11.602 25.4863C11.7229 25.3654 11.8869 25.2975 12.0579 25.2975H14.8843V12.7025H12.0579C11.8869 12.7025 11.7229 12.6346 11.602 12.5137C11.4811 12.3928 11.4132 12.2288 11.4132 12.0578C11.4132 11.8869 11.4811 11.7229 11.602 11.602C11.7229 11.4811 11.8869 11.4132 12.0579 11.4132H14.8843V8.58677C14.8843 8.41581 14.9522 8.25184 15.0731 8.13095C15.194 8.01006 15.358 7.94215 15.5289 7.94215C15.6999 7.94215 15.8639 8.01006 15.9848 8.13095C16.1056 8.25184 16.1736 8.41581 16.1736 8.58677V11.4132H20.0909V8.58677C20.0909 8.41581 20.1588 8.25185 20.2797 8.13095C20.4006 8.01006 20.5646 7.94215 20.7355 7.94215C20.9065 7.94215 21.0705 8.01006 21.1914 8.13095C21.3123 8.25184 21.3802 8.41581 21.3802 8.58677ZM16.1736 19.6446V25.2975H22.4711C23.2207 25.2975 23.9396 24.9997 24.4697 24.4697C24.9997 23.9396 25.2975 23.2207 25.2975 22.4711C25.2975 21.7214 24.9997 21.0025 24.4697 20.4725C23.9396 19.9424 23.2207 19.6446 22.4711 19.6446H16.1736ZM16.1736 12.7025V18.3554H22.4711C23.2207 18.3554 23.9396 18.0576 24.4697 17.5275C24.9997 16.9975 25.2975 16.2785 25.2975 15.5289C25.2975 14.7793 24.9997 14.0604 24.4697 13.5303C23.9396 13.0003 23.2207 12.7025 22.4711 12.7025H16.1736Z"/>
<path fill-rule="evenodd" clip-rule="evenodd" d="M8.99974 4.03355C11.9598 2.05568 15.4399 1 19 1C23.7739 1 28.3523 2.89642 31.7279 6.27208C35.1036 9.64773 37 14.2261 37 19C37 22.5601 35.9443 26.0402 33.9665 29.0003C31.9886 31.9603 29.1774 34.2674 25.8883 35.6298C22.5992 36.9922 18.98 37.3487 15.4884 36.6541C11.9967 35.9596 8.78943 34.2453 6.27209 31.7279C3.75474 29.2106 2.04041 26.0033 1.34587 22.5116C0.651339 19.02 1.0078 15.4008 2.37018 12.1117C3.73255 8.82263 6.03966 6.01141 8.99974 4.03355ZM9.71601 32.8945C12.4641 34.7307 15.6949 35.7107 19 35.7107C23.432 35.7107 27.6824 33.9501 30.8163 30.8163C33.9501 27.6824 35.7107 23.432 35.7107 19C35.7107 15.6949 34.7307 12.4641 32.8945 9.71601C31.0583 6.96794 28.4484 4.82608 25.3949 3.56128C22.3414 2.29649 18.9815 1.96556 15.7399 2.61035C12.4983 3.25513 9.52076 4.84668 7.18373 7.18372C4.84669 9.52076 3.25514 12.4983 2.61036 15.7399C1.96557 18.9815 2.2965 22.3414 3.56129 25.3949C4.82609 28.4484 6.96795 31.0583 9.71601 32.8945Z"/>
</mask>
<path fill-rule="evenodd" clip-rule="evenodd" d="M21.3802 8.58677V11.4132H22.4711C23.5626 11.4132 24.6095 11.8468 25.3813 12.6187C26.153 13.3904 26.5866 14.4369 26.5868 15.5282C26.5841 16.541 26.208 17.5173 25.5304 18.2703L24.8737 19L25.5304 19.7297C26.208 20.4827 26.5841 21.459 26.5868 22.4718C26.5866 23.5631 26.153 24.6096 25.3813 25.3813C24.6095 26.1532 23.5626 26.5868 22.4711 26.5868H21.3802V29.4132C21.3802 29.5842 21.3123 29.7482 21.1914 29.869C21.0705 29.9899 20.9065 30.0578 20.7355 30.0578C20.5646 30.0578 20.4006 29.9899 20.2797 29.869C20.1588 29.7481 20.0909 29.5842 20.0909 29.4132V26.5868H16.1736V29.4132C16.1736 29.5842 16.1056 29.7482 15.9848 29.869C15.8639 29.9899 15.6999 30.0578 15.5289 30.0578C15.358 30.0578 15.194 29.9899 15.0731 29.869C14.9522 29.7482 14.8843 29.5842 14.8843 29.4132V26.5868H12.0579C11.8869 26.5868 11.7229 26.5189 11.602 26.398C11.4811 26.2771 11.4132 26.1131 11.4132 25.9421C11.4132 25.7712 11.4811 25.6072 11.602 25.4863C11.7229 25.3654 11.8869 25.2975 12.0579 25.2975H14.8843V12.7025H12.0579C11.8869 12.7025 11.7229 12.6346 11.602 12.5137C11.4811 12.3928 11.4132 12.2288 11.4132 12.0578C11.4132 11.8869 11.4811 11.7229 11.602 11.602C11.7229 11.4811 11.8869 11.4132 12.0579 11.4132H14.8843V8.58677C14.8843 8.41581 14.9522 8.25184 15.0731 8.13095C15.194 8.01006 15.358 7.94215 15.5289 7.94215C15.6999 7.94215 15.8639 8.01006 15.9848 8.13095C16.1056 8.25184 16.1736 8.41581 16.1736 8.58677V11.4132H20.0909V8.58677C20.0909 8.41581 20.1588 8.25185 20.2797 8.13095C20.4006 8.01006 20.5646 7.94215 20.7355 7.94215C20.9065 7.94215 21.0705 8.01006 21.1914 8.13095C21.3123 8.25184 21.3802 8.41581 21.3802 8.58677ZM16.1736 19.6446V25.2975H22.4711C23.2207 25.2975 23.9396 24.9997 24.4697 24.4697C24.9997 23.9396 25.2975 23.2207 25.2975 22.4711C25.2975 21.7214 24.9997 21.0025 24.4697 20.4725C23.9396 19.9424 23.2207 19.6446 22.4711 19.6446H16.1736ZM16.1736 12.7025V18.3554H22.4711C23.2207 18.3554 23.9396 18.0576 24.4697 17.5275C24.9997 16.9975 25.2975 16.2785 25.2975 15.5289C25.2975 14.7793 24.9997 14.0604 24.4697 13.5303C23.9396 13.0003 23.2207 12.7025 22.4711 12.7025H16.1736Z" fill="#F0F5BF"/>
<path fill-rule="evenodd" clip-rule="evenodd" d="M8.99974 4.03355C11.9598 2.05568 15.4399 1 19 1C23.7739 1 28.3523 2.89642 31.7279 6.27208C35.1036 9.64773 37 14.2261 37 19C37 22.5601 35.9443 26.0402 33.9665 29.0003C31.9886 31.9603 29.1774 34.2674 25.8883 35.6298C22.5992 36.9922 18.98 37.3487 15.4884 36.6541C11.9967 35.9596 8.78943 34.2453 6.27209 31.7279C3.75474 29.2106 2.04041 26.0033 1.34587 22.5116C0.651339 19.02 1.0078 15.4008 2.37018 12.1117C3.73255 8.82263 6.03966 6.01141 8.99974 4.03355ZM9.71601 32.8945C12.4641 34.7307 15.6949 35.7107 19 35.7107C23.432 35.7107 27.6824 33.9501 30.8163 30.8163C33.9501 27.6824 35.7107 23.432 35.7107 19C35.7107 15.6949 34.7307 12.4641 32.8945 9.71601C31.0583 6.96794 28.4484 4.82608 25.3949 3.56128C22.3414 2.29649 18.9815 1.96556 15.7399 2.61035C12.4983 3.25513 9.52076 4.84668 7.18373 7.18372C4.84669 9.52076 3.25514 12.4983 2.61036 15.7399C1.96557 18.9815 2.2965 22.3414 3.56129 25.3949C4.82609 28.4484 6.96795 31.0583 9.71601 32.8945Z" fill="#F0F5BF"/>
<path d="M21.3802 11.4132H20.9802V11.8132H21.3802V11.4132ZM25.3813 12.6187L25.0985 12.9015L25.0985 12.9015L25.3813 12.6187ZM26.5868 15.5282L26.9868 15.5292V15.5281L26.5868 15.5282ZM25.5304 18.2703L25.8277 18.5378H25.8277L25.5304 18.2703ZM24.8737 19L24.5764 18.7324L24.3356 19L24.5764 19.2676L24.8737 19ZM25.5304 19.7297L25.8277 19.4622L25.5304 19.7297ZM26.5868 22.4718L26.9868 22.4719L26.9868 22.4707L26.5868 22.4718ZM25.3813 25.3813L25.0985 25.0985L25.3813 25.3813ZM21.3802 26.5868V26.1868H20.9802V26.5868H21.3802ZM20.2797 29.869L19.9969 30.1519L19.9969 30.1519L20.2797 29.869ZM20.0909 26.5868H20.4909V26.1868H20.0909V26.5868ZM16.1736 26.5868V26.1868H15.7736V26.5868H16.1736ZM15.9848 29.869L16.2676 30.1519L16.2676 30.1519L15.9848 29.869ZM15.0731 29.869L14.7903 30.1519L14.7903 30.1519L15.0731 29.869ZM14.8843 26.5868H15.2843V26.1868H14.8843V26.5868ZM11.602 25.4863L11.3192 25.2035H11.3192L11.602 25.4863ZM14.8843 25.2975V25.6975H15.2843V25.2975H14.8843ZM14.8843 12.7025H15.2843V12.3025H14.8843V12.7025ZM11.602 12.5137L11.3192 12.7965L11.3192 12.7965L11.602 12.5137ZM11.602 11.602L11.3192 11.3192L11.3192 11.3192L11.602 11.602ZM14.8843 11.4132V11.8132H15.2843V11.4132H14.8843ZM15.0731 8.13095L15.356 8.4138L15.356 8.4138L15.0731 8.13095ZM15.9848 8.13095L16.2676 7.84811L16.2676 7.84811L15.9848 8.13095ZM16.1736 11.4132H15.7736V11.8132H16.1736V11.4132ZM20.0909 11.4132V11.8132H20.4909V11.4132H20.0909ZM20.2797 8.13095L19.9969 7.84811V7.84811L20.2797 8.13095ZM21.1914 8.13095L20.9085 8.4138V8.4138L21.1914 8.13095ZM16.1736 25.2975H15.7736V25.6975H16.1736V25.2975ZM16.1736 19.6446V19.2446H15.7736V19.6446H16.1736ZM24.4697 24.4697L24.1868 24.1868L24.4697 24.4697ZM16.1736 18.3554H15.7736V18.7554H16.1736V18.3554ZM16.1736 12.7025V12.3025H15.7736V12.7025H16.1736ZM24.4697 17.5275L24.7525 17.8104L24.4697 17.5275ZM8.99974 4.03355L8.77751 3.70096L8.99974 4.03355ZM31.7279 6.27208L31.4451 6.55492L31.7279 6.27208ZM33.9665 29.0003L33.6339 28.778L33.9665 29.0003ZM25.8883 35.6298L26.0414 35.9994L25.8883 35.6298ZM15.4884 36.6541L15.4103 37.0464H15.4103L15.4884 36.6541ZM6.27209 31.7279L6.55493 31.4451H6.55493L6.27209 31.7279ZM1.34587 22.5116L1.73819 22.4336L1.34587 22.5116ZM2.37018 12.1117L2.73973 12.2648L2.37018 12.1117ZM9.71601 32.8945L9.49378 33.2271H9.49378L9.71601 32.8945ZM32.8945 9.71601L33.2271 9.49378L32.8945 9.71601ZM25.3949 3.56128L25.2419 3.93084L25.3949 3.56128ZM15.7399 2.61035L15.8179 3.00266L15.7399 2.61035ZM7.18373 7.18372L7.46657 7.46656L7.18373 7.18372ZM2.61036 15.7399L3.00267 15.8179L2.61036 15.7399ZM3.56129 25.3949L3.19174 25.548H3.19174L3.56129 25.3949ZM21.7802 11.4132V8.58677H20.9802V11.4132H21.7802ZM22.4711 11.0132H21.3802V11.8132H22.4711V11.0132ZM25.6642 12.3358C24.8173 11.489 23.6687 11.0132 22.4711 11.0132V11.8132C23.4565 11.8132 24.4016 12.2047 25.0985 12.9015L25.6642 12.3358ZM26.9868 15.5281C26.9866 14.3308 26.5108 13.1825 25.6642 12.3358L25.0985 12.9015C25.7951 13.5982 26.1866 14.543 26.1868 15.5282L26.9868 15.5281ZM25.8277 18.5378C26.5711 17.7117 26.9838 16.6405 26.9868 15.5292L26.1868 15.5271C26.1843 16.4415 25.8448 17.3229 25.2331 18.0027L25.8277 18.5378ZM25.1711 19.2676L25.8277 18.5378L25.2331 18.0027L24.5764 18.7324L25.1711 19.2676ZM25.8277 19.4622L25.1711 18.7324L24.5764 19.2676L25.2331 19.9973L25.8277 19.4622ZM26.9868 22.4707C26.9838 21.3595 26.5711 20.2883 25.8277 19.4622L25.2331 19.9973C25.8448 20.677 26.1843 21.5585 26.1868 22.4729L26.9868 22.4707ZM25.6642 25.6642C26.5108 24.8175 26.9866 23.6692 26.9868 22.4719L26.1868 22.4717C26.1866 23.457 25.7951 24.4018 25.0985 25.0985L25.6642 25.6642ZM22.4711 26.9868C23.6687 26.9868 24.8173 26.511 25.6642 25.6642L25.0985 25.0985C24.4016 25.7953 23.4565 26.1868 22.4711 26.1868V26.9868ZM21.3802 26.9868H22.4711V26.1868H21.3802V26.9868ZM21.7802 29.4132V26.5868H20.9802V29.4132H21.7802ZM21.4742 30.1519C21.6701 29.956 21.7802 29.6903 21.7802 29.4132H20.9802C20.9802 29.4781 20.9544 29.5403 20.9085 29.5862L21.4742 30.1519ZM20.7355 30.4578C21.0126 30.4578 21.2783 30.3478 21.4742 30.1519L20.9085 29.5862C20.8626 29.6321 20.8004 29.6578 20.7355 29.6578V30.4578ZM19.9969 30.1519C20.1928 30.3478 20.4585 30.4578 20.7355 30.4578V29.6578C20.6707 29.6578 20.6084 29.6321 20.5626 29.5862L19.9969 30.1519ZM19.6909 29.4132C19.6909 29.6903 19.801 29.956 19.9969 30.1519L20.5626 29.5862C20.5167 29.5403 20.4909 29.4781 20.4909 29.4132H19.6909ZM19.6909 26.5868V29.4132H20.4909V26.5868H19.6909ZM16.1736 26.9868H20.0909V26.1868H16.1736V26.9868ZM16.5736 29.4132V26.5868H15.7736V29.4132H16.5736ZM16.2676 30.1519C16.4635 29.956 16.5736 29.6903 16.5736 29.4132H15.7736C15.7736 29.4781 15.7478 29.5403 15.7019 29.5862L16.2676 30.1519ZM15.5289 30.4578C15.806 30.4578 16.0717 30.3478 16.2676 30.1519L15.7019 29.5862C15.656 29.6321 15.5938 29.6578 15.5289 29.6578V30.4578ZM14.7903 30.1519C14.9862 30.3478 15.2519 30.4578 15.5289 30.4578V29.6578C15.464 29.6578 15.4018 29.6321 15.356 29.5862L14.7903 30.1519ZM14.4843 29.4132C14.4843 29.6903 14.5944 29.956 14.7903 30.1519L15.356 29.5862C15.3101 29.5403 15.2843 29.4781 15.2843 29.4132H14.4843ZM14.4843 26.5868V29.4132H15.2843V26.5868H14.4843ZM12.0579 26.9868H14.8843V26.1868H12.0579V26.9868ZM11.3192 26.6808C11.5151 26.8767 11.7808 26.9868 12.0579 26.9868V26.1868C11.993 26.1868 11.9308 26.161 11.8849 26.1151L11.3192 26.6808ZM11.0132 25.9421C11.0132 26.2192 11.1233 26.4849 11.3192 26.6808L11.8849 26.1151C11.839 26.0692 11.8132 26.007 11.8132 25.9421H11.0132ZM11.3192 25.2035C11.1233 25.3994 11.0132 25.6651 11.0132 25.9421H11.8132C11.8132 25.8773 11.839 25.815 11.8849 25.7692L11.3192 25.2035ZM12.0579 24.8975C11.7808 24.8975 11.5151 25.0076 11.3192 25.2035L11.8849 25.7692C11.9308 25.7233 11.993 25.6975 12.0579 25.6975V24.8975ZM14.8843 24.8975H12.0579V25.6975H14.8843V24.8975ZM14.4843 12.7025V25.2975H15.2843V12.7025H14.4843ZM12.0579 13.1025H14.8843V12.3025H12.0579V13.1025ZM11.3192 12.7965C11.5151 12.9924 11.7808 13.1025 12.0579 13.1025V12.3025C11.993 12.3025 11.9308 12.2767 11.8849 12.2308L11.3192 12.7965ZM11.0132 12.0578C11.0132 12.3349 11.1233 12.6006 11.3192 12.7965L11.8849 12.2308C11.839 12.1849 11.8132 12.1227 11.8132 12.0578H11.0132ZM11.3192 11.3192C11.1233 11.5151 11.0132 11.7808 11.0132 12.0578H11.8132C11.8132 11.993 11.839 11.9307 11.8849 11.8849L11.3192 11.3192ZM12.0579 11.0132C11.7808 11.0132 11.5151 11.1233 11.3192 11.3192L11.8849 11.8849C11.9308 11.839 11.993 11.8132 12.0579 11.8132V11.0132ZM14.8843 11.0132H12.0579V11.8132H14.8843V11.0132ZM14.4843 8.58677V11.4132H15.2843V8.58677H14.4843ZM14.7903 7.84811C14.5944 8.04402 14.4843 8.30972 14.4843 8.58677H15.2843C15.2843 8.52189 15.3101 8.45967 15.356 8.4138L14.7903 7.84811ZM15.5289 7.54215C15.2519 7.54215 14.9862 7.65221 14.7903 7.84811L15.356 8.4138C15.4018 8.36792 15.4641 8.34215 15.5289 8.34215V7.54215ZM16.2676 7.84811C16.0717 7.65221 15.806 7.54215 15.5289 7.54215V8.34215C15.5938 8.34215 15.656 8.36792 15.7019 8.4138L16.2676 7.84811ZM16.5736 8.58677C16.5736 8.30972 16.4635 8.04402 16.2676 7.84811L15.7019 8.4138C15.7478 8.45967 15.7736 8.52189 15.7736 8.58677H16.5736ZM16.5736 11.4132V8.58677H15.7736V11.4132H16.5736ZM20.0909 11.0132H16.1736V11.8132H20.0909V11.0132ZM19.6909 8.58677V11.4132H20.4909V8.58677H19.6909ZM19.9969 7.84811C19.801 8.04402 19.6909 8.30972 19.6909 8.58677H20.4909C20.4909 8.5219 20.5167 8.45967 20.5626 8.4138L19.9969 7.84811ZM20.7355 7.54215C20.4585 7.54215 20.1928 7.6522 19.9969 7.84811L20.5626 8.4138C20.6084 8.36792 20.6707 8.34215 20.7355 8.34215V7.54215ZM21.4742 7.84811C21.2783 7.65221 21.0126 7.54215 20.7355 7.54215V8.34215C20.8004 8.34215 20.8626 8.36792 20.9085 8.4138L21.4742 7.84811ZM21.7802 8.58677C21.7802 8.30972 21.6701 8.04402 21.4742 7.84811L20.9085 8.4138C20.9544 8.45967 20.9802 8.5219 20.9802 8.58677H21.7802ZM16.5736 25.2975V19.6446H15.7736V25.2975H16.5736ZM22.4711 24.8975H16.1736V25.6975H22.4711V24.8975ZM24.1868 24.1868C23.7318 24.6419 23.1146 24.8975 22.4711 24.8975V25.6975C23.3268 25.6975 24.1474 25.3576 24.7525 24.7525L24.1868 24.1868ZM24.8975 22.4711C24.8975 23.1146 24.6419 23.7318 24.1868 24.1868L24.7525 24.7525C25.3576 24.1474 25.6975 23.3268 25.6975 22.4711H24.8975ZM24.1868 20.7553C24.6419 21.2104 24.8975 21.8275 24.8975 22.4711H25.6975C25.6975 21.6154 25.3576 20.7947 24.7525 20.1896L24.1868 20.7553ZM22.4711 20.0446C23.1146 20.0446 23.7318 20.3003 24.1868 20.7553L24.7525 20.1896C24.1474 19.5846 23.3268 19.2446 22.4711 19.2446V20.0446ZM16.1736 20.0446H22.4711V19.2446H16.1736V20.0446ZM16.5736 18.3554V12.7025H15.7736V18.3554H16.5736ZM22.4711 17.9554H16.1736V18.7554H22.4711V17.9554ZM24.1868 17.2447C23.7318 17.6997 23.1146 17.9554 22.4711 17.9554V18.7554C23.3268 18.7554 24.1474 18.4154 24.7525 17.8104L24.1868 17.2447ZM24.8975 15.5289C24.8975 16.1725 24.6419 16.7896 24.1868 17.2447L24.7525 17.8104C25.3576 17.2053 25.6975 16.3846 25.6975 15.5289H24.8975ZM24.1868 13.8132C24.6419 14.2682 24.8975 14.8854 24.8975 15.5289H25.6975C25.6975 14.6732 25.3576 13.8526 24.7525 13.2475L24.1868 13.8132ZM22.4711 13.1025C23.1146 13.1025 23.7318 13.3581 24.1868 13.8132L24.7525 13.2475C24.1474 12.6424 23.3268 12.3025 22.4711 12.3025V13.1025ZM16.1736 13.1025H22.4711V12.3025H16.1736V13.1025ZM19 0.6C15.3608 0.6 11.8034 1.67914 8.77751 3.70096L9.22197 4.36613C12.1163 2.43222 15.5191 1.4 19 1.4V0.6ZM32.0108 5.98923C28.5601 2.53857 23.88 0.6 19 0.6V1.4C23.6678 1.4 28.1444 3.25428 31.4451 6.55492L32.0108 5.98923ZM37.4 19C37.4 14.12 35.4614 9.4399 32.0108 5.98923L31.4451 6.55492C34.7457 9.85556 36.6 14.3322 36.6 19H37.4ZM34.299 29.2225C36.3209 26.1966 37.4 22.6392 37.4 19H36.6C36.6 22.4809 35.5678 25.8837 33.6339 28.778L34.299 29.2225ZM26.0414 35.9994C29.4035 34.6067 32.2772 32.2484 34.299 29.2225L33.6339 28.778C31.7 31.6723 28.9512 33.9282 25.7352 35.2603L26.0414 35.9994ZM15.4103 37.0464C18.9796 37.7564 22.6792 37.392 26.0414 35.9994L25.7352 35.2603C22.5193 36.5924 18.9805 36.9409 15.5664 36.2618L15.4103 37.0464ZM5.98924 32.0108C8.56253 34.584 11.8411 36.3365 15.4103 37.0464L15.5664 36.2618C12.1523 35.5827 9.01633 33.9065 6.55493 31.4451L5.98924 32.0108ZM0.953559 22.5897C1.66353 26.1589 3.41596 29.4375 5.98924 32.0108L6.55493 31.4451C4.09352 28.9837 2.41729 25.8477 1.73819 22.4336L0.953559 22.5897ZM2.00062 11.9586C0.607972 15.3208 0.243591 19.0204 0.953559 22.5897L1.73819 22.4336C1.05909 19.0195 1.40763 15.4807 2.73973 12.2648L2.00062 11.9586ZM8.77751 3.70096C5.75165 5.72277 3.39328 8.59646 2.00062 11.9586L2.73973 12.2648C4.07183 9.04879 6.32767 6.30005 9.22197 4.36613L8.77751 3.70096ZM19 35.3107C15.774 35.3107 12.6205 34.3541 9.93824 32.5619L9.49378 33.2271C12.3076 35.1072 15.6158 36.1107 19 36.1107V35.3107ZM30.5334 30.5334C27.4746 33.5923 23.3259 35.3107 19 35.3107V36.1107C23.5381 36.1107 27.8902 34.308 31.0991 31.0991L30.5334 30.5334ZM35.3107 19C35.3107 23.3259 33.5923 27.4746 30.5334 30.5334L31.0991 31.0991C34.308 27.8902 36.1107 23.538 36.1107 19H35.3107ZM32.5619 9.93823C34.3541 12.6205 35.3107 15.774 35.3107 19H36.1107C36.1107 15.6158 35.1072 12.3076 33.2271 9.49378L32.5619 9.93823ZM25.2419 3.93084C28.2223 5.16536 30.7696 7.25595 32.5619 9.93823L33.2271 9.49378C31.3469 6.67993 28.6746 4.4868 25.548 3.19173L25.2419 3.93084ZM15.8179 3.00266C18.9819 2.37331 22.2615 2.69631 25.2419 3.93084L25.548 3.19173C22.4214 1.89666 18.981 1.55781 15.6619 2.21803L15.8179 3.00266ZM7.46657 7.46656C9.74767 5.18546 12.654 3.63201 15.8179 3.00266L15.6619 2.21803C12.3427 2.87825 9.29386 4.50789 6.90088 6.90087L7.46657 7.46656ZM3.00267 15.8179C3.63202 12.654 5.18547 9.74766 7.46657 7.46656L6.90088 6.90087C4.5079 9.29385 2.87826 12.3427 2.21804 15.6619L3.00267 15.8179ZM3.93084 25.2418C2.69632 22.2614 2.37332 18.9819 3.00267 15.8179L2.21804 15.6619C1.55782 18.981 1.89667 22.4214 3.19174 25.548L3.93084 25.2418ZM9.93824 32.5619C7.25595 30.7696 5.16537 28.2222 3.93084 25.2418L3.19174 25.548C4.48681 28.6746 6.67994 31.3469 9.49378 33.2271L9.93824 32.5619Z" fill="#FCE049" mask="url(#path-1-outside-1)"/>
</svg>
