<svg class ="faucet" width="24" height="32" viewBox="0 0 24 32" fill="none" xmlns="http://www.w3.org/2000/svg">
<path d="M10.7061 1C10.2289 1 9.7713 1.18886 9.43388 1.52505C9.09645 1.86123 8.90688 2.31724 8.90687 2.79268H6.26247C6.09396 2.58298 5.88031 2.4137 5.6373 2.29733C5.3943 2.18097 5.12815 2.1205 4.85854 2.1204C4.62225 2.12041 4.38828 2.16674 4.16998 2.25684C3.95168 2.34693 3.75333 2.47903 3.58625 2.64551C3.41917 2.81198 3.28664 3.00957 3.19622 3.22708C3.1058 3.44459 3.05927 3.67772 3.05927 3.91314C3.05927 4.14857 3.1058 4.38164 3.19622 4.59915C3.28664 4.81666 3.41917 5.01436 3.58625 5.18084C3.75333 5.34731 3.95168 5.4793 4.16998 5.56939C4.38828 5.65949 4.62225 5.70588 4.85854 5.70588C5.12785 5.70552 5.39365 5.64496 5.63633 5.52861C5.879 5.41225 6.09237 5.24313 6.26069 5.03366H15.1516C15.3199 5.24313 15.5333 5.41225 15.776 5.52861C16.0187 5.64496 16.2844 5.70552 16.5538 5.70588C16.79 5.70588 17.024 5.65949 17.2423 5.56939C17.4606 5.4793 17.659 5.34731 17.8261 5.18084C17.9931 5.01436 18.1257 4.81666 18.2161 4.59915C18.3065 4.38164 18.353 4.14857 18.353 3.91314C18.353 3.67772 18.3065 3.44459 18.2161 3.22708C18.1257 3.00957 17.9931 2.81198 17.8261 2.64551C17.659 2.47903 17.4606 2.34693 17.2423 2.25684C17.024 2.16674 16.79 2.1204 16.5538 2.1204C16.2841 2.1205 16.018 2.18097 15.775 2.29733C15.532 2.4137 15.3183 2.58298 15.1498 2.79268H12.5054C12.5054 2.31723 12.3158 1.86123 11.9784 1.52505C11.641 1.18886 11.1833 0.999992 10.7061 1V1Z" stroke="#A9A7BE" stroke-linecap="round" stroke-linejoin="round"/>
<path d="M11.8822 9.26505C11.606 9.26505 11.3822 9.04119 11.3822 8.76505V6.91211H10.0293V8.76505C10.0293 9.04119 9.8054 9.26505 9.52926 9.26505H8.82339C7.79513 9.26505 6.96867 10.0908 6.96867 11.118V11.8258C6.96867 12.102 6.74481 12.3258 6.46867 12.3258H0.500055V16.5023H16.3526C17.5863 16.5023 18.4997 17.4157 18.4997 18.6494V20.9709H22.676V18.6494C22.676 15.189 19.813 12.3258 16.3526 12.3258H14.9428C14.6666 12.3258 14.4428 12.102 14.4428 11.8258V11.118C14.4428 10.0908 13.6163 9.26505 12.588 9.26505H11.8822Z" stroke="#A9A7BE" stroke-linecap="round" stroke-linejoin="round"/>
<path d="M18.353 26.5882L17.7648 27.1765L17.1766 26.5882L17.7648 26L18.353 26.5882Z" fill="#A9A7BE"/>
<path d="M21.1766 26.5882L20.5884 27.1765L20.0002 26.5882L20.5884 26L21.1766 26.5882Z" fill="#A9A7BE"/>
<path d="M24 26.5882L23.4118 27.1765L22.8236 26.5882L23.4118 26L24 26.5882Z" fill="#A9A7BE"/>
<path d="M19.7648 28.4706L19.1765 29.0588L18.5883 28.4706L19.1765 27.8823L19.7648 28.4706Z" fill="#A9A7BE"/>
<path d="M22.5883 28.4708L22.0001 29.0589L21.4118 28.4708L22.0001 27.8824L22.5883 28.4708Z" fill="#A9A7BE"/>
<path d="M21.1766 30.353L20.5884 29.7648L20.0002 30.353L20.5884 30.9412L21.1766 30.353Z" fill="#A9A7BE"/>
<path d="M23.1323 23.6029V22.75H18.0442V23.6029H23.1323Z" stroke="#A9A7BE" stroke-width="1.5" stroke-linecap="round" stroke-linejoin="round"/>
</svg>
