<svg width="24" height="24" viewBox="0 0 24 24" fill="none" xmlns="http://www.w3.org/2000/svg">
<rect x="0.75" y="3.75" width="22.5" height="18" rx="1.5" stroke="#A9A7BE" stroke-width="1.5" stroke-linecap="round" stroke-linejoin="round"/>
<rect x="5.25" y="6.75" width="15" height="12" rx="1.5" stroke="#A9A7BE" stroke-width="1.5" stroke-linecap="round" stroke-linejoin="round"/>
<path d="M3.75 21.75V23.25" stroke="#A9A7BE" stroke-width="1.5" stroke-linecap="round" stroke-linejoin="round"/>
<path d="M20.25 21.75V23.25" stroke="#A9A7BE" stroke-width="1.5" stroke-linecap="round" stroke-linejoin="round"/>
<path d="M3.75 11.25H6.75" stroke="#A9A7BE" stroke-width="1.5" stroke-linecap="round" stroke-linejoin="round"/>
<path d="M3.75 15.75H6.75" stroke="#A9A7BE" stroke-width="1.5" stroke-linecap="round" stroke-linejoin="round"/>
<path d="M13.875 14.25C14.0821 14.25 14.25 14.4179 14.25 14.625C14.25 14.8321 14.0821 15 13.875 15C13.6679 15 13.5 14.8321 13.5 14.625C13.5 14.4179 13.6679 14.25 13.875 14.25" stroke="#A9A7BE" stroke-width="1.5" stroke-linecap="round" stroke-linejoin="round"/>
<path d="M16.875 14.25C17.0821 14.25 17.25 14.4179 17.25 14.625C17.25 14.8321 17.0821 15 16.875 15C16.6679 15 16.5 14.8321 16.5 14.625C16.5 14.4179 16.6679 14.25 16.875 14.25" stroke="#A9A7BE" stroke-width="1.5" stroke-linecap="round" stroke-linejoin="round"/>
<path d="M13.875 10.5C14.0821 10.5 14.25 10.6679 14.25 10.875C14.25 11.0821 14.0821 11.25 13.875 11.25C13.6679 11.25 13.5 11.0821 13.5 10.875C13.5 10.6679 13.6679 10.5 13.875 10.5" stroke="#A9A7BE" stroke-width="1.5" stroke-linecap="round" stroke-linejoin="round"/>
<path d="M16.875 10.5C17.0821 10.5 17.25 10.6679 17.25 10.875C17.25 11.0821 17.0821 11.25 16.875 11.25C16.6679 11.25 16.5 11.0821 16.5 10.875C16.5 10.6679 16.6679 10.5 16.875 10.5" stroke="#A9A7BE" stroke-width="1.5" stroke-linecap="round" stroke-linejoin="round"/>
</svg>
